SplineFontDB: 3.2
FontName: IthkuilBasic-Oblique
FullName: Ithkuil Basic Oblique
FamilyName: IthkuilBasic
Weight: Regular
Copyright: Shankar Sivarajan\nBased on glyphs by Kevin McCurdy and Zachary Sakowitz. Numbers by Pan Kamil
UComments: "2023-2-19: Created with FontForge (http://fontforge.org)"
Version: 
ItalicAngle: 0
UnderlinePosition: -96
UnderlineWidth: 48
Ascent: 384
Descent: 128
InvalidEm: 0
LayerCount: 2
Layer: 0 0 "Back" 1
Layer: 1 0 "Fore" 0
XUID: [1021 73 1113128204 8431]
FSType: 0
OS2Version: 0
OS2_WeightWidthSlopeOnly: 0
OS2_UseTypoMetrics: 1
CreationTime: 1676795389
ModificationTime: 1701816216
PfmFamily: 17
TTFWeight: 400
TTFWidth: 5
LineGap: 48
VLineGap: 0
OS2TypoAscent: 0
OS2TypoAOffset: 1
OS2TypoDescent: 0
OS2TypoDOffset: 1
OS2TypoLinegap: 48
OS2WinAscent: 0
OS2WinAOffset: 1
OS2WinDescent: 0
OS2WinDOffset: 1
HheadAscent: 0
HheadAOffset: 1
HheadDescent: 0
HheadDOffset: 1
OS2Vendor: 'PfEd'
OS2CodePages: 00000000.00000000
OS2UnicodeRanges: 00000000.00000000.00000000.00000000
Lookup: 6 0 0 "OneQuote" { "OneQuote subtable"  } ['liga' ('grek' <'dflt' > 'latn' <'dflt' > 'DFLT' <'dflt' > ) ]
Lookup: 1 0 0 "Single Substitution lookup 1" { "Single Substitution lookup 1 subtable"  } []
Lookup: 4 0 1 "ExtraMoveDiacritic" { "ExtraMoveDiacritic subtable"  } ['liga' ('grek' <'dflt' > 'latn' <'dflt' > 'DFLT' <'dflt' > ) ]
Lookup: 4 0 1 "FlipCores" { "FlipCores subtable"  } ['liga' ('grek' <'dflt' > 'latn' <'dflt' > 'DFLT' <'dflt' > ) ]
Lookup: 4 0 1 "TertiaryLigature" { "TertiaryLigature subtable"  } ['liga' ('grek' <'dflt' > 'latn' <'dflt' > 'DFLT' <'dflt' > ) ]
Lookup: 4 0 1 "VowelLigature" { "VowelLigature subtable"  } ['liga' ('grek' <'dflt' > 'latn' <'dflt' > 'DFLT' <'dflt' > ) ]
Lookup: 4 0 1 "RegisterLigature" { "RegisterLigature subtable"  } ['liga' ('grek' <'dflt' > 'latn' <'dflt' > 'DFLT' <'dflt' > ) ]
Lookup: 6 0 0 "VowelAnchor" { "VowelAnchor contextual 0"  "VowelAnchor contextual 1"  } ['liga' ('grek' <'dflt' > 'latn' <'dflt' > 'DFLT' <'dflt' > ) ]

StartChar: RPV.VAR
Encoding: 65536 -1 0
Width: 1024
VWidth: 1024
Flags: H
LayerCount: 2
Back
SplineSet
-202 543 m 4
 -202 596 -159 639 -106 639 c 4
 -53 639 -10 596 -10 543 c 4
 -10 490 -53 447 -106 447 c 4
 -159 447 -202 490 -202 543 c 4
-250 495 m 4
 -250 548 -207 591 -154 591 c 4
 -101 591 -58 548 -58 495 c 4
 -58 442 -101 399 -154 399 c 4
 -207 399 -250 442 -250 495 c 4
EndSplineSet
Fore
Validated: 1
EndChar

StartChar: two.hund
Encoding: 65537 -1 1
Width: 320
GlyphClass: 4
Flags: HW
AnchorPoint: "Extension_mkmk" 255.799 297 mark 0
LayerCount: 2
Fore
SplineSet
270.198242188 309 m 1
 255.198242188 284 240.598632812 276 225.798828125 272 c 1
 236.198242188 324 l 1
 272.999023438 323 l 1
 270.198242188 309 l 1
119.999023438 343 m 2
 73.1982421875 304 l 1
 119.999023438 453 291.3984375 415 272.999023438 323 c 0
 254.798828125 302 248.598632812 301 228.598632812 286 c 1
 248.3984375 385 129.598632812 421 119.999023438 343 c 2
EndSplineSet
EndChar

StartChar: one.ten
Encoding: 65538 -1 2
Width: 320
GlyphClass: 4
Flags: HW
AnchorPoint: "Extension_mkmk" 108.3 48 mark 0
LayerCount: 2
Fore
SplineSet
86.7001953125 35 m 2
 103.299804688 63 116.5 64 131.099609375 72 c 1
 120.900390625 21 l 1
 76.5 -16 l 1
 86.7001953125 35 l 2
76.5 -16 m 1
 88.2998046875 8 103.700195312 20 120.900390625 21 c 0
 162.900390625 11 177.099609375 -13 186.299804688 -37 c 2
 147.900390625 -69 l 1
 137.900390625 -39 117.299804688 -12 76.5 -16 c 1
EndSplineSet
EndChar

StartChar: two.ten
Encoding: 65539 -1 3
Width: 320
Flags: HW
AnchorPoint: "Extension_mkmk" 105.602 49 mark 0
LayerCount: 2
Fore
SplineSet
85.8017578125 35 m 2
 100.801757812 60 115.401367188 68 130.201171875 72 c 1
 120.000976562 21 l 1
 83.0009765625 21 l 1
 85.8017578125 35 l 2
235.000976562 1 m 2
 282.801757812 40 l 1
 236.000976562 -109 64.6015625 -71 83.0009765625 21 c 0
 101.201171875 42 107.6015625 44 127.6015625 59 c 1
 107.801757812 -40 225.401367188 -77 235.000976562 1 c 2
EndSplineSet
EndChar

StartChar: three.ten
Encoding: 65540 -1 4
Width: 320
Flags: HW
AnchorPoint: "Extension_mkmk" 172.3 48 mark 0
LayerCount: 2
Fore
SplineSet
149.900390625 31 m 0
 162.099609375 52 177.299804688 63 194.299804688 68 c 1
 175.299804688 -27 111.700195312 -25 111.700195312 -25 c 1
 111.700195312 -25 105.700195312 -30 105.5 -16 c 1
 140.299804688 -17 144.099609375 -8 149.900390625 31 c 0
143.700195312 -95 m 1
 74.2998046875 -42 l 1
 105.5 -16 l 1
 176.5 -66 l 1
 143.700195312 -95 l 1
EndSplineSet
EndChar

StartChar: four.ten
Encoding: 65541 -1 5
Width: 320
Flags: HW
AnchorPoint: "Extension_mkmk" 135.476 48 mark 0
LayerCount: 2
Fore
SplineSet
116.875 35 m 0
 128.67578125 64 158.67578125 74 160.275390625 72 c 0
 151.875 30 175.475585938 23 197.875 15 c 1
 152.075195312 -9 l 1
 152.075195312 -9 112.275390625 12 116.875 35 c 0
197.875 15 m 1
 159.67578125 -6 94.0751953125 -44 67.67578125 -51 c 1
 112.67578125 -21 123.475585938 -12 182.075195312 21 c 2
 197.875 15 l 1
EndSplineSet
EndChar

StartChar: five.ten
Encoding: 65542 -1 6
Width: 320
Flags: HW
AnchorPoint: "Extension_mkmk" 210.9 48 mark 0
LayerCount: 2
Fore
SplineSet
187.299804688 35 m 2
 203.299804688 55 217.900390625 63 231.700195312 72 c 1
 223.099609375 29 l 1
 193.099609375 4 l 1
 82.099609375 4 l 1
 112.099609375 29 l 1
 186.099609375 29 l 1
 187.299804688 35 l 2
180.299804688 -85 m 1
 152.5 -29 140.299804688 -20 82.099609375 4 c 1
 112.099609375 29 l 2
 153.900390625 8 175.900390625 -7 212.900390625 -57 c 2
 180.299804688 -85 l 1
EndSplineSet
EndChar

StartChar: six.ten
Encoding: 65543 -1 7
Width: 320
Flags: HW
AnchorPoint: "Extension_mkmk" 119.2 48 mark 0
LayerCount: 2
Fore
SplineSet
98.599609375 35 m 2
 115.200195312 63 128.400390625 64 143 72 c 1
 134.799804688 31 l 1
 92.599609375 5 l 1
 98.599609375 35 l 2
134.799804688 31 m 2
 237.799804688 31 l 1
 201.599609375 5 l 1
 92.599609375 5 l 1
 105 17 118 27 134.799804688 31 c 2
64 -88 m 1
 77.7998046875 -19 170.799804688 1 237.799804688 31 c 1
 201.599609375 5 l 2
 186 -3 126.799804688 -4 117.599609375 -50 c 2
 64 -88 l 1
EndSplineSet
EndChar

StartChar: seven.ten
Encoding: 65544 -1 8
Width: 320
Flags: HW
AnchorPoint: "Extension_mkmk" 171.796 48 mark 0
LayerCount: 2
Fore
SplineSet
153.1953125 35 m 2
 169.795898438 63 182.995117188 64 197.595703125 72 c 1
 187.395507812 21 l 1
 146.1953125 0 l 1
 153.1953125 35 l 2
146.1953125 0 m 1
 146.1953125 0 l 1
 158.995117188 9 171.795898438 18 187.395507812 21 c 0
 325.795898438 18 200.995117188 -101 71.595703125 -33 c 1
 100.395507812 -9 l 1
 119.995117188 -46 274.1953125 -45 206.1953125 -10 c 0
 197.1953125 -5 167.1953125 0 146.1953125 0 c 1
EndSplineSet
EndChar

StartChar: eight.ten
Encoding: 65545 -1 9
Width: 320
Flags: HW
AnchorPoint: "Extension_mkmk" 177.977 48 mark 0
LayerCount: 2
Fore
SplineSet
157.376953125 35 m 2
 173.9765625 63 186.176757812 64 200.776367188 72 c 1
 189.376953125 15 l 1
 153.376953125 15 l 1
 157.376953125 35 l 2
189.376953125 15 m 1
 152.176757812 -16 l 2
 138.576171875 -14 113.776367188 -8 99.376953125 -25 c 0
 82.576171875 -44 173.776367188 -58 218.176757812 -36 c 1
 181.776367188 -108 -49.0234375 -77 153.376953125 15 c 0
 172.176757812 24 178.776367188 17 189.376953125 15 c 2
 189.376953125 15 l 1
EndSplineSet
EndChar

StartChar: nine.ten
Encoding: 65546 -1 10
Width: 320
Flags: HW
AnchorPoint: "Extension_mkmk" 110.5 52 mark 0
LayerCount: 2
Fore
SplineSet
88.099609375 35 m 2
 104.700195312 63 117.900390625 64 132.5 72 c 1
 121.099609375 15 l 1
 79.5 -8 l 1
 88.099609375 35 l 2
79.5 -8 m 1
 183.5 97 245.700195312 8 111.5 -83 c 1
 125.299804688 -64 135.700195312 -52 146.5 -33 c 0
 166.700195312 3 146.700195312 33 79.5 -8 c 1
EndSplineSet
EndChar

StartChar: one.hund
Encoding: 65547 -1 11
Width: 320
Flags: HW
HStem: 275 84G<158 164> 326 37<150 171>
VStem: 158 37<305 326>
AnchorPoint: "Extension_mkmk" 172.7 299 mark 0
LayerCount: 2
Fore
SplineSet
187.299804688 312 m 2x60
 170.700195312 284 158.5 283 143.900390625 275 c 1xa0
 154.099609375 326 l 1
 197.5 363 l 1
 187.299804688 312 l 2x60
197.5 363 m 1x60
 185.700195312 339 171.299804688 327 154.099609375 326 c 0
 112.099609375 336 96.900390625 360 87.7001953125 384 c 2
 126.099609375 416 l 1
 136.099609375 386 156.700195312 359 197.5 363 c 1x60
EndSplineSet
EndChar

StartChar: three.hund
Encoding: 65548 -1 12
Width: 320
Flags: HW
AnchorPoint: "Extension_mkmk" 100.5 297 mark 0
LayerCount: 2
Fore
SplineSet
117.099609375 310 m 0
 104.900390625 289 89.7001953125 278 72.7001953125 273 c 1
 91.7001953125 368 155.5 367 155.5 367 c 1
 155.5 367 161.5 372 161.700195312 358 c 1
 126.900390625 359 122.900390625 349 117.099609375 310 c 0
123.299804688 436 m 1
 192.700195312 383 l 1
 161.700195312 358 l 1
 90.5 407 l 1
 123.299804688 436 l 1
EndSplineSet
EndChar

StartChar: four.hund
Encoding: 65549 -1 13
Width: 320
Flags: HW
AnchorPoint: "Extension_mkmk" 144.524 297 mark 0
LayerCount: 2
Fore
SplineSet
160.125 310 m 0
 148.32421875 281 117.32421875 271 115.724609375 273 c 0
 124.125 315 101.524414062 322 79.125 330 c 1
 124.924804688 354 l 1
 124.924804688 354 164.724609375 333 160.125 310 c 0
79.125 330 m 1
 117.32421875 351 182.924804688 389 209.32421875 396 c 1
 164.32421875 366 153.524414062 357 94.9248046875 324 c 2
 79.125 330 l 1
EndSplineSet
EndChar

StartChar: five.hund
Encoding: 65550 -1 14
Width: 320
Flags: HW
AnchorPoint: "Extension_mkmk" 101.5 301 mark 0
LayerCount: 2
Fore
SplineSet
115.700195312 312 m 2
 99.7001953125 292 85.099609375 284 71.2998046875 275 c 1
 79.900390625 318 l 1
 109.900390625 343 l 1
 220.900390625 343 l 1
 190.900390625 318 l 1
 116.900390625 318 l 1
 115.700195312 312 l 2
122.700195312 432 m 1
 150.5 376 162.700195312 367 220.900390625 343 c 1
 190.900390625 318 l 2
 149.099609375 339 127.099609375 354 90.099609375 404 c 2
 122.700195312 432 l 1
EndSplineSet
EndChar

StartChar: six.hund
Encoding: 65551 -1 15
Width: 320
Flags: HW
AnchorPoint: "Extension_mkmk" 197 297 mark 0
LayerCount: 2
Fore
SplineSet
210.400390625 309 m 2
 193.799804688 281 181.599609375 280 167 272 c 1
 175.200195312 313 l 1
 216.400390625 339 l 1
 210.400390625 309 l 2
175.200195312 313 m 2
 72.2001953125 313 l 1
 108.400390625 339 l 1
 216.400390625 339 l 1
 204 327 192 317 175.200195312 313 c 2
246 432 m 1
 232.200195312 363 139.200195312 343 72.2001953125 313 c 1
 108.400390625 339 l 2
 124 347 183.200195312 348 192.400390625 394 c 2
 246 432 l 1
EndSplineSet
EndChar

StartChar: seven.hund
Encoding: 65552 -1 16
Width: 320
Flags: HW
AnchorPoint: "Extension_mkmk" 163.404 299 mark 0
LayerCount: 2
Fore
SplineSet
177.8046875 311 m 2
 161.204101562 283 148.004882812 282 133.404296875 274 c 1
 143.604492188 325 l 1
 184.8046875 346 l 1
 177.8046875 311 l 2
184.8046875 346 m 1
 184.8046875 346 l 1
 172.004882812 337 159.204101562 328 143.604492188 325 c 0
 5.2041015625 328 130.004882812 447 259.404296875 379 c 1
 231.604492188 355 l 1
 212.004882812 392 56.8046875 391 124.8046875 356 c 0
 133.8046875 351 163.8046875 346 184.8046875 346 c 1
EndSplineSet
EndChar

StartChar: eight.hund
Encoding: 65553 -1 17
Width: 320
Flags: HW
AnchorPoint: "Extension_mkmk" 135.823 292 mark 0
LayerCount: 2
Fore
SplineSet
148.623046875 301 m 2
 132.0234375 273 118.823242188 272 104.223632812 264 c 1
 115.623046875 321 l 1
 152.623046875 321 l 1
 148.623046875 301 l 2
115.623046875 321 m 1
 152.823242188 352 l 2
 166.423828125 350 191.223632812 344 205.623046875 361 c 0
 222.423828125 380 131.223632812 394 86.8232421875 372 c 1
 123.223632812 444 355.0234375 413 152.623046875 321 c 0
 133.823242188 312 126.223632812 319 115.623046875 321 c 2
 115.623046875 321 l 1
EndSplineSet
EndChar

StartChar: nine.hund
Encoding: 65554 -1 18
Width: 320
Flags: HW
AnchorPoint: "Extension_mkmk" 164.5 298 mark 0
LayerCount: 2
Fore
SplineSet
176.900390625 310 m 2
 160.299804688 282 147.099609375 281 132.5 273 c 1
 143.900390625 330 l 1
 185.700195312 354 l 1
 176.900390625 310 l 2
185.700195312 354 m 1
 81.7001953125 249 19.2998046875 337 153.5 428 c 1
 139.700195312 409 130.299804688 397 119.5 378 c 0
 99.2998046875 342 118.5 313 185.700195312 354 c 1
EndSplineSet
EndChar

StartChar: b
Encoding: 98 98 19
Width: 320
Flags: HW
HStem: 0 21G<159 179> 240 40<94 239>
VStem: 159 40<40 135>
AnchorPoint: "Diacritic_right" 260 140 basechar 0
AnchorPoint: "Diacritic_left" 60 140 basechar 0
AnchorPoint: "Diacritic_up" 204 360 basechar 0
AnchorPoint: "Diacritic_down" 120 -60 basechar 0
AnchorPoint: "Extension_up" 283 260 basechar 0
AnchorPoint: "Extension_down" 155 20 basechar 0
LayerCount: 2
Fore
SplineSet
307 280 m 1
 259 240 l 1
 114 240 l 1
 161.200195312 146 l 1
 164.599609375 148 l 1
 173.200195312 156 l 2
 182.799804688 164 192.400390625 172 202 180 c 2
 208 185 l 1
 179 40 l 1
 131 0 l 1
 158 135 l 1
 128 110 l 1
 61.400390625 242 l 1
 107 280 l 1
 307 280 l 1
EndSplineSet
Substitution2: "Single Substitution lookup 19 subtable" b.ext.up
Substitution2: "Single Substitution lookup 18 subtable" b.ext.down
EndChar

StartChar: c
Encoding: 99 99 20
Width: 320
Flags: HW
AnchorPoint: "Diacritic_right" 200 140 basechar 0
AnchorPoint: "Diacritic_left" 0 140 basechar 0
AnchorPoint: "Extension_up" 104 260 basechar 0
AnchorPoint: "Extension_down" 216 20 basechar 0
AnchorPoint: "Diacritic_down" 120 -60 basechar 0
AnchorPoint: "Diacritic_up" 204 360 basechar 0
LayerCount: 2
Fore
SplineSet
128 280 m 1
 80 40 l 1
 240 40 l 1
 192 0 l 1
 32 0 l 1
 80 240 l 1
 128 280 l 1
EndSplineSet
Substitution2: "Single Substitution lookup 19 subtable" c.ext.up
Substitution2: "Single Substitution lookup 18 subtable" c.ext.down
EndChar

StartChar: d
Encoding: 100 100 21
Width: 320
Flags: HW
AnchorPoint: "Diacritic_left" 0 140 basechar 0
AnchorPoint: "Diacritic_right" 200 140 basechar 0
AnchorPoint: "Extension_down" 96 20 basechar 0
AnchorPoint: "Extension_up" 264 260 basechar 0
AnchorPoint: "Diacritic_down" 120 -60 basechar 0
AnchorPoint: "Diacritic_up" 204 360 basechar 0
LayerCount: 2
Fore
SplineSet
128 280 m 1
 288 280 l 1
 240 240 l 1
 120 240 l 1
 101 145 l 1
 149 185 l 1
 120 40 l 1
 72 0 l 1
 99 135 l 1
 51 95 l 1
 80 240 l 1
 128 280 l 1
EndSplineSet
Substitution2: "Single Substitution lookup 19 subtable" d.ext.up
Substitution2: "Single Substitution lookup 18 subtable" d.ext.down
EndChar

StartChar: f
Encoding: 102 102 22
Width: 320
Flags: HW
AnchorPoint: "Diacritic_right" 260 140 basechar 0
AnchorPoint: "Diacritic_left" 0 140 basechar 0
AnchorPoint: "Extension_down" 156 20 basechar 0
AnchorPoint: "Extension_up" 284 260 basechar 0
AnchorPoint: "Diacritic_up" 204 360 basechar 0
AnchorPoint: "Diacritic_down" 120 -60 basechar 0
LayerCount: 2
Fore
SplineSet
260 240 m 1
 100 240 l 1
 84 160 l 1
 204 160 l 1
 180 40 l 1
 132 0 l 1
 156 120 l 1
 36 120 l 1
 60 240 l 1
 108 280 l 1
 308 280 l 1
 260 240 l 1
EndSplineSet
Substitution2: "Single Substitution lookup 19 subtable" f.ext.up
Substitution2: "Single Substitution lookup 18 subtable" f.ext.down
EndChar

StartChar: g
Encoding: 103 103 23
Width: 320
VWidth: 268
Flags: HW
HStem: 0 84G<191 286> 240 40<63 271>
AnchorPoint: "Diacritic_left" 20 140 basechar 0
AnchorPoint: "Diacritic_right" 280 140 basechar 0
AnchorPoint: "Extension_up" 315 260 basechar 0
AnchorPoint: "Extension_down" 252 20 basechar 0
AnchorPoint: "Diacritic_up" 204 360 basechar 0
AnchorPoint: "Diacritic_down" 120 -60 basechar 0
LayerCount: 2
Fore
SplineSet
291 240 m 1
 83 240 l 1
 151.799804688 124 l 1
 187.799804688 154 l 1
 264 30 l 1
 228 0 l 1
 155.799804688 119 l 1
 120 90 l 1
 29 240 l 1
 76 280 l 1
 339 280 l 1
 291 240 l 1
EndSplineSet
Substitution2: "Single Substitution lookup 19 subtable" g.ext.up
Substitution2: "Single Substitution lookup 18 subtable" g.ext.down
EndChar

StartChar: h
Encoding: 104 104 24
Width: 320
VWidth: 268
Flags: HW
AnchorPoint: "Diacritic_right" 300 140 basechar 0
AnchorPoint: "Diacritic_left" 20 140 basechar 0
AnchorPoint: "Extension_up" 114 260 basechar 0
AnchorPoint: "Extension_down" 206 20 basechar 0
AnchorPoint: "Diacritic_up" 204 360 basechar 0
AnchorPoint: "Diacritic_down" 120 -60 basechar 0
LayerCount: 2
Fore
SplineSet
138 280 m 1
 110 140 l 1
 205 140 l 1
 259 185 l 1
 230 40 l 1
 182 0 l 1
 209 135 l 1
 167 100 l 1
 62 100 l 1
 90 240 l 1
 138 280 l 1
EndSplineSet
Substitution2: "Single Substitution lookup 19 subtable" h.ext.up
Substitution2: "Single Substitution lookup 18 subtable" h.ext.down
EndChar

StartChar: j
Encoding: 106 106 25
Width: 320
VWidth: 268
Flags: HW
AnchorPoint: "Diacritic_right" 220 140 basechar 0
AnchorPoint: "Diacritic_left" 20 140 basechar 0
AnchorPoint: "Extension_up" 284 260 basechar 0
AnchorPoint: "Extension_down" 216 20 basechar 0
AnchorPoint: "Diacritic_up" 204 360 basechar 0
AnchorPoint: "Diacritic_down" 120 -60 basechar 0
LayerCount: 2
Fore
SplineSet
148 280 m 1
 308 280 l 1
 260 240 l 1
 140 240 l 1
 106 70 l 1
 70 40 l 1
 240 40 l 1
 192 0 l 1
 12 0 l 1
 60 40 l 1
 100 240 l 1
 148 280 l 1
EndSplineSet
Substitution2: "Single Substitution lookup 19 subtable" j.ext.up
Substitution2: "Single Substitution lookup 18 subtable" j.ext.down
EndChar

StartChar: k
Encoding: 107 107 26
Width: 320
VWidth: 268
Flags: HW
AnchorPoint: "Diacritic_right" 220 140 basechar 0
AnchorPoint: "Diacritic_left" 20 140 basechar 0
AnchorPoint: "Extension_up" 315 260 basechar 0
AnchorPoint: "Extension_down" 200 20 basechar 0
AnchorPoint: "Diacritic_up" 204 360 basechar 0
AnchorPoint: "Diacritic_down" 120 -60 basechar 0
LayerCount: 2
Fore
SplineSet
76 280 m 1
 339 280 l 1
 291 240 l 1
 83 240 l 1
 212 30 l 1
 176 0 l 1
 171.399414062 7 l 1
 171.399414062 7 l 1
 29 240 l 1
 76 280 l 1
EndSplineSet
Substitution2: "Single Substitution lookup 19 subtable" k.ext.up
Substitution2: "Single Substitution lookup 18 subtable" k.ext.down
EndChar

StartChar: l
Encoding: 108 108 27
Width: 320
VWidth: 268
Flags: HW
AnchorPoint: "Diacritic_right" 260 140 basechar 0
AnchorPoint: "Diacritic_left" 20 140 basechar 0
AnchorPoint: "Extension_down" 216 20 basechar 0
AnchorPoint: "Extension_up" 124 260 basechar 0
AnchorPoint: "Diacritic_up" 204 360 basechar 0
AnchorPoint: "Diacritic_down" 120 -60 basechar 0
LayerCount: 2
Fore
SplineSet
148 280 m 1
 120 140 l 1
 209 140 l 1
 90 40 l 1
 240 40 l 1
 192 0 l 1
 32 0 l 1
 152 100 l 1
 72 100 l 1
 100 240 l 1
 148 280 l 1
EndSplineSet
Substitution2: "Single Substitution lookup 19 subtable" l.ext.up
Substitution2: "Single Substitution lookup 18 subtable" l.ext.down
EndChar

StartChar: m
Encoding: 109 109 28
Width: 320
VWidth: 268
Flags: HW
AnchorPoint: "Diacritic_right" 220 140 basechar 0
AnchorPoint: "Diacritic_left" 20 140 basechar 0
AnchorPoint: "Extension_down" 201 20 basechar 0
AnchorPoint: "Extension_up" 129 260 basechar 0
AnchorPoint: "Diacritic_up" 204 360 basechar 0
AnchorPoint: "Diacritic_down" 120 -60 basechar 0
LayerCount: 2
Fore
SplineSet
153 280 m 1
 125 140 l 1
 213 30 l 1
 177 0 l 1
 81 120 l 1
 105 240 l 1
 153 280 l 1
EndSplineSet
Substitution2: "Single Substitution lookup 19 subtable" m.ext.up
Substitution2: "Single Substitution lookup 18 subtable" m.ext.down
EndChar

StartChar: n
Encoding: 110 110 29
Width: 320
VWidth: 268
Flags: HW
AnchorPoint: "Diacritic_right" 240 140 basechar 0
AnchorPoint: "Diacritic_left" 20 140 basechar 0
AnchorPoint: "Extension_down" 201 20 basechar 0
AnchorPoint: "Extension_up" 129 260 basechar 0
AnchorPoint: "Diacritic_up" 204 360 basechar 0
AnchorPoint: "Diacritic_down" 120 -60 basechar 0
LayerCount: 2
Fore
SplineSet
153 280 m 2
 122.799804688 129 l 1
 151.799804688 154 l 1
 213 30 l 1
 177 0 l 1
 118.599609375 118 l 1
 73 80 l 1
 105 240 l 1
 153 280 l 2
EndSplineSet
Substitution2: "Single Substitution lookup 19 subtable" n.ext.up
Substitution2: "Single Substitution lookup 18 subtable" n.ext.down
EndChar

StartChar: p
Encoding: 112 112 30
Width: 320
VWidth: 268
Flags: HW
AnchorPoint: "Diacritic_right" 240 140 basechar 0
AnchorPoint: "Diacritic_left" 40 140 basechar 0
AnchorPoint: "Extension_down" 136 20 basechar 0
AnchorPoint: "Extension_up" 284 260 basechar 0
AnchorPoint: "Diacritic_down" 120 -60 basechar 0
AnchorPoint: "Diacritic_up" 204 360 basechar 0
LayerCount: 2
Fore
SplineSet
120 240 m 1
 184 160 l 1
 160 40 l 1
 112 0 l 1
 140 140 l 1
 60 240 l 1
 108 280 l 1
 308 280 l 1
 260 240 l 1
 120 240 l 1
EndSplineSet
Substitution2: "Single Substitution lookup 19 subtable" p.ext.up
Substitution2: "Single Substitution lookup 18 subtable" p.ext.down
EndChar

StartChar: r
Encoding: 114 114 31
Width: 320
VWidth: 268
Flags: HW
AnchorPoint: "Diacritic_left" 80 140 basechar 0
AnchorPoint: "Diacritic_right" 280 140 basechar 0
AnchorPoint: "Extension_down" 216 20 basechar 0
AnchorPoint: "Extension_up" 94 260 basechar 0
AnchorPoint: "Diacritic_down" 120 -60 basechar 0
AnchorPoint: "Diacritic_up" 204 360 basechar 0
LayerCount: 2
Fore
SplineSet
118 280 m 1
 222 150 l 1
 90 40 l 1
 240 40 l 1
 192 0 l 1
 32 0 l 1
 182 125 l 1
 82 250 l 1
 118 280 l 1
EndSplineSet
Substitution2: "Single Substitution lookup 19 subtable" r.ext.up
Substitution2: "Single Substitution lookup 18 subtable" r.ext.down
EndChar

StartChar: s
Encoding: 115 115 32
Width: 320
VWidth: 268
Flags: HW
AnchorPoint: "Diacritic_right" 300 140 basechar 0
AnchorPoint: "Diacritic_left" 20 140 basechar 0
AnchorPoint: "Extension_up" 274 260 basechar 0
AnchorPoint: "Extension_down" 166 20 basechar 0
AnchorPoint: "Diacritic_down" 120 -60 basechar 0
AnchorPoint: "Diacritic_up" 204 360 basechar 0
LayerCount: 2
Fore
SplineSet
298 280 m 2
 274 160 l 1
 226 120 l 1
 106 120 l 1
 178 30 l 1
 142 0 l 1
 46 120 l 1
 94 160 l 1
 234 160 l 1
 250 240 l 1
 298 280 l 2
EndSplineSet
Substitution2: "Single Substitution lookup 19 subtable" s.ext.up
Substitution2: "Single Substitution lookup 18 subtable" s.ext.down
EndChar

StartChar: t
Encoding: 116 116 33
Width: 320
VWidth: 268
Flags: HW
AnchorPoint: "Diacritic_left" 0 140 basechar 0
AnchorPoint: "Diacritic_right" 200 140 basechar 0
AnchorPoint: "Extension_up" 264 260 basechar 0
AnchorPoint: "Extension_down" 56 20 basechar 0
AnchorPoint: "Diacritic_down" 120 -60 basechar 0
AnchorPoint: "Diacritic_up" 204 360 basechar 0
LayerCount: 2
Fore
SplineSet
128 280 m 1
 288 280 l 1
 240 240 l 1
 120 240 l 1
 80 40 l 1
 32 0 l 1
 80 240 l 1
 128 280 l 1
EndSplineSet
Substitution2: "Single Substitution lookup 19 subtable" t.ext.up
Substitution2: "Single Substitution lookup 18 subtable" t.ext.down
EndChar

StartChar: v
Encoding: 118 118 34
Width: 320
VWidth: 268
Flags: HW
HStem: 0 84G<140 180> 140 40<111 140> 240 40<80 240>
VStem: 40 40<150 240> 140 40<40 140>
AnchorPoint: "Diacritic_right" 240 140 basechar 0
AnchorPoint: "Diacritic_left" 0 140 basechar 0
AnchorPoint: "Extension_up" 284 260 basechar 0
AnchorPoint: "Extension_down" 136 20 basechar 0
AnchorPoint: "Diacritic_down" 120 -60 basechar 0
AnchorPoint: "Diacritic_up" 204 360 basechar 0
LayerCount: 2
Fore
SplineSet
260 240 m 1
 100 240 l 1
 82 150 l 1
 119 180 l 1
 188 180 l 1
 160 40 l 1
 112 0 l 1
 140 140 l 1
 80 140 l 1
 32 100 l 1
 60 240 l 1
 108 280 l 1
 308 280 l 1
 260 240 l 1
EndSplineSet
Substitution2: "Single Substitution lookup 19 subtable" v.ext.up
Substitution2: "Single Substitution lookup 18 subtable" v.ext.down
EndChar

StartChar: x
Encoding: 120 120 35
Width: 320
VWidth: 268
Flags: HW
HStem: 0 21G<169.185 209> 240 40<69 271>
AnchorPoint: "Diacritic_left" 0 140 basechar 0
AnchorPoint: "Diacritic_right" 240 140 basechar 0
AnchorPoint: "Extension_up" 315 260 basechar 0
AnchorPoint: "Extension_down" 185 20 basechar 0
AnchorPoint: "Diacritic_down" 120 -60 basechar 0
AnchorPoint: "Diacritic_up" 204 360 basechar 0
LayerCount: 2
Fore
SplineSet
339 280 m 1
 291 240 l 1
 89 240 l 1
 150.599609375 163 l 1
 114.599609375 133 l 1
 197 30 l 1
 161 0 l 1
 75.599609375 108 l 1
 111.599609375 138 l 1
 29 240 l 1
 76 280 l 1
 339 280 l 1
EndSplineSet
Substitution2: "Single Substitution lookup 19 subtable" x.ext.up
Substitution2: "Single Substitution lookup 18 subtable" x.ext.down
EndChar

StartChar: z
Encoding: 122 122 36
Width: 320
VWidth: 268
Flags: HW
AnchorPoint: "Diacritic_right" 300 140 basechar 0
AnchorPoint: "Diacritic_left" 20 140 basechar 0
AnchorPoint: "Extension_up" 144 260 basechar 0
AnchorPoint: "Extension_down" 159 20 basechar 0
AnchorPoint: "Diacritic_down" 120 -60 basechar 0
AnchorPoint: "Diacritic_up" 204 360 basechar 0
LayerCount: 2
Fore
SplineSet
216.400390625 122 m 1
 96.400390625 122 l 1
 169.799804688 29 l 1
 133.799804688 -1 l 1
 52.400390625 102 l 1
 124.400390625 162 l 1
 204.400390625 162 l 1
 133.200195312 251 l 1
 169.200195312 281 l 1
 264.400390625 162 l 1
 216.400390625 122 l 1
EndSplineSet
Substitution2: "Single Substitution lookup 19 subtable" z.ext.up
Substitution2: "Single Substitution lookup 18 subtable" z.ext.down
EndChar

StartChar: zcaron
Encoding: 382 382 37
Width: 320
VWidth: -84
Flags: HW
AnchorPoint: "Diacritic_left" 20 140 basechar 0
AnchorPoint: "Diacritic_right" 300 140 basechar 0
AnchorPoint: "Extension_up" 132 260 basechar 0
AnchorPoint: "Extension_down" 216 20 basechar 0
AnchorPoint: "Diacritic_down" 120 -60 basechar 0
AnchorPoint: "Diacritic_up" 204 360 basechar 0
LayerCount: 2
Fore
SplineSet
156 280 m 1
 256.799804688 154 l 1
 216 120 l 1
 96 120 l 1
 80 40 l 1
 240 40 l 1
 192 0 l 1
 32 0 l 1
 49.7998046875 89 l 1
 134 160 l 1
 192 160 l 1
 120 250 l 1
 156 280 l 1
EndSplineSet
Substitution2: "Single Substitution lookup 19 subtable" zcaron.ext.up
Substitution2: "Single Substitution lookup 18 subtable" zcaron.ext.down
EndChar

StartChar: zdotaccent
Encoding: 380 380 38
Width: 320
VWidth: -84
Flags: HW
AnchorPoint: "Diacritic_left" 0 140 basechar 0
AnchorPoint: "Diacritic_right" 240 140 basechar 0
AnchorPoint: "Extension_up" 134 260 basechar 0
AnchorPoint: "Extension_down" 226 20 basechar 0
AnchorPoint: "Diacritic_down" 120 -60 basechar 0
AnchorPoint: "Diacritic_up" 204 360 basechar 0
LayerCount: 2
Fore
SplineSet
158 280 m 1
 116 70 l 1
 80 40 l 1
 250 40 l 1
 202 0 l 1
 22 0 l 1
 70 40 l 1
 110 240 l 1
 158 280 l 1
EndSplineSet
Substitution2: "Single Substitution lookup 19 subtable" zdotaccent.ext.up
Substitution2: "Single Substitution lookup 18 subtable" zdotaccent.ext.down
EndChar

StartChar: tcedilla
Encoding: 355 355 39
Width: 320
VWidth: -84
Flags: HW
AnchorPoint: "Diacritic_right" 220 140 basechar 0
AnchorPoint: "Diacritic_left" -20 140 basechar 0
AnchorPoint: "Extension_down" 168 20 basechar 0
AnchorPoint: "Extension_up" 284 260 basechar 0
AnchorPoint: "Diacritic_down" 120 -60 basechar 0
AnchorPoint: "Diacritic_up" 204 360 basechar 0
LayerCount: 2
Fore
SplineSet
308 280 m 1
 260 240 l 1
 100 240 l 1
 82.400390625 152 l 1
 180 30 l 1
 144 0 l 1
 38.400390625 132 l 1
 60 240 l 1
 108 280 l 1
 308 280 l 1
EndSplineSet
Substitution2: "Single Substitution lookup 19 subtable" tcedilla.ext.up
Substitution2: "Single Substitution lookup 18 subtable" tcedilla.ext.down
EndChar

StartChar: scaron
Encoding: 353 353 40
Width: 320
VWidth: -84
Flags: HW
AnchorPoint: "Diacritic_right" 300 140 basechar 0
AnchorPoint: "Diacritic_left" 20 140 basechar 0
AnchorPoint: "Extension_down" 196 20 basechar 0
AnchorPoint: "Extension_up" 244 260 basechar 0
AnchorPoint: "Diacritic_down" 120 -60 basechar 0
AnchorPoint: "Diacritic_up" 204 360 basechar 0
LayerCount: 2
Fore
SplineSet
268 280 m 1
 244 160 l 1
 196 120 l 1
 116 120 l 1
 100 40 l 1
 220 40 l 1
 172 0 l 1
 52 0 l 1
 76 120 l 1
 124 160 l 1
 204 160 l 1
 220 240 l 1
 268 280 l 1
EndSplineSet
Substitution2: "Single Substitution lookup 19 subtable" scaron.ext.up
Substitution2: "Single Substitution lookup 18 subtable" scaron.ext.down
EndChar

StartChar: rcaron
Encoding: 345 345 41
Width: 320
VWidth: -84
Flags: HW
AnchorPoint: "Diacritic_left" 40 140 basechar 0
AnchorPoint: "Diacritic_right" 240 140 basechar 0
AnchorPoint: "Extension_down" 212 20 basechar 0
AnchorPoint: "Extension_up" 98 260 basechar 0
AnchorPoint: "Diacritic_down" 120 -60 basechar 0
AnchorPoint: "Diacritic_up" 204 360 basechar 0
LayerCount: 2
Fore
SplineSet
122 280 m 1
 122 280 l 1
 198.799804688 184 l 1
 157 150 l 1
 136 40 l 1
 236 40 l 1
 188 0 l 1
 88 0 l 1
 112 120 l 1
 158.799804688 159 l 1
 86 250 l 1
 122 280 l 1
EndSplineSet
Substitution2: "Single Substitution lookup 19 subtable" rcaron.ext.up
Substitution2: "Single Substitution lookup 18 subtable" rcaron.ext.down
EndChar

StartChar: ncaron
Encoding: 328 328 42
Width: 320
VWidth: -84
Flags: HW
AnchorPoint: "Diacritic_right" 260 140 basechar 0
AnchorPoint: "Diacritic_left" 20 140 basechar 0
AnchorPoint: "Extension_down" 194 20 basechar 0
AnchorPoint: "Extension_up" 169 260 basechar 0
AnchorPoint: "Diacritic_down" 120 -60 basechar 0
AnchorPoint: "Diacritic_up" 204 360 basechar 0
LayerCount: 2
Fore
SplineSet
145 240 m 1
 193 280 l 1
 171.200195312 171 l 1
 124.400390625 132 l 1
 206 30 l 1
 170 0 l 1
 85.2001953125 106 l 1
 125 140 l 1
 145 240 l 1
EndSplineSet
Substitution2: "Single Substitution lookup 19 subtable" ncaron.ext.up
Substitution2: "Single Substitution lookup 18 subtable" ncaron.ext.down
EndChar

StartChar: lcedilla
Encoding: 316 316 43
Width: 320
VWidth: -84
Flags: HW
HStem: 0 84G<135 245> 120 40<115 146> 200 80G<75 115> 200 80G<75 115>
VStem: 75 40<160 240>
AnchorPoint: "Diacritic_left" 20 140 basechar 0
AnchorPoint: "Diacritic_right" 260 140 basechar 0
AnchorPoint: "Extension_down" 211 20 basechar 0
AnchorPoint: "Extension_up" 119 260 basechar 0
AnchorPoint: "Diacritic_down" 120 -60 basechar 0
AnchorPoint: "Diacritic_up" 204 360 basechar 0
LayerCount: 2
Fore
SplineSet
143 280 m 1xe8
 119 160 l 1
 199 160 l 1
 151 120 l 1
 223 30 l 1
 187 0 l 1
 110.799804688 94 l 1
 142 120 l 1
 71 120 l 1
 95 240 l 1
 143 280 l 1xe8
EndSplineSet
Substitution2: "Single Substitution lookup 19 subtable" lcedilla.ext.up
Substitution2: "Single Substitution lookup 18 subtable" lcedilla.ext.down
EndChar

StartChar: ccedilla
Encoding: 231 231 44
Width: 320
VWidth: -84
Flags: HW
AnchorPoint: "Diacritic_right" 280 140 basechar 0
AnchorPoint: "Diacritic_left" -20 140 basechar 0
AnchorPoint: "Extension_down" 114 20 basechar 0
AnchorPoint: "Extension_up" 311 260 basechar 0
AnchorPoint: "Diacritic_down" 120 -60 basechar 0
AnchorPoint: "Diacritic_up" 204 360 basechar 0
LayerCount: 2
Fore
SplineSet
135 280 m 2
 335 280 l 1
 287 240 l 1
 147 240 l 1
 211 160 l 1
 175 130 l 1
 46 130 l 1
 126 30 l 1
 90 0 l 1
 6 105 l 1
 83 170 l 1
 143 170 l 1
 87 240 l 1
 135 280 l 2
EndSplineSet
Substitution2: "Single Substitution lookup 19 subtable" ccedilla.ext.up
Substitution2: "Single Substitution lookup 18 subtable" ccedilla.ext.down
EndChar

StartChar: ccaron
Encoding: 269 269 45
Width: 320
VWidth: -84
Flags: HW
AnchorPoint: "Diacritic_right" 220 140 basechar 0
AnchorPoint: "Diacritic_left" 0 140 basechar 0
AnchorPoint: "Extension_down" 216 20 basechar 0
AnchorPoint: "Extension_up" 264 260 basechar 0
AnchorPoint: "Diacritic_down" 120 -60 basechar 0
AnchorPoint: "Diacritic_up" 204 360 basechar 0
LayerCount: 2
Fore
SplineSet
128 280 m 1
 288 280 l 1
 240 240 l 1
 120 240 l 1
 80 40 l 1
 240 40 l 1
 192 0 l 1
 32 0 l 1
 80 240 l 1
 128 280 l 1
EndSplineSet
Substitution2: "Single Substitution lookup 19 subtable" ccaron.ext.up
Substitution2: "Single Substitution lookup 18 subtable" ccaron.ext.down
EndChar

StartChar: Z
Encoding: 90 90 46
Width: 320
VWidth: -84
Flags: HW
AnchorPoint: "Diacritic_left" 60 140 basechar 0
AnchorPoint: "Diacritic_right" 260 140 basechar 0
AnchorPoint: "Extension_down" 221 20 basechar 0
AnchorPoint: "Extension_up" 99 260 basechar 0
AnchorPoint: "Diacritic_down" 120 -60 basechar 0
AnchorPoint: "Diacritic_up" 204 360 basechar 0
LayerCount: 2
Fore
SplineSet
333 280 m 1
 45 40 l 1
 245 40 l 1
 197 0 l 1
 -13 0 l 1
 275 240 l 1
 75 240 l 1
 123 280 l 1
 333 280 l 1
EndSplineSet
Ligature2: "FlipCores subtable" Z quotesingle
LCarets2: 1 -28
EndChar

StartChar: bar
Encoding: 124 124 47
Width: 320
VWidth: -84
Flags: HW
AnchorPoint: "Diacritic_right" 260 140 basechar 0
AnchorPoint: "Diacritic_left" 60 140 basechar 0
AnchorPoint: "Extension_up" 184 260 basechar 0
AnchorPoint: "Extension_down" 136 20 basechar 0
AnchorPoint: "Diacritic_down" 120 -60 basechar 0
AnchorPoint: "Diacritic_up" 204 360 basechar 0
LayerCount: 2
Fore
SplineSet
208 280 m 1
 160 40 l 1
 112 0 l 1
 160 240 l 1
 208 280 l 1
EndSplineSet
Ligature2: "FlipCores subtable" bar quotesingle
LCarets2: 1 -28
EndChar

StartChar: braceleft
Encoding: 123 123 48
Width: 320
VWidth: -84
Flags: HW
AnchorPoint: "Diacritic_left" 40 140 basechar 0
AnchorPoint: "Diacritic_right" 280 140 basechar 0
AnchorPoint: "Extension_up" 204 260 basechar 0
AnchorPoint: "Extension_down" 116 20 basechar 0
AnchorPoint: "Diacritic_down" 120 -60 basechar 0
AnchorPoint: "Diacritic_up" 204 360 basechar 0
LayerCount: 2
Fore
SplineSet
228 280 m 1
 207 175 l 1
 159 135 l 1
 140 40 l 1
 92 0 l 1
 113 105 l 1
 161 145 l 1
 180 240 l 1
 228 280 l 1
EndSplineSet
Ligature2: "FlipCores subtable" braceright quotesingle
LCarets2: 1 -28
EndChar

StartChar: braceright
Encoding: 125 125 49
Width: 320
VWidth: -84
Flags: HW
AnchorPoint: "Diacritic_right" 280 140 basechar 0
AnchorPoint: "Diacritic_left" 40 140 basechar 0
AnchorPoint: "Extension_up" 164 260 basechar 0
AnchorPoint: "Extension_down" 156 20 basechar 0
AnchorPoint: "Diacritic_down" 120 -60 basechar 0
AnchorPoint: "Diacritic_up" 204 360 basechar 0
LayerCount: 2
Fore
SplineSet
209 185 m 1
 180 40 l 1
 132 0 l 1
 159 135 l 1
 111 95 l 1
 140 240 l 1
 188 280 l 1
 161 145 l 1
 209 185 l 1
EndSplineSet
Ligature2: "FlipCores subtable" braceleft quotesingle
LCarets2: 1 -28
EndChar

StartChar: zero
Encoding: 48 48 51
Width: 320
Flags: HW
HStem: 22 84G<80 89> 232 80G<212 249>
VStem: 80 37<59 102> 212 37<232 275>
AnchorPoint: "Diacritic_down" 114.6 -60 basechar 0
AnchorPoint: "Diacritic_up" 198.601 360 basechar 0
AnchorPoint: "Diacritic_left" 98.6006 260 basechar 0
AnchorPoint: "Extension_down" 72.5996 40 basechar 0
AnchorPoint: "Extension_up" 263.601 300 basechar 0
LayerCount: 2
Fore
SplineSet
95.3994140625 59 m 0
 76.2001953125 43 73.7998046875 41 51 22 c 1
 59.7998046875 66 63.599609375 85 83.2001953125 108 c 0
 102.400390625 129 117.599609375 140 141.799804688 156 c 0
 168.599609375 175 192 192 210.799804688 221 c 0
 220.799804688 236 227.599609375 245 233.600585938 275 c 2
 278 312 l 1
 268.200195312 263 253.400390625 209 196 182 c 0
 166.799804688 166 149.200195312 158 130.400390625 134 c 0
 112 112 100.200195312 83 95.3994140625 59 c 0
EndSplineSet
Substitution2: "Single Substitution lookup 16 subtable" zero.thou
Substitution2: "Single Substitution lookup 15 subtable" zero.hund
Substitution2: "Single Substitution lookup 14 subtable" zero.ten
EndChar

StartChar: one
Encoding: 49 49 52
Width: 320
Flags: HW
HStem: 22 84G<80 117> 232 80G<210 247>
VStem: 210 37<70 275>
AnchorPoint: "Extension_up" 261.601 300 basechar 0
AnchorPoint: "Diacritic_down" 114.6 -60 basechar 0
AnchorPoint: "Diacritic_up" 198.601 360 basechar 0
AnchorPoint: "Diacritic_left" 98.6006 260 basechar 0
AnchorPoint: "Extension_down" 72.5996 40 basechar 0
LayerCount: 2
Fore
SplineSet
231.600585938 275 m 1
 276 312 l 1
 227.599609375 70 l 1
 183.200195312 33 l 1
 231.600585938 275 l 1
51 22 m 1
 58.599609375 60 128.599609375 135 227.599609375 70 c 1
 183.200195312 33 l 1
 171.799804688 61 107 117 95.3994140625 59 c 2
 51 22 l 1
EndSplineSet
Substitution2: "Single Substitution lookup 16 subtable" one.thou
Substitution2: "Single Substitution lookup 15 subtable" one.hund
Substitution2: "Single Substitution lookup 14 subtable" one.ten
EndChar

StartChar: two
Encoding: 50 50 53
Width: 320
Flags: HW
AnchorPoint: "Extension_up" 245.601 300 basechar 0
AnchorPoint: "Diacritic_down" 114.6 -60 basechar 0
AnchorPoint: "Diacritic_up" 198.601 360 basechar 0
AnchorPoint: "Diacritic_left" 98.6006 260 basechar 0
AnchorPoint: "Extension_down" 72.5996 40 basechar 0
LayerCount: 2
Fore
SplineSet
51 22 m 1
 51 22 l 1
 63 77 131.799804688 126 196.599609375 80 c 1
 188 37 l 1
 188 37 141.799804688 86 118.200195312 83 c 0
 99.599609375 80 96.7998046875 66 95.3994140625 59 c 2
 51 22 l 1
260 312 m 1
 249 257 226.599609375 240 202 217 c 0
 177.400390625 194 166.400390625 184 165.599609375 165 c 0
 163.400390625 124 232.399414062 74 232.399414062 74 c 1
 188 37 l 1
 130.400390625 109 102.799804688 116 126.799804688 156 c 0
 148.599609375 190 198.200195312 188 215.600585938 275 c 1
 260 312 l 1
EndSplineSet
Substitution2: "Single Substitution lookup 16 subtable" two.thou
Substitution2: "Single Substitution lookup 15 subtable" two.hund
Substitution2: "Single Substitution lookup 14 subtable" two.ten
EndChar

StartChar: three
Encoding: 51 51 54
Width: 320
Flags: HW
HStem: 22 84G<80 117> 113 80G<97 170> 232 80G<203 240>
VStem: 80 37<59 73> 203 37<251 275>
AnchorPoint: "Extension_up" 254.601 300 basechar 0
AnchorPoint: "Diacritic_down" 114.6 -60 basechar 0
AnchorPoint: "Diacritic_up" 198.601 360 basechar 0
AnchorPoint: "Diacritic_left" 98.6006 260 basechar 0
AnchorPoint: "Extension_down" 72.5996 40 basechar 0
LayerCount: 2
Fore
SplineSet
95.3994140625 59 m 2
 51 22 l 1
 63.599609375 85 106.400390625 129 187.799804688 86 c 0
 180.200195312 48 177.200195312 38 177.200195312 38 c 1
 132.400390625 89 108 122 95.3994140625 59 c 2
94.7998046875 156 m 1
 115.200195312 173 118.799804688 176 139.200195312 193 c 0
 208.200195312 193 215.400390625 229 224.600585938 275 c 2
 269 312 l 1
 255 242 223.599609375 225 202 207 c 0
 169.599609375 180 134.799804688 156 94.7998046875 156 c 1
94.7998046875 156 m 1
 139.200195312 193 l 1
 206.599609375 170 231.200195312 123 221.599609375 75 c 2
 177.200195312 38 l 1
 169.799804688 81 197.799804688 131 94.7998046875 156 c 1
EndSplineSet
Substitution2: "Single Substitution lookup 16 subtable" three.thou
Substitution2: "Single Substitution lookup 15 subtable" three.hund
Substitution2: "Single Substitution lookup 14 subtable" three.ten
EndChar

StartChar: four
Encoding: 52 52 55
Width: 320
Flags: HW
AnchorPoint: "Extension_up" 238.601 300 basechar 0
AnchorPoint: "Diacritic_down" 114.6 -60 basechar 0
AnchorPoint: "Diacritic_up" 198.601 360 basechar 0
AnchorPoint: "Diacritic_left" 98.6006 260 basechar 0
AnchorPoint: "Extension_down" 72.5996 40 basechar 0
LayerCount: 2
Fore
SplineSet
123 197 m 1
 191 197 198 222 208.600585938 275 c 2
 252 312 l 1
 228.400390625 194 114.799804688 161 78.7998046875 161 c 1
 78.7998046875 161 120.599609375 185 123 197 c 1
78.599609375 160 m 1
 123 197 l 1
 95.3994140625 59 l 1
 51 22 l 1
 78.599609375 160 l 1
EndSplineSet
Substitution2: "Single Substitution lookup 16 subtable" four.thou
Substitution2: "Single Substitution lookup 15 subtable" four.hund
Substitution2: "Single Substitution lookup 14 subtable" four.ten
EndChar

StartChar: five
Encoding: 53 53 56
Width: 320
Flags: HW
AnchorPoint: "Extension_up" 228.601 300 basechar 0
AnchorPoint: "Diacritic_down" 114.6 -60 basechar 0
AnchorPoint: "Diacritic_up" 198.601 360 basechar 0
AnchorPoint: "Diacritic_left" 98.6006 260 basechar 0
AnchorPoint: "Extension_down" 72.5996 40 basechar 0
LayerCount: 2
Fore
SplineSet
75 142 m 1
 119.400390625 179 l 1
 95.3994140625 59 l 1
 51 22 l 1
 75 142 l 1
198.600585938 275 m 1
 243 312 l 1
 195 72 l 1
 150.599609375 35 l 1
 198.600585938 275 l 1
119.400390625 179 m 1
 122.799804688 131 106.799804688 116 195 72 c 1
 150.599609375 35 l 2
 114.200195312 68 82.2001953125 103 75 142 c 2
 119.400390625 179 l 1
EndSplineSet
Substitution2: "Single Substitution lookup 16 subtable" five.thou
Substitution2: "Single Substitution lookup 15 subtable" five.hund
Substitution2: "Single Substitution lookup 14 subtable" five.ten
EndChar

StartChar: six
Encoding: 54 54 57
Width: 320
Flags: HW
HStem: 22 84G<80 117> 115 80G<157 254> 174 84G<172 179> 232 80G<212 249>
VStem: 212 37<251 275>
AnchorPoint: "Extension_up" 263.601 300 basechar 0
AnchorPoint: "Diacritic_down" 114.6 -60 basechar 0
AnchorPoint: "Diacritic_up" 198.601 360 basechar 0
AnchorPoint: "Diacritic_left" 78.6006 260 basechar 0
AnchorPoint: "Extension_down" 72.5996 40 basechar 0
LayerCount: 2
Fore
SplineSet
51 22 m 1x88
 68.7998046875 111 l 1
 113.200195312 148 l 1
 95.3994140625 59 l 1
 51 22 l 1x88
233.600585938 275 m 2
 278 312 l 1x98
 260 222 207.200195312 203 158.400390625 174 c 1xa8
 195.400390625 204 220.200195312 208 233.600585938 275 c 2
68.7998046875 111 m 2
 113.200195312 148 l 1
 130.200195312 98 140 57 155.799804688 46 c 0
 203.200195312 13 238.400390625 114 158.400390625 174 c 1
 186.599609375 195 l 1xc8
 316.400390625 119 208.799804688 11 136 37 c 0
 99.599609375 50 90.3994140625 74 68.7998046875 111 c 2
EndSplineSet
Substitution2: "Single Substitution lookup 16 subtable" six.thou
Substitution2: "Single Substitution lookup 15 subtable" six.hund
Substitution2: "Single Substitution lookup 14 subtable" six.ten
EndChar

StartChar: seven
Encoding: 55 55 58
Width: 320
Flags: HW
AnchorPoint: "Extension_up" 249.601 300 basechar 0
AnchorPoint: "Diacritic_down" 114.6 -60 basechar 0
AnchorPoint: "Diacritic_up" 198.601 360 basechar 0
AnchorPoint: "Diacritic_left" 98.6006 260 basechar 0
AnchorPoint: "Extension_down" 72.5996 40 basechar 0
LayerCount: 2
Fore
SplineSet
51 22 m 1
 78 157 149.200195312 283 225 117 c 1
 180.599609375 80 l 1
 120.599609375 200 130.200195312 233 95.3994140625 59 c 1
 51 22 l 1
219.600585938 275 m 1
 264 312 l 1
 225 117 l 1
 180.599609375 80 l 1
 219.600585938 275 l 1
EndSplineSet
Substitution2: "Single Substitution lookup 16 subtable" seven.thou
Substitution2: "Single Substitution lookup 15 subtable" seven.hund
Substitution2: "Single Substitution lookup 14 subtable" seven.ten
EndChar

StartChar: eight
Encoding: 56 56 59
Width: 320
Flags: HW
AnchorPoint: "Extension_up" 283.601 300 basechar 0
AnchorPoint: "Diacritic_down" 114.6 -60 basechar 0
AnchorPoint: "Diacritic_up" 198.601 360 basechar 0
AnchorPoint: "Diacritic_left" 158.601 260 basechar 0
AnchorPoint: "Extension_down" 70.5996 40 basechar 0
LayerCount: 2
Fore
SplineSet
227.799804688 146 m 1
 67.7998046875 146 l 1
 112 182 l 1
 271 182 l 1
 227.799804688 146 l 1
297 312 m 1
 276.200195312 208 189.599609375 190 90.599609375 165 c 1
 90.599609375 165 100 172 112 182 c 0
 185.799804688 201 237 197 252.600585938 275 c 2
 297 312 l 1
49 22 m 1
 69.7998046875 126 148 137 247 162 c 1
 247 162 238.400390625 154 226.400390625 144 c 0
 152.599609375 125 109 137 93.3994140625 59 c 2
 49 22 l 1
EndSplineSet
Substitution2: "Single Substitution lookup 16 subtable" eight.thou
Substitution2: "Single Substitution lookup 15 subtable" eight.hund
Substitution2: "Single Substitution lookup 14 subtable" eight.ten
EndChar

StartChar: nine
Encoding: 57 57 60
Width: 320
Flags: HW
HStem: 22 84G<80 117> 232 80G<215 251>
VStem: 80 37<59 96> 215 37<195 275>
AnchorPoint: "Extension_up" 265.601 300 basechar 0
AnchorPoint: "Diacritic_down" 114.6 -60 basechar 0
AnchorPoint: "Diacritic_up" 198.601 360 basechar 0
AnchorPoint: "Diacritic_left" 118.601 260 basechar 0
AnchorPoint: "Extension_down" 72.5996 40 basechar 0
LayerCount: 2
Fore
SplineSet
236.600585938 275 m 1
 280 312 l 1
 234 82 237.399414062 54 169.799804688 31 c 0
 111.799804688 11 66.599609375 105 191 157 c 1
 148 102 117.399414062 39 164.399414062 39 c 0
 188.399414062 39 208.200195312 133 236.600585938 275 c 1
 236.600585938 275 l 1
159.799804688 131 m 0
 119.799804688 131 110.799804688 136 95.3994140625 59 c 2
 51 22 l 1
 69 112 110 157 191 157 c 1
 175.400390625 144 177.799804688 146 159.799804688 131 c 0
EndSplineSet
Substitution2: "Single Substitution lookup 16 subtable" nine.thou
Substitution2: "Single Substitution lookup 15 subtable" nine.hund
Substitution2: "Single Substitution lookup 14 subtable" nine.ten
EndChar

StartChar: b.flip
Encoding: 65555 -1 61
Width: 320
Flags: HW
HStem: 0 40<81 226> 260 20G<141 161> 260 20G<141 161>
VStem: 121 40<145 240>
AnchorPoint: "Diacritic_right" 280 140 basechar 0
AnchorPoint: "Diacritic_left" 60 140 basechar 0
AnchorPoint: "Extension_up" 165 260 basechar 0
AnchorPoint: "Extension_down" 37 20 basechar 0
AnchorPoint: "Diacritic_down" 120 -60 basechar 0
AnchorPoint: "Diacritic_up" 204 360 basechar 0
LayerCount: 2
Fore
SplineSet
13 0 m 1xd0
 61 40 l 1
 206 40 l 1
 158.799804688 134 l 1
 155.400390625 132 l 1
 146.799804688 124 l 2
 137.200195312 116 127.599609375 108 118 100 c 2
 112 95 l 1
 141 240 l 1
 189 280 l 1
 162 145 l 1
 192 170 l 1
 258.599609375 38 l 1
 213 0 l 1
 13 0 l 1xd0
EndSplineSet
Ligature2: "FlipCores subtable" b quotesingle
LCarets2: 1 -28
EndChar

StartChar: c.flip
Encoding: 65556 -1 62
Width: 320
Flags: HW
HStem: 0 21G<220 240> 240 40<100 220>
VStem: 220 40<40 240>
AnchorPoint: "Diacritic_right" 320 140 basechar 0
AnchorPoint: "Diacritic_left" 100 140 basechar 0
AnchorPoint: "Extension_up" 104 260 basechar 0
AnchorPoint: "Extension_down" 216 20 basechar 0
AnchorPoint: "Diacritic_down" 120 -60 basechar 0
AnchorPoint: "Diacritic_up" 204 360 basechar 0
LayerCount: 2
Fore
SplineSet
192 0 m 1
 240 240 l 1
 80 240 l 1
 128 280 l 1
 288 280 l 1
 240 40 l 1
 192 0 l 1
EndSplineSet
Ligature2: "FlipCores subtable" c quotesingle
LCarets2: 1 -28
EndChar

StartChar: d.flip
Encoding: 65557 -1 63
Width: 320
Flags: HW
HStem: 0 40<100 220> 260 20G<200 220> 260 20G<200 220>
VStem: 180 40<145 240> 220 40<40 135>
AnchorPoint: "Diacritic_right" 320 140 basechar 0
AnchorPoint: "Diacritic_left" 100 140 basechar 0
AnchorPoint: "Extension_up" 224 260 basechar 0
AnchorPoint: "Extension_down" 56 20 basechar 0
AnchorPoint: "Diacritic_down" 120 -60 basechar 0
AnchorPoint: "Diacritic_up" 204 360 basechar 0
LayerCount: 2
Fore
SplineSet
192 0 m 1xc8
 32 0 l 1
 80 40 l 1
 200 40 l 1
 219 135 l 1xc8
 171 95 l 1
 200 240 l 1xd0
 248 280 l 1xc8
 221 145 l 1xd0
 269 185 l 1
 240 40 l 1
 192 0 l 1xc8
EndSplineSet
Ligature2: "FlipCores subtable" d quotesingle
LCarets2: 1 -28
EndChar

StartChar: f.flip
Encoding: 65558 -1 64
Width: 320
Flags: HW
HStem: 0 40<80 240> 120 40<160 240> 260 20G<140 160> 260 20G<140 160>
VStem: 120 40<160 240> 240 40<40 120>
AnchorPoint: "Diacritic_right" 320 140 basechar 0
AnchorPoint: "Diacritic_left" 60 140 basechar 0
AnchorPoint: "Extension_up" 164 260 basechar 0
AnchorPoint: "Extension_down" 36 20 basechar 0
AnchorPoint: "Diacritic_down" 120 -60 basechar 0
AnchorPoint: "Diacritic_up" 204 360 basechar 0
LayerCount: 2
Fore
SplineSet
60 40 m 1xec
 220 40 l 1
 236 120 l 1
 116 120 l 1
 140 240 l 1
 188 280 l 1
 164 160 l 1
 284 160 l 1
 260 40 l 1
 212 0 l 1
 12 0 l 1
 60 40 l 1xec
EndSplineSet
Ligature2: "FlipCores subtable" f quotesingle
LCarets2: 1 -28
EndChar

StartChar: g.flip
Encoding: 65559 -1 65
Width: 320
VWidth: 268
Flags: HW
HStem: 0 40<49 257> 260 20G<44 80.1345> 260 20G<44 80.1345>
AnchorPoint: "Diacritic_right" 300 140 basechar 0
AnchorPoint: "Diacritic_left" 40 140 basechar 0
AnchorPoint: "Extension_up" 68 260 basechar 0
AnchorPoint: "Extension_down" 5 20 basechar 0
AnchorPoint: "Diacritic_down" 120 -60 basechar 0
AnchorPoint: "Diacritic_up" 204 360 basechar 0
LayerCount: 2
Fore
SplineSet
29 40 m 1xc0
 237 40 l 1
 168.200195312 156 l 1
 132.200195312 126 l 1
 56 250 l 1
 92 280 l 1
 164.200195312 161 l 1
 200 190 l 1
 291 40 l 1
 244 0 l 1
 -19 0 l 1
 29 40 l 1xc0
EndSplineSet
Ligature2: "FlipCores subtable" g quotesingle
LCarets2: 1 -28
EndChar

StartChar: h.flip
Encoding: 65560 -1 66
Width: 320
VWidth: 268
Flags: HW
HStem: 0 21G<210 230> 140 40<145 210> 260 20G<90 110> 260 20G<90 110>
VStem: 70 40<145 240> 210 40<40 140>
AnchorPoint: "Diacritic_right" 300 140 basechar 0
AnchorPoint: "Diacritic_left" 20 140 basechar 0
AnchorPoint: "Extension_up" 114 260 basechar 0
AnchorPoint: "Extension_down" 206 20 basechar 0
AnchorPoint: "Diacritic_down" 120 -60 basechar 0
AnchorPoint: "Diacritic_up" 204 360 basechar 0
LayerCount: 2
Fore
SplineSet
182 0 m 1xec
 210 140 l 1
 115 140 l 1
 61 95 l 1
 90 240 l 1
 138 280 l 1
 111 145 l 1
 153 180 l 1
 258 180 l 1
 230 40 l 1
 182 0 l 1xec
EndSplineSet
Ligature2: "FlipCores subtable" h quotesingle
LCarets2: 1 -28
EndChar

StartChar: j.flip
Encoding: 65561 -1 67
Width: 320
VWidth: 268
Flags: HW
HStem: 0 40<80 200> 240 40<100 230>
VStem: 200 40<40 210>
AnchorPoint: "Diacritic_right" 320 140 basechar 0
AnchorPoint: "Diacritic_left" 120 140 basechar 0
AnchorPoint: "Extension_up" 104 260 basechar 0
AnchorPoint: "Extension_down" 36 20 basechar 0
AnchorPoint: "Diacritic_down" 120 -60 basechar 0
AnchorPoint: "Diacritic_up" 204 360 basechar 0
LayerCount: 2
Fore
SplineSet
172 0 m 1
 12 0 l 1
 60 40 l 1
 180 40 l 1
 214 210 l 1
 250 240 l 1
 80 240 l 1
 128 280 l 1
 308 280 l 1
 260 240 l 1
 220 40 l 1
 172 0 l 1
EndSplineSet
Ligature2: "FlipCores subtable" j quotesingle
LCarets2: 1 -28
EndChar

StartChar: k.flip
Encoding: 65562 -1 68
Width: 320
VWidth: 268
Flags: HW
HStem: 0 40<49 257> 260 20G<96 122> 260 20G<96 122>
AnchorPoint: "Diacritic_right" 320 140 basechar 0
AnchorPoint: "Diacritic_left" 80 140 basechar 0
AnchorPoint: "Extension_up" 120 260 basechar 0
AnchorPoint: "Extension_down" 5 20 basechar 0
AnchorPoint: "Diacritic_down" 120 -60 basechar 0
AnchorPoint: "Diacritic_up" 204 360 basechar 0
LayerCount: 2
Fore
SplineSet
244 0 m 1xc0
 -19 0 l 1
 29 40 l 1
 237 40 l 1
 108 250 l 1
 144 280 l 1
 148.600585938 273 l 1
 291 40 l 1
 244 0 l 1xc0
EndSplineSet
Ligature2: "FlipCores subtable" k quotesingle
LCarets2: 1 -28
EndChar

StartChar: l.flip
Encoding: 65563 -1 69
Width: 320
VWidth: 268
Flags: HW
HStem: 0 21G<200 220> 140 40<160 200> 240 40<100 210>
VStem: 200 40<40 140>
AnchorPoint: "Diacritic_right" 300 140 basechar 0
AnchorPoint: "Diacritic_left" 20 140 basechar 0
AnchorPoint: "Extension_up" 104 260 basechar 0
AnchorPoint: "Extension_down" 196 20 basechar 0
AnchorPoint: "Diacritic_down" 120 -60 basechar 0
AnchorPoint: "Diacritic_up" 204 360 basechar 0
LayerCount: 2
Fore
SplineSet
172 0 m 1
 200 140 l 1
 111 140 l 1
 230 240 l 1
 80 240 l 1
 128 280 l 1
 288 280 l 1
 168 180 l 1
 248 180 l 1
 220 40 l 1
 172 0 l 1
EndSplineSet
Ligature2: "FlipCores subtable" l quotesingle
LCarets2: 1 -28
EndChar

StartChar: m.flip
Encoding: 65564 -1 70
Width: 320
VWidth: 268
Flags: HW
HStem: 0 21G<195 215> 260 20G<95 135> 260 20G<95 135>
VStem: 195 40<40 140>
AnchorPoint: "Diacritic_right" 300 140 basechar 0
AnchorPoint: "Diacritic_left" 60 140 basechar 0
AnchorPoint: "Extension_up" 119 260 basechar 0
AnchorPoint: "Extension_down" 191 20 basechar 0
AnchorPoint: "Diacritic_down" 120 -60 basechar 0
AnchorPoint: "Diacritic_up" 204 360 basechar 0
LayerCount: 2
Fore
SplineSet
167 0 m 1xd0
 195 140 l 1
 107 250 l 1
 143 280 l 1
 239 160 l 1
 215 40 l 1
 167 0 l 1xd0
EndSplineSet
Ligature2: "FlipCores subtable" m quotesingle
LCarets2: 1 -28
EndChar

StartChar: n.flip
Encoding: 65565 -1 71
Width: 320
VWidth: 268
Flags: HW
HStem: 0 21G<195 215> 260 20G<95 128.898> 260 20G<95 128.898>
VStem: 195 40<40 151>
AnchorPoint: "Diacritic_right" 300 140 basechar 0
AnchorPoint: "Diacritic_left" 60 140 basechar 0
AnchorPoint: "Extension_up" 119 260 basechar 0
AnchorPoint: "Extension_down" 191 20 basechar 0
AnchorPoint: "Diacritic_down" 120 -60 basechar 0
AnchorPoint: "Diacritic_up" 204 360 basechar 0
LayerCount: 2
Fore
SplineSet
167 0 m 2xd0
 197.200195312 151 l 1
 168.200195312 126 l 1
 107 250 l 1
 143 280 l 1
 201.400390625 162 l 1
 247 200 l 1
 215 40 l 1
 167 0 l 2xd0
EndSplineSet
Ligature2: "FlipCores subtable" n quotesingle
LCarets2: 1 -28
EndChar

StartChar: p.flip
Encoding: 65566 -1 72
Width: 320
VWidth: 268
Flags: HW
HStem: 0 40<80 220> 260 20G<160 180> 260 20G<160 180>
VStem: 140 40<140 240>
AnchorPoint: "Diacritic_right" 300 140 basechar 0
AnchorPoint: "Diacritic_left" 60 140 basechar 0
AnchorPoint: "Extension_up" 184 260 basechar 0
AnchorPoint: "Extension_down" 36 20 basechar 0
AnchorPoint: "Diacritic_down" 120 -60 basechar 0
AnchorPoint: "Diacritic_up" 204 360 basechar 0
LayerCount: 2
Fore
SplineSet
200 40 m 1xd0
 136 120 l 1
 160 240 l 1
 208 280 l 1
 180 140 l 1
 260 40 l 1
 212 0 l 1
 12 0 l 1
 60 40 l 1
 200 40 l 1xd0
EndSplineSet
Ligature2: "FlipCores subtable" p quotesingle
LCarets2: 1 -28
EndChar

StartChar: r.flip
Encoding: 65567 -1 73
Width: 320
VWidth: 268
Flags: HW
HStem: 0 21G<210 250> 240 40<100 210>
AnchorPoint: "Diacritic_right" 260 140 basechar 0
AnchorPoint: "Diacritic_left" 20 140 basechar 0
AnchorPoint: "Extension_up" 104 260 basechar 0
AnchorPoint: "Extension_down" 226 20 basechar 0
AnchorPoint: "Diacritic_down" 120 -60 basechar 0
AnchorPoint: "Diacritic_up" 204 360 basechar 0
LayerCount: 2
Fore
SplineSet
202 0 m 1
 98 130 l 1
 230 240 l 1
 80 240 l 1
 128 280 l 1
 288 280 l 1
 138 155 l 1
 238 30 l 1
 202 0 l 1
EndSplineSet
Ligature2: "FlipCores subtable" r quotesingle
LCarets2: 1 -28
EndChar

StartChar: s.flip
Encoding: 65568 -1 74
Width: 320
VWidth: 268
Flags: HW
HStem: 0 21G<50 70> 120 40<90 210> 260 20G<130 170> 260 20G<130 170>
VStem: 50 40<40 120>
AnchorPoint: "Diacritic_right" 300 140 basechar 0
AnchorPoint: "Diacritic_left" 20 140 basechar 0
AnchorPoint: "Extension_up" 154 260 basechar 0
AnchorPoint: "Extension_down" 46 20 basechar 0
AnchorPoint: "Diacritic_down" 120 -60 basechar 0
AnchorPoint: "Diacritic_up" 204 360 basechar 0
LayerCount: 2
Fore
SplineSet
22 0 m 2xe8
 46 120 l 1
 94 160 l 1
 214 160 l 1
 142 250 l 1
 178 280 l 1
 274 160 l 1
 226 120 l 1
 86 120 l 1
 70 40 l 1
 22 0 l 2xe8
EndSplineSet
Ligature2: "FlipCores subtable" s quotesingle
LCarets2: 1 -28
EndChar

StartChar: t.flip
Encoding: 65569 -1 75
Width: 320
VWidth: 268
Flags: HW
HStem: 0 40<100 220> 260 20G<240 260> 260 20G<240 260>
VStem: 220 40<40 240>
AnchorPoint: "Diacritic_right" 320 140 basechar 0
AnchorPoint: "Diacritic_left" 100 140 basechar 0
AnchorPoint: "Extension_up" 264 260 basechar 0
AnchorPoint: "Extension_down" 56 20 basechar 0
AnchorPoint: "Diacritic_down" 120 -60 basechar 0
AnchorPoint: "Diacritic_up" 204 360 basechar 0
LayerCount: 2
Fore
SplineSet
192 0 m 1xd0
 32 0 l 1
 80 40 l 1
 200 40 l 1
 240 240 l 1
 288 280 l 1
 240 40 l 1
 192 0 l 1xd0
EndSplineSet
Ligature2: "FlipCores subtable" t quotesingle
LCarets2: 1 -28
EndChar

StartChar: v.flip
Encoding: 65570 -1 76
Width: 320
VWidth: 268
Flags: HW
HStem: 0 40<80 240> 100 40<180 209> 260 20G<160 180> 260 20G<160 180>
VStem: 140 40<140 240> 240 40<40 130>
AnchorPoint: "Diacritic_right" 320 140 basechar 0
AnchorPoint: "Diacritic_left" 60 140 basechar 0
AnchorPoint: "Extension_up" 184 260 basechar 0
AnchorPoint: "Extension_down" 36 20 basechar 0
AnchorPoint: "Diacritic_down" 120 -60 basechar 0
AnchorPoint: "Diacritic_up" 204 360 basechar 0
LayerCount: 2
Fore
SplineSet
60 40 m 1xec
 220 40 l 1
 238 130 l 1
 201 100 l 1
 132 100 l 1
 160 240 l 1
 208 280 l 1
 180 140 l 1
 240 140 l 1
 288 180 l 1
 260 40 l 1
 212 0 l 1
 12 0 l 1
 60 40 l 1xec
EndSplineSet
Ligature2: "FlipCores subtable" v quotesingle
LCarets2: 1 -28
EndChar

StartChar: x.flip
Encoding: 65571 -1 77
Width: 320
VWidth: 268
Flags: HW
HStem: 0 40<49 251> 260 20G<111 150.815> 260 20G<111 150.815>
AnchorPoint: "Diacritic_right" 320 140 basechar 0
AnchorPoint: "Diacritic_left" 60 140 basechar 0
AnchorPoint: "Extension_up" 135 260 basechar 0
AnchorPoint: "Extension_down" 5 20 basechar 0
AnchorPoint: "Diacritic_down" 120 -60 basechar 0
AnchorPoint: "Diacritic_up" 204 360 basechar 0
LayerCount: 2
Fore
SplineSet
-19 0 m 1xc0
 29 40 l 1
 231 40 l 1
 169.400390625 117 l 1
 205.400390625 147 l 1
 123 250 l 1
 159 280 l 1
 244.400390625 172 l 1
 208.400390625 142 l 1
 291 40 l 1
 244 0 l 1
 -19 0 l 1xc0
EndSplineSet
Ligature2: "FlipCores subtable" x quotesingle
LCarets2: 1 -28
EndChar

StartChar: z.flip
Encoding: 65572 -1 78
Width: 320
VWidth: 268
Flags: HW
HStem: -1 21G<159 199> 118 40<120 200> 261 20G<138 177.806> 261 20G<138 177.806>
AnchorPoint: "Diacritic_right" 300 140 basechar 0
AnchorPoint: "Diacritic_left" 20 140 basechar 0
AnchorPoint: "Extension_up" 161 260 basechar 0
AnchorPoint: "Extension_down" 176 20 basechar 0
AnchorPoint: "Diacritic_down" 120 -60 basechar 0
AnchorPoint: "Diacritic_up" 204 360 basechar 0
LayerCount: 2
Fore
SplineSet
103.599609375 158 m 1xe0
 223.599609375 158 l 1
 150.200195312 251 l 1
 186.200195312 281 l 1
 267.599609375 178 l 1
 195.599609375 118 l 1
 115.599609375 118 l 1
 186.799804688 29 l 1
 150.799804688 -1 l 1
 55.599609375 118 l 1
 103.599609375 158 l 1xe0
EndSplineSet
Ligature2: "FlipCores subtable" z quotesingle
LCarets2: 1 -28
EndChar

StartChar: ccedilla.flip
Encoding: 65573 -1 79
Width: 320
VWidth: -84
Flags: HW
HStem: 0 40<53 193> 110 40<183 243> 260 20G<182 222> 260 20G<182 222>
AnchorPoint: "Diacritic_right" 340 140 basechar 0
AnchorPoint: "Diacritic_left" 40 140 basechar 0
AnchorPoint: "Extension_up" 206 260 basechar 0
AnchorPoint: "Extension_down" 9 20 basechar 0
AnchorPoint: "Diacritic_down" 120 -60 basechar 0
AnchorPoint: "Diacritic_up" 204 360 basechar 0
LayerCount: 2
Fore
SplineSet
185 0 m 2xe0
 -15 0 l 1
 33 40 l 1
 173 40 l 1
 109 120 l 1
 145 150 l 1
 274 150 l 1
 194 250 l 1
 230 280 l 1
 314 175 l 1
 237 110 l 1
 177 110 l 1
 233 40 l 1
 185 0 l 2xe0
EndSplineSet
Ligature2: "FlipCores subtable" ccedilla quotesingle
LCarets2: 1 -28
EndChar

StartChar: ccaron.flip
Encoding: 65574 -1 80
Width: 320
VWidth: -84
Flags: HW
HStem: 0 40<100 220> 240 40<100 220>
VStem: 220 40<40 240>
AnchorPoint: "Diacritic_right" 320 140 basechar 0
AnchorPoint: "Diacritic_left" 100 140 basechar 0
AnchorPoint: "Extension_up" 104 260 basechar 0
AnchorPoint: "Extension_down" 56 20 basechar 0
AnchorPoint: "Diacritic_down" 120 -60 basechar 0
AnchorPoint: "Diacritic_up" 204 360 basechar 0
LayerCount: 2
Fore
SplineSet
192 0 m 1
 32 0 l 1
 80 40 l 1
 200 40 l 1
 240 240 l 1
 80 240 l 1
 128 280 l 1
 288 280 l 1
 240 40 l 1
 192 0 l 1
EndSplineSet
Ligature2: "FlipCores subtable" ccaron quotesingle
LCarets2: 1 -28
EndChar

StartChar: lcedilla.flip
Encoding: 65575 -1 81
Width: 320
VWidth: -84
Flags: HW
HStem: 0 21G<205 225> 120 40<174 205> 260 20G<85 125.213> 260 20G<85 125.213>
VStem: 205 40<40 120>
AnchorPoint: "Diacritic_right" 320 140 basechar 0
AnchorPoint: "Diacritic_left" 40 140 basechar 0
AnchorPoint: "Extension_up" 109 260 basechar 0
AnchorPoint: "Extension_down" 201 20 basechar 0
AnchorPoint: "Diacritic_down" 120 -60 basechar 0
AnchorPoint: "Diacritic_up" 204 360 basechar 0
LayerCount: 2
Fore
SplineSet
177 0 m 1xe8
 201 120 l 1
 121 120 l 1
 169 160 l 1
 97 250 l 1
 133 280 l 1
 209.200195312 186 l 1
 178 160 l 1
 249 160 l 1
 225 40 l 1
 177 0 l 1xe8
EndSplineSet
Ligature2: "FlipCores subtable" lcedilla quotesingle
LCarets2: 1 -28
EndChar

StartChar: ncaron.flip
Encoding: 65576 -1 82
Width: 320
VWidth: -84
Flags: HW
HStem: 0 21G<155 175> 260 20G<102 142> 260 20G<102 142>
VStem: 155 40<40 109>
AnchorPoint: "Diacritic_right" 280 140 basechar 0
AnchorPoint: "Diacritic_left" 80 140 basechar 0
AnchorPoint: "Extension_up" 126 260 basechar 0
AnchorPoint: "Extension_down" 151 20 basechar 0
AnchorPoint: "Diacritic_down" 120 -60 basechar 0
AnchorPoint: "Diacritic_up" 204 360 basechar 0
LayerCount: 2
Fore
SplineSet
175 40 m 1xd0
 127 0 l 1
 148.799804688 109 l 1
 195.599609375 148 l 1
 114 250 l 1
 150 280 l 1
 234.799804688 174 l 1
 195 140 l 1
 175 40 l 1xd0
EndSplineSet
Ligature2: "FlipCores subtable" ncaron quotesingle
LCarets2: 1 -28
EndChar

StartChar: rcaron.flip
Encoding: 65577 -1 83
Width: 320
VWidth: -84
Flags: HW
HStem: 0 21G<206 246> 240 40<104 164>
VStem: 164 40<160 240>
AnchorPoint: "Diacritic_right" 280 140 basechar 0
AnchorPoint: "Diacritic_left" 60 140 basechar 0
AnchorPoint: "Extension_up" 108 260 basechar 0
AnchorPoint: "Extension_down" 222 20 basechar 0
AnchorPoint: "Diacritic_down" 120 -60 basechar 0
AnchorPoint: "Diacritic_up" 204 360 basechar 0
LayerCount: 2
Fore
SplineSet
198 0 m 1
 121.200195312 96 l 1
 162 130 l 1
 184 240 l 1
 84 240 l 1
 132 280 l 1
 232 280 l 1
 208 160 l 1
 161.200195312 121 l 1
 234 30 l 1
 198 0 l 1
EndSplineSet
Ligature2: "FlipCores subtable" rcaron quotesingle
LCarets2: 1 -28
EndChar

StartChar: scaron.flip
Encoding: 65578 -1 84
Width: 320
VWidth: -84
Flags: HW
HStem: 0 21G<80 100> 120 40<120 200> 240 40<120 200>
VStem: 80 40<40 120> 200 40<160 240>
AnchorPoint: "Diacritic_left" 0 140 basechar 0
AnchorPoint: "Diacritic_right" 300 140 basechar 0
AnchorPoint: "Extension_up" 124 260 basechar 0
AnchorPoint: "Extension_down" 76 20 basechar 0
AnchorPoint: "Diacritic_down" 120 -60 basechar 0
AnchorPoint: "Diacritic_up" 204 360 basechar 0
LayerCount: 2
Fore
SplineSet
52 0 m 1
 76 120 l 1
 124 160 l 1
 204 160 l 1
 220 240 l 1
 100 240 l 1
 148 280 l 1
 268 280 l 1
 244 160 l 1
 196 120 l 1
 116 120 l 1
 100 40 l 1
 52 0 l 1
EndSplineSet
Ligature2: "FlipCores subtable" scaron quotesingle
LCarets2: 1 -28
EndChar

StartChar: tcedilla.flip
Encoding: 65579 -1 85
Width: 320
VWidth: -84
Flags: HW
HStem: 0 40<80 240> 260 20G<128 168> 260 20G<128 168>
VStem: 240 40<40 128>
AnchorPoint: "Diacritic_right" 320 140 basechar 0
AnchorPoint: "Diacritic_left" 100 140 basechar 0
AnchorPoint: "Extension_up" 152 260 basechar 0
AnchorPoint: "Extension_down" 36 20 basechar 0
AnchorPoint: "Diacritic_down" 120 -60 basechar 0
AnchorPoint: "Diacritic_up" 204 360 basechar 0
LayerCount: 2
Fore
SplineSet
12 0 m 1xd0
 60 40 l 1
 220 40 l 1
 237.599609375 128 l 1
 140 250 l 1
 176 280 l 1
 281.599609375 148 l 1
 260 40 l 1
 212 0 l 1
 12 0 l 1xd0
EndSplineSet
Ligature2: "FlipCores subtable" tcedilla quotesingle
LCarets2: 1 -28
EndChar

StartChar: zdotaccent.flip
Encoding: 65580 -1 86
Width: 320
VWidth: -84
Flags: HW
HStem: 0 21G<190 210> 240 40<90 220>
VStem: 190 40<40 210>
AnchorPoint: "Diacritic_right" 300 140 basechar 0
AnchorPoint: "Diacritic_left" 80 140 basechar 0
AnchorPoint: "Extension_up" 94 260 basechar 0
AnchorPoint: "Extension_down" 186 20 basechar 0
AnchorPoint: "Diacritic_down" 120 -60 basechar 0
AnchorPoint: "Diacritic_up" 204 360 basechar 0
LayerCount: 2
Fore
SplineSet
162 0 m 1
 204 210 l 1
 240 240 l 1
 70 240 l 1
 118 280 l 1
 298 280 l 1
 250 240 l 1
 210 40 l 1
 162 0 l 1
EndSplineSet
Ligature2: "FlipCores subtable" zdotaccent quotesingle
LCarets2: 1 -28
EndChar

StartChar: zcaron.flip
Encoding: 65581 -1 87
Width: 320
VWidth: -84
Flags: HW
HStem: 0 21G<172 212> 120 40<132 190> 240 40<100 220>
VStem: 220 40<191 240>
AnchorPoint: "Diacritic_left" 20 140 basechar 0
AnchorPoint: "Diacritic_right" 300 140 basechar 0
AnchorPoint: "Extension_up" 104 260 basechar 0
AnchorPoint: "Extension_down" 188 20 basechar 0
AnchorPoint: "Diacritic_down" 120 -60 basechar 0
AnchorPoint: "Diacritic_up" 204 360 basechar 0
LayerCount: 2
Fore
SplineSet
164 0 m 1
 63.2001953125 126 l 1
 104 160 l 1
 224 160 l 1
 240 240 l 1
 80 240 l 1
 128 280 l 1
 288 280 l 1
 270.200195312 191 l 1
 186 120 l 1
 128 120 l 1
 200 30 l 1
 164 0 l 1
EndSplineSet
Ligature2: "FlipCores subtable" zcaron quotesingle
LCarets2: 1 -28
EndChar

StartChar: esh.flip
Encoding: 65582 -1 88
Width: 320
VWidth: -84
Flags: HW
HStem: 0 40<80 200> 240 40<100 230>
AnchorPoint: "Diacritic_right" 256 120 basechar 0
AnchorPoint: "Extension_down" 36 20 basechar 0
AnchorPoint: "Extension_up" 104 260 basechar 0
AnchorPoint: "Diacritic_left" 112 200 basechar 0
AnchorPoint: "Diacritic_down" 120 -60 basechar 0
AnchorPoint: "Diacritic_up" 204 360 basechar 0
LayerCount: 2
Fore
SplineSet
250 65 m 1
 172 0 l 1
 12 0 l 1
 60 40 l 1
 209 40 l 1
 129.799804688 139 l 1
 250 240 l 1
 80 240 l 1
 128 280 l 1
 308 280 l 1
 170 165 l 1
 250 65 l 1
EndSplineSet
Ligature2: "FlipCores subtable" esh quotesingle
LCarets2: 1 -28
EndChar

StartChar: ddotbelow.flip
Encoding: 65583 -1 89
Width: 320
VWidth: -84
Flags: HW
HStem: 0 40<80 240> 260 20G<139.645 173.068> 260 20G<139.645 173.068>
VStem: 240 40<40 151>
AnchorPoint: "Diacritic_left" 120 140 basechar 0
AnchorPoint: "Diacritic_right" 340 140 basechar 0
AnchorPoint: "Extension_up" 164 260 basechar 0
AnchorPoint: "Extension_down" 36 20 basechar 0
AnchorPoint: "Diacritic_down" 120 -60 basechar 0
AnchorPoint: "Diacritic_up" 204 360 basechar 0
LayerCount: 2
Fore
SplineSet
12 0 m 1xd0
 60 40 l 1
 220 40 l 1
 242.200195312 151 l 1
 212.200195312 126 l 1
 150.799804688 249 l 1
 187 280 l 1
 246.400390625 162 l 1
 292 200 l 1
 260 40 l 1
 212 0 l 1
 12 0 l 1xd0
EndSplineSet
Ligature2: "FlipCores subtable" ddotbelow quotesingle
LCarets2: 1 -28
EndChar

StartChar: a
Encoding: 97 97 90
Width: 320
Flags: HW
AnchorPoint: "Diacritic_mkmk" 170 160 mark 0
LayerCount: 2
Fore
SplineSet
140 160 m 1
 176 190 l 1
 200 160 l 1
 164 130 l 1
 140 160 l 1
EndSplineSet
EndChar

StartChar: e
Encoding: 101 101 91
Width: 320
Flags: HW
AnchorPoint: "Diacritic_mkmk" 170 160 mark 0
LayerCount: 2
Fore
SplineSet
196 140 m 1
 86 140 l 1
 134 180 l 1
 254 180 l 1
 158 100 l 1
 154 105 l 1
 196 140 l 1
EndSplineSet
EndChar

StartChar: i
Encoding: 105 105 92
Width: 320
Flags: HW
AnchorPoint: "Diacritic_mkmk" 160.2 160 mark 0
LayerCount: 2
Fore
SplineSet
113 184 m 5
 149 214 l 5
 213 134 l 5
 177 104 l 5
 113 184 l 5
EndSplineSet
EndChar

StartChar: o
Encoding: 111 111 93
Width: 320
Flags: HW
HStem: 180 30<127 148.597>
VStem: 97 103
AnchorPoint: "Diacritic_mkmk" 151.6 140 mark 0
LayerCount: 2
Fore
SplineSet
204.400390625 164 m 0
 203.599609375 150 197.799804688 136 185.599609375 120 c 0
 173.200195312 103 155.200195312 88 132.400390625 74 c 1
 128.400390625 79 l 1
 163 102 177.400390625 124 171.799804688 146 c 0
 166.200195312 168 144.400390625 179 104.599609375 180 c 1
 140.599609375 210 l 1
 161.599609375 210 178 207 189.200195312 198 c 0
 199.599609375 190 205.200195312 178 204.400390625 164 c 0
EndSplineSet
EndChar

StartChar: u
Encoding: 117 117 94
Width: 320
Flags: HW
AnchorPoint: "Diacritic_mkmk" 164 154 mark 0
LayerCount: 2
Fore
SplineSet
150 184 m 1
 198 224 l 1
 180 134 l 1
 222 169 l 1
 226 164 l 1
 130 84 l 1
 150 184 l 1
EndSplineSet
EndChar

StartChar: adieresis
Encoding: 228 228 95
Width: 320
Flags: HW
AnchorPoint: "Diacritic_mkmk" 168 160 mark 0
LayerCount: 2
Fore
SplineSet
204 140 m 1
 84 140 l 1
 132 180 l 1
 252 180 l 1
 204 140 l 1
EndSplineSet
EndChar

StartChar: edieresis
Encoding: 235 235 96
Width: 320
Flags: HW
AnchorPoint: "Diacritic_mkmk" 162 160 mark 0
LayerCount: 2
Fore
SplineSet
136 180 m 1
 246 180 l 1
 198 140 l 1
 78 140 l 1
 174 220 l 1
 178 215 l 1
 136 180 l 1
EndSplineSet
EndChar

StartChar: idieresis
Encoding: 239 239 97
Width: 320
Flags: HW
AnchorPoint: "Diacritic_mkmk" 164.4 160 mark 0
LayerCount: 2
Fore
SplineSet
198 228 m 5
 178 128 l 5
 130 88 l 5
 150 188 l 5
 198 228 l 5
EndSplineSet
EndChar

StartChar: odieresis
Encoding: 246 246 98
Width: 320
Flags: HW
AnchorPoint: "Diacritic_mkmk" 185.4 162 mark 0
LayerCount: 2
Fore
SplineSet
115.599609375 128 m 0
 116.400390625 142 122.200195312 156 134.400390625 172 c 0
 146.799804688 189 164.799804688 204 187.599609375 218 c 1
 191.599609375 213 l 1
 157 190 142.599609375 168 148.200195312 146 c 0
 153.799804688 124 175.599609375 113 215.400390625 112 c 1
 179.400390625 82 l 1
 158.400390625 82 142 85 130.799804688 94 c 0
 120.400390625 102 114.799804688 114 115.599609375 128 c 0
EndSplineSet
EndChar

StartChar: udieresis
Encoding: 252 252 99
Width: 320
Flags: HW
AnchorPoint: "Diacritic_mkmk" 168 162 mark 0
LayerCount: 2
Fore
SplineSet
182 132 m 1
 134 92 l 1
 152 182 l 1
 110 147 l 1
 106 152 l 1
 202 232 l 1
 182 132 l 1
EndSplineSet
EndChar

StartChar: ohungarumlaut
Encoding: 337 337 100
Width: 320
Flags: HW
AnchorPoint: "Diacritic_mkmk" 189.3 162 mark 0
LayerCount: 2
Fore
SplineSet
138.5 173 m 0
 150.900390625 190 168.900390625 205 191.700195312 219 c 1
 195.700195312 214 l 1
 161.099609375 191 146.5 168 152.099609375 146 c 0
 157.700195312 124 179.5 113 219.299804688 112 c 1
 135.299804688 42 l 1
 131.299804688 47 l 1
 174.299804688 82 l 1
 157.5 83 143.5 88 133.900390625 95 c 0
 123.5 103 118.900390625 115 119.700195312 129 c 0
 120.5 143 126.299804688 157 138.5 173 c 0
EndSplineSet
EndChar

StartChar: ograve
Encoding: 242 242 102
Width: 320
Flags: HW
AnchorPoint: "Diacritic_mkmk" 183.784 178 mark 0
LayerCount: 2
Fore
SplineSet
246.984375 184 m 1
 213.583984375 142 179.784179688 118 145.383789062 111 c 0
 111.984375 104 88.583984375 117 77.984375 149 c 1
 113.984375 179 l 1
 134.583984375 152 154.984375 139 176.184570312 140 c 0
 197.384765625 141 219.784179688 158 242.984375 189 c 1
 246.984375 184 l 1
EndSplineSet
EndChar

StartChar: oacute
Encoding: 243 243 103
Width: 320
Flags: HW
AnchorPoint: "Diacritic_mkmk" 178.016 169 mark 0
LayerCount: 2
Fore
SplineSet
73.015625 104 m 1
 106.416015625 146 140.215820312 170 174.616210938 177 c 0
 208.015625 184 231.416015625 171 242.015625 139 c 1
 206.015625 109 l 1
 185.416015625 136 165.015625 149 143.815429688 148 c 0
 122.615234375 147 100.215820312 130 77.015625 99 c 1
 73.015625 104 l 1
EndSplineSet
EndChar

StartChar: a_ograve
Encoding: 65584 -1 104
Width: 320
Flags: HW
AnchorPoint: "Diacritic_mkmk" 180.784 178 mark 0
LayerCount: 2
Fore
SplineSet
243.984375 184 m 1
 210.583984375 142 176.784179688 118 142.383789062 111 c 0
 108.984375 104 85.583984375 117 74.984375 149 c 1
 110.984375 179 l 1
 131.583984375 152 151.984375 139 173.184570312 140 c 0
 194.383789062 141 216.784179688 158 239.984375 189 c 1
 243.984375 184 l 1
206.984375 189 m 1
 170.984375 159 l 1
 146.984375 189 l 1
 182.984375 219 l 1
 206.984375 189 l 1
EndSplineSet
Ligature2: "VowelLigature subtable" ograve a
Ligature2: "VowelLigature subtable" a ograve
LCarets2: 1 -33
EndChar

StartChar: a_oacute
Encoding: 65585 -1 105
Width: 320
Flags: HW
AnchorPoint: "Diacritic_mkmk" 181.016 169 mark 0
LayerCount: 2
Fore
SplineSet
76.015625 104 m 1
 109.416015625 146 143.215820312 170 177.616210938 177 c 0
 211.015625 184 234.416015625 171 245.015625 139 c 1
 209.015625 109 l 1
 188.416015625 136 168.015625 149 146.815429688 148 c 0
 125.616210938 147 103.215820312 130 80.015625 99 c 1
 76.015625 104 l 1
113.015625 99 m 1
 149.015625 129 l 1
 173.015625 99 l 1
 137.015625 69 l 1
 113.015625 99 l 1
EndSplineSet
Ligature2: "VowelLigature subtable" oacute a
Ligature2: "VowelLigature subtable" a oacute
LCarets2: 1 -25
EndChar

StartChar: one.thou
Encoding: 65586 -1 106
Width: 320
Flags: HW
AnchorPoint: "Diacritic_mkmk" 168 160 mark 0
LayerCount: 2
Fore
SplineSet
204 140 m 1
 84 140 l 1
 132 180 l 1
 252 180 l 1
 204 140 l 1
EndSplineSet
EndChar

StartChar: two.thou
Encoding: 65587 -1 107
Width: 320
Flags: HW
AnchorPoint: "Diacritic_mkmk" 183.784 178 mark 0
LayerCount: 2
Fore
SplineSet
246.984375 184 m 1
 213.583984375 142 179.784179688 118 145.383789062 111 c 0
 111.984375 104 88.583984375 117 77.984375 149 c 1
 113.984375 179 l 1
 134.583984375 152 154.984375 139 176.184570312 140 c 0
 197.384765625 141 219.784179688 158 242.984375 189 c 1
 246.984375 184 l 1
EndSplineSet
EndChar

StartChar: three.thou
Encoding: 65588 -1 108
Width: 320
Flags: HW
AnchorPoint: "Diacritic_mkmk" 160.2 160 mark 0
LayerCount: 2
Fore
SplineSet
113 184 m 5
 149 214 l 5
 213 134 l 5
 177 104 l 5
 113 184 l 5
EndSplineSet
EndChar

StartChar: four.thou
Encoding: 65589 -1 109
Width: 320
Flags: HW
AnchorPoint: "Diacritic_mkmk" 166.2 160 mark 0
LayerCount: 2
Fore
SplineSet
223 184 m 1
 199 214 l 1
 103 134 l 1
 127 104 l 1
 223 184 l 1
EndSplineSet
EndChar

StartChar: five.thou
Encoding: 65590 -1 110
Width: 320
Flags: HW
AnchorPoint: "Diacritic_mkmk" 186.7 217 mark 0
LayerCount: 2
Fore
SplineSet
105.700195312 227 m 1
 145.5 256 l 1
 285.5 256 l 1
 245.700195312 227 l 1
 105.700195312 227 l 1
134.900390625 248 m 1
 239.5 186 l 1
 208.5 161 l 1
 105.700195312 227 l 1
 134.900390625 248 l 1
EndSplineSet
EndChar

StartChar: six.thou
Encoding: 65591 -1 111
Width: 320
Flags: HW
AnchorPoint: "Diacritic_mkmk" 170 160 mark 0
LayerCount: 2
Fore
SplineSet
196 140 m 1
 86 140 l 1
 134 180 l 1
 254 180 l 1
 158 100 l 1
 154 105 l 1
 196 140 l 1
EndSplineSet
EndChar

StartChar: seven.thou
Encoding: 65592 -1 112
Width: 320
Flags: HW
HStem: 180 30<127 148.597>
VStem: 97 103
AnchorPoint: "Diacritic_mkmk" 151.6 140 mark 0
LayerCount: 2
Fore
SplineSet
204.400390625 164 m 0
 203.599609375 150 197.799804688 136 185.599609375 120 c 0
 173.200195312 103 155.200195312 88 132.400390625 74 c 1
 128.400390625 79 l 1
 163 102 177.400390625 124 171.799804688 146 c 0
 166.200195312 168 144.400390625 179 104.599609375 180 c 1
 140.599609375 210 l 1
 161.599609375 210 178 207 189.200195312 198 c 0
 199.599609375 190 205.200195312 178 204.400390625 164 c 0
EndSplineSet
EndChar

StartChar: eight.thou
Encoding: 65593 -1 113
Width: 320
Flags: HW
AnchorPoint: "Diacritic_mkmk" 185.4 162 mark 0
LayerCount: 2
Fore
SplineSet
115.599609375 128 m 0
 116.400390625 142 122.200195312 156 134.400390625 172 c 0
 146.799804688 189 164.799804688 204 187.599609375 218 c 1
 191.599609375 213 l 1
 157 190 142.599609375 168 148.200195312 146 c 0
 153.799804688 124 175.599609375 113 215.400390625 112 c 1
 179.400390625 82 l 1
 158.400390625 82 142 85 130.799804688 94 c 0
 120.400390625 102 114.799804688 114 115.599609375 128 c 0
EndSplineSet
EndChar

StartChar: nine.thou
Encoding: 65594 -1 114
Width: 320
Flags: HW
AnchorPoint: "Diacritic_mkmk" 178.016 169 mark 0
LayerCount: 2
Fore
SplineSet
73.015625 104 m 1
 106.416015625 146 140.215820312 170 174.616210938 177 c 0
 208.015625 184 231.416015625 171 242.015625 139 c 1
 206.015625 109 l 1
 185.416015625 136 165.015625 149 143.815429688 148 c 0
 122.615234375 147 100.215820312 130 77.015625 99 c 1
 73.015625 104 l 1
EndSplineSet
EndChar

StartChar: backslash.flip
Encoding: 65597 -1 122
Width: 320
Flags: HW
HStem: 0 21G<241.6 280> 260 20G<40 78.4> 260 20G<40 78.4>
AnchorPoint: "Diacritic_down" 120 -60 basechar 0
AnchorPoint: "Diacritic_up" 204 360 basechar 0
AnchorPoint: "Extension_down" 252 20 basechar 0
AnchorPoint: "Extension_up" 64 260 basechar 0
AnchorPoint: "Diacritic_right" 280 240 basechar 0
AnchorPoint: "Diacritic_left" 48 80 basechar 0
LayerCount: 2
Fore
SplineSet
88 280 m 1xc0
 268 30 l 1
 232 0 l 1
 52 250 l 1
 88 280 l 1xc0
EndSplineSet
Ligature2: "FlipCores subtable" backslash quotesingle
LCarets2: 1 -28
EndChar

StartChar: backslash
Encoding: 92 92 128
Width: 320
Flags: HW
HStem: 0 21G<241.6 280> 260 20G<40 78.4> 260 20G<40 78.4>
AnchorPoint: "Diacritic_down" 120 -60 basechar 0
AnchorPoint: "Diacritic_up" 204 360 basechar 0
AnchorPoint: "Extension_down" 252 20 basechar 0
AnchorPoint: "Extension_up" 64 260 basechar 0
AnchorPoint: "Diacritic_right" 280 240 basechar 0
AnchorPoint: "Diacritic_left" 48 80 basechar 0
LayerCount: 2
Fore
SplineSet
88 280 m 1xc0
 268 30 l 1
 232 0 l 1
 52 250 l 1
 88 280 l 1xc0
EndSplineSet
EndChar

StartChar: colon
Encoding: 58 58 130
Width: 320
Flags: HW
HStem: 0 21G<205 245> 260 20G<75 115> 260 20G<75 115>
AnchorPoint: "Diacritic_down" 120 -60 basechar 0
AnchorPoint: "Diacritic_up" 204 360 basechar 0
AnchorPoint: "Extension_up" 99 260 basechar 0
AnchorPoint: "Extension_down" 221 20 basechar 0
AnchorPoint: "Diacritic_left" 28 80 basechar 0
AnchorPoint: "Diacritic_right" 300 240 basechar 0
LayerCount: 2
Fore
SplineSet
191 120 m 1xc0
 87 250 l 1
 123 280 l 1
 227 150 l 1
 191 120 l 1xc0
129 160 m 1
 233 30 l 1
 197 0 l 1
 93 130 l 1
 129 160 l 1
EndSplineSet
EndChar

StartChar: parenleft
Encoding: 40 40 135
Width: 320
Flags: HW
HStem: 0 21G<254.348 290> 260 20G<30 65.7664> 260 20G<30 65.7664>
AnchorPoint: "Diacritic_down" 120 -60 basechar 0
AnchorPoint: "Diacritic_up" 204 360 basechar 0
AnchorPoint: "Extension_up" 54 260 basechar 0
AnchorPoint: "Extension_down" 266 20 basechar 0
AnchorPoint: "Diacritic_left" 48 80 basechar 0
AnchorPoint: "Diacritic_right" 280 240 basechar 0
LayerCount: 2
Fore
SplineSet
125.599609375 108 m 2xc0
 42 250 l 1
 78 280 l 1
 158.599609375 143 l 1
 195.799804688 174 l 1
 278 30 l 1
 242 0 l 1
 161.599609375 138 l 1
 125.599609375 108 l 2xc0
EndSplineSet
Ligature2: "FlipCores subtable" parenright quotesingle
LCarets2: 1 -28
EndChar

StartChar: parenright
Encoding: 41 41 136
Width: 320
Flags: HW
HStem: 0 21G<220 260> 260 20G<60 100> 260 20G<60 100>
AnchorPoint: "Diacritic_down" 120 -60 basechar 0
AnchorPoint: "Diacritic_up" 204 360 basechar 0
AnchorPoint: "Extension_up" 84 260 basechar 0
AnchorPoint: "Extension_down" 236 20 basechar 0
AnchorPoint: "Diacritic_left" 48 80 basechar 0
AnchorPoint: "Diacritic_right" 280 240 basechar 0
LayerCount: 2
Fore
SplineSet
212 0 m 1xc0
 122.400390625 112 l 1
 158.400390625 142 l 1
 72 250 l 1
 108 280 l 1
 197.599609375 168 l 1
 161.599609375 138 l 1
 248 30 l 1
 212 0 l 1xc0
EndSplineSet
Ligature2: "FlipCores subtable" parenleft quotesingle
LCarets2: 1 -28
EndChar

StartChar: adieresis_i
Encoding: 65601 -1 137
Width: 320
Flags: HW
AnchorPoint: "Diacritic_mkmk" 166 207 mark 0
LayerCount: 2
Fore
SplineSet
146 232 m 1
 182 262 l 1
 246 182 l 1
 198 142 l 1
 78 142 l 1
 126 182 l 1
 186 182 l 1
 146 232 l 1
EndSplineSet
Ligature2: "VowelLigature subtable" i adieresis
Ligature2: "VowelLigature subtable" adieresis i
LCarets2: 1 -40
EndChar

StartChar: ellipses.vert
Encoding: 8942 8942 139
Width: 320
Flags: HW
AnchorPoint: "Tertiary_mkmk" 160 264 mark 0
LayerCount: 2
Fore
SplineSet
172 224 m 1
 124 184 l 1
 148 304 l 1
 196 344 l 1
 172 224 l 1
EndSplineSet
Ligature2: "TertiaryLigature subtable" ellipses.vert a idieresis a
LCarets2: 3 -53 -53 -53
EndChar

StartChar: equivalence
Encoding: 8801 8801 146
Width: 320
Flags: HW
AnchorPoint: "Diacritic_down" 120 -60 basechar 0
AnchorPoint: "Diacritic_up" 204 360 basechar 0
AnchorPoint: "Tertiary_down" 136 20 basechar 0
AnchorPoint: "Tertiary_up" 184 260 basechar 0
LayerCount: 2
Fore
SplineSet
84 160 m 1
 284 160 l 1
 236 120 l 1
 36 120 l 1
 84 160 l 1
EndSplineSet
Ligature2: "TertiaryLigature subtable" equivalence a a
LCarets2: 2 -28 -28
EndChar

StartChar: ithk_valence.CNG
Encoding: 65604 -1 147
Width: 320
Flags: HW
AnchorPoint: "Tertiary_up" 181.956 260 basechar 0
AnchorPoint: "Tertiary_down" 133.956 20 basechar 0
AnchorPoint: "Diacritic_up" 201.956 360 basechar 0
AnchorPoint: "Diacritic_down" 117.956 -60 basechar 0
LayerCount: 2
Fore
SplineSet
233.956054688 120 m 1
 33.9560546875 120 l 1
 81.9560546875 160 l 1
 271.956054688 160 l 1
 308.956054688 190 l 1
 315.356445312 137 337.956054688 120 375.755859375 139 c 1
 351.356445312 117 329.555664062 108 309.15625 111 c 0
 288.755859375 114 276.555664062 128 275.956054688 155 c 1
 233.956054688 120 l 1
EndSplineSet
Ligature2: "TertiaryLigature subtable" equivalence a v
LCarets2: 2 -30 -30
EndChar

StartChar: ithk_valence.CPL
Encoding: 65605 -1 148
Width: 320
Flags: HW
AnchorPoint: "Tertiary_up" 187.5 260 basechar 0
AnchorPoint: "Tertiary_down" 139.5 20 basechar 0
AnchorPoint: "Diacritic_up" 207.5 360 basechar 0
AnchorPoint: "Diacritic_down" 123.5 -60 basechar 0
LayerCount: 2
Fore
SplineSet
87.5 160 m 1
 287.5 160 l 1
 239.5 120 l 1
 49.5 120 l 1
 7.5 85 l 1
 3.5 90 l 1
 87.5 160 l 1
EndSplineSet
Ligature2: "TertiaryLigature subtable" equivalence s a
LCarets2: 2 -25 -25
EndChar

StartChar: ithk_valence.CRO
Encoding: 65606 -1 149
Width: 320
Flags: HW
AnchorPoint: "Tertiary_up" 181 260 basechar 0
AnchorPoint: "Tertiary_down" 133 20 basechar 0
AnchorPoint: "Diacritic_up" 201 360 basechar 0
AnchorPoint: "Diacritic_down" 117 -60 basechar 0
LayerCount: 2
Fore
SplineSet
91 160 m 1
 281 160 l 1
 233 120 l 1
 33 120 l 1
 117 190 l 1
 121 185 l 1
 91 160 l 1
EndSplineSet
Ligature2: "TertiaryLigature subtable" equivalence z a
LCarets2: 2 -31 -31
EndChar

StartChar: ithk_valence.DEM
Encoding: 65607 -1 150
Width: 320
Flags: HW
AnchorPoint: "Tertiary_up" 184.5 260 basechar 0
AnchorPoint: "Tertiary_down" 136.5 20 basechar 0
AnchorPoint: "Diacritic_up" 204.5 360 basechar 0
AnchorPoint: "Diacritic_down" 120.5 -60 basechar 0
LayerCount: 2
Fore
SplineSet
84.5 160 m 1
 274.5 160 l 1
 311.5 190 l 1
 336.5 185 345.700195312 171 341.299804688 149 c 0
 336.700195312 126 319.5 105 286.5 85 c 1
 302.5 105 310.700195312 121 309.900390625 132 c 0
 309.299804688 144 298.900390625 152 278.5 155 c 1
 267.900390625 147 l 2
 257.099609375 138 247.299804688 129 236.5 120 c 2
 36.5 120 l 1
 84.5 160 l 1
EndSplineSet
Ligature2: "TertiaryLigature subtable" equivalence a f
LCarets2: 2 -28 -28
EndChar

StartChar: ithk_valence.DUP
Encoding: 65608 -1 151
Width: 320
Flags: HW
AnchorPoint: "Tertiary_up" 180.5 260 basechar 0
AnchorPoint: "Tertiary_down" 132.5 20 basechar 0
AnchorPoint: "Diacritic_up" 200.5 360 basechar 0
AnchorPoint: "Diacritic_down" 116.5 -60 basechar 0
LayerCount: 2
Fore
SplineSet
80.5 160 m 1
 270.5 160 l 1
 312.5 195 l 1
 316.5 190 l 1
 232.5 120 l 1
 32.5 120 l 1
 80.5 160 l 1
EndSplineSet
Ligature2: "TertiaryLigature subtable" equivalence a s
LCarets2: 2 -32 -32
EndChar

StartChar: ithk_valence.PRL
Encoding: 65609 -1 152
Width: 320
Flags: HW
AnchorPoint: "Tertiary_up" 187 260 basechar 0
AnchorPoint: "Tertiary_down" 139 20 basechar 0
AnchorPoint: "Diacritic_up" 207 360 basechar 0
AnchorPoint: "Diacritic_down" 123 -60 basechar 0
LayerCount: 2
Fore
SplineSet
87 160 m 1
 287 160 l 1
 203 90 l 1
 199 95 l 1
 229 120 l 1
 39 120 l 1
 87 160 l 1
EndSplineSet
Ligature2: "TertiaryLigature subtable" equivalence a z
LCarets2: 2 -25 -25
EndChar

StartChar: ithk_valence.PTI
Encoding: 65610 -1 153
Width: 320
Flags: HW
AnchorPoint: "Tertiary_up" 184.5 260 basechar 0
AnchorPoint: "Tertiary_down" 136.5 20 basechar 0
AnchorPoint: "Diacritic_up" 204.5 360 basechar 0
AnchorPoint: "Diacritic_down" 120.5 -60 basechar 0
LayerCount: 2
Fore
SplineSet
0.5 90 m 1
 84.5 160 l 1
 274.5 160 l 1
 311.5 190 l 1
 336.5 185 345.700195312 171 341.299804688 149 c 0
 336.700195312 126 319.5 105 286.5 85 c 1
 302.5 105 310.700195312 121 309.900390625 132 c 0
 309.299804688 144 298.900390625 152 278.5 155 c 1
 236.5 120 l 1
 46.5 120 l 1
 4.5 85 l 1
 0.5 90 l 1
EndSplineSet
Ligature2: "TertiaryLigature subtable" equivalence s f
LCarets2: 2 -28 -28
EndChar

StartChar: ithk_valence.RCP
Encoding: 65611 -1 154
Width: 320
Flags: HW
AnchorPoint: "Tertiary_up" 184 260 basechar 0
AnchorPoint: "Tertiary_down" 136 20 basechar 0
AnchorPoint: "Diacritic_up" 204 360 basechar 0
AnchorPoint: "Diacritic_down" 120 -60 basechar 0
LayerCount: 2
Fore
SplineSet
94 160 m 1
 284 160 l 1
 200 90 l 1
 197 95 l 1
 227 120 l 1
 36 120 l 1
 120 190 l 1
 124 185 l 1
 94 160 l 1
EndSplineSet
Ligature2: "TertiaryLigature subtable" equivalence z z
LCarets2: 2 -28 -28
EndChar

StartChar: ithk_phase.FLC
Encoding: 65612 -1 155
Width: 320
Flags: HW
AnchorPoint: "Tertiary_mkmk" 158.4 264 mark 0
LayerCount: 2
Fore
SplineSet
196 352 m 1
 179.400390625 269 l 1
 207 222 l 1
 171 192 l 1
 136 252 l 1
 148 312 l 1
 196 352 l 1
EndSplineSet
Ligature2: "TertiaryLigature subtable" ellipses.vert a idieresis p
LCarets2: 3 -54 -54 -54
EndChar

StartChar: ithk_phase.FRE
Encoding: 65613 -1 156
Width: 320
Flags: HW
AnchorPoint: "Tertiary_mkmk" 160.8 264 mark 0
LayerCount: 2
Fore
SplineSet
174 230 m 2
 204 255 l 1
 208 250 l 1
 124 180 l 1
 140.599609375 263 l 1
 113 310 l 1
 149 340 l 1
 184 280 l 1
 174 230 l 2
EndSplineSet
Ligature2: "TertiaryLigature subtable" ellipses.vert p idieresis s
LCarets2: 3 -52 -52 -52
EndChar

StartChar: ithk_phase.FRG
Encoding: 65614 -1 157
Width: 320
Flags: HW
AnchorPoint: "Tertiary_mkmk" 160.8 264 mark 0
LayerCount: 2
Fore
SplineSet
196 340 m 1
 179.400390625 257 l 1
 207 210 l 1
 171 180 l 1
 136 240 l 1
 146 290 l 1
 116 265 l 1
 112 270 l 1
 196 340 l 1
EndSplineSet
Ligature2: "TertiaryLigature subtable" ellipses.vert s idieresis p
LCarets2: 3 -52 -52 -52
EndChar

StartChar: ithk_phase.ITM
Encoding: 65615 -1 158
Width: 320
Flags: HW
AnchorPoint: "Tertiary_mkmk" 160.8 264 mark 0
LayerCount: 2
Fore
SplineSet
114 270 m 1
 198 340 l 1
 176 230 l 1
 206 255 l 1
 210 250 l 1
 126 180 l 1
 148 290 l 1
 118 265 l 1
 114 270 l 1
EndSplineSet
Ligature2: "TertiaryLigature subtable" ellipses.vert s idieresis s
LCarets2: 3 -52 -52 -52
EndChar

StartChar: ithk_phase.ITR
Encoding: 65616 -1 159
Width: 320
Flags: HW
AnchorPoint: "Tertiary_mkmk" 160.8 264 mark 0
LayerCount: 2
Fore
SplineSet
114 270 m 1
 198 340 l 1
 174 220 l 1
 126 180 l 1
 148 290 l 1
 118 265 l 1
 114 270 l 1
EndSplineSet
Ligature2: "TertiaryLigature subtable" ellipses.vert s idieresis a
LCarets2: 3 -52 -52 -52
EndChar

StartChar: ithk_phase.RCT
Encoding: 65617 -1 160
Width: 320
Flags: HW
AnchorPoint: "Tertiary_mkmk" 162.9 264 mark 0
LayerCount: 2
Fore
SplineSet
150.5 302 m 1
 198.5 342 l 1
 174.5 222 l 1
 96.5 157 l 1
 92.5 162 l 1
 128.5 192 l 1
 150.5 302 l 1
EndSplineSet
Ligature2: "TertiaryLigature subtable" ellipses.vert a idieresis z
LCarets2: 3 -50 -50 -50
EndChar

StartChar: ithk_phase.REP
Encoding: 65618 -1 161
Width: 320
Flags: HW
AnchorPoint: "Tertiary_mkmk" 160.8 264 mark 0
LayerCount: 2
Fore
SplineSet
206 250 m 1
 122 180 l 1
 146 300 l 1
 194 340 l 1
 172 230 l 1
 202 255 l 1
 206 250 l 1
EndSplineSet
Ligature2: "TertiaryLigature subtable" ellipses.vert a idieresis s
LCarets2: 3 -52 -52 -52
EndChar

StartChar: ithk_phase.VAC
Encoding: 65619 -1 162
Width: 320
Flags: HW
AnchorPoint: "Tertiary_mkmk" 160.8 264 mark 0
LayerCount: 2
Fore
SplineSet
124 180 m 1
 140.599609375 263 l 1
 113 310 l 1
 149 340 l 1
 184 280 l 1
 172 220 l 1
 124 180 l 1
EndSplineSet
Ligature2: "TertiaryLigature subtable" ellipses.vert p idieresis a
LCarets2: 3 -52 -52 -52
EndChar

StartChar: ithk_effect.oneben
Encoding: 65620 -1 163
Width: 320
Flags: HW
AnchorPoint: "Tertiary_mkmk" 163 270 mark 0
LayerCount: 2
Fore
SplineSet
134 320 m 1
 198 210 l 1
 163 180 l 1
 98 290 l 1
 134 320 l 1
EndSplineSet
Ligature2: "TertiaryLigature subtable" ellipses.vert a i a
LCarets2: 3 -50 -50 -50
EndChar

StartChar: ithk_effect.onedet
Encoding: 65621 -1 164
Width: 320
Flags: HW
AnchorPoint: "Tertiary_mkmk" 163 270 mark 0
LayerCount: 2
Fore
SplineSet
134 320 m 1
 192 220 l 1
 251 220 l 1
 203 180 l 1
 163 180 l 1
 98 290 l 1
 134 320 l 1
EndSplineSet
Ligature2: "TertiaryLigature subtable" ellipses.vert a i m
LCarets2: 3 -50 -50 -50
EndChar

StartChar: ithk_effect.twoben
Encoding: 65622 -1 165
Width: 320
Flags: HW
AnchorPoint: "Tertiary_mkmk" 163 270 mark 0
LayerCount: 2
Fore
SplineSet
62 260 m 1
 134 320 l 1
 198 210 l 1
 163 180 l 1
 101 285 l 1
 66 255 l 1
 62 260 l 1
EndSplineSet
Ligature2: "TertiaryLigature subtable" ellipses.vert s i a
LCarets2: 3 -50 -50 -50
EndChar

StartChar: ithk_effect.twodet
Encoding: 65623 -1 166
Width: 320
Flags: HW
AnchorPoint: "Tertiary_mkmk" 163 270 mark 0
LayerCount: 2
Fore
SplineSet
46 280 m 1
 94 320 l 1
 134 320 l 1
 198 210 l 1
 163 180 l 1
 104 280 l 1
 46 280 l 1
EndSplineSet
Ligature2: "TertiaryLigature subtable" ellipses.vert m i a
LCarets2: 3 -50 -50 -50
EndChar

StartChar: ithk_effect.threeben
Encoding: 65624 -1 167
Width: 320
Flags: HW
AnchorPoint: "Tertiary_mkmk" 161 270 mark 0
LayerCount: 2
Fore
SplineSet
193 215 m 1
 228 245 l 1
 232 240 l 1
 160 180 l 1
 96 290 l 1
 132 320 l 1
 193 215 l 1
EndSplineSet
Ligature2: "TertiaryLigature subtable" ellipses.vert a i s
LCarets2: 3 -50 -50 -50
EndChar

StartChar: ithk_effect.threedet
Encoding: 65625 -1 168
Width: 320
Flags: HW
AnchorPoint: "Tertiary_mkmk" 162 270 mark 0
LayerCount: 2
Fore
SplineSet
65 255 m 1
 61 260 l 1
 133 320 l 1
 192 220 l 1
 250 220 l 1
 202 180 l 1
 162 180 l 1
 100 285 l 1
 65 255 l 1
EndSplineSet
Ligature2: "TertiaryLigature subtable" ellipses.vert s i m
LCarets2: 3 -50 -50 -50
EndChar

StartChar: ithk_effect.slfben
Encoding: 65626 -1 169
Width: 320
Flags: HW
AnchorPoint: "Tertiary_mkmk" 162 270 mark 0
LayerCount: 2
Fore
SplineSet
65 255 m 1
 61 260 l 1
 133 320 l 1
 194 215 l 1
 230 245 l 1
 234 240 l 1
 162 180 l 1
 100 285 l 1
 65 255 l 1
EndSplineSet
Ligature2: "TertiaryLigature subtable" ellipses.vert s i s
LCarets2: 3 -50 -50 -50
EndChar

StartChar: ithk_effect.slfdet
Encoding: 65627 -1 170
Width: 320
Flags: HW
AnchorPoint: "Tertiary_mkmk" 166 270 mark 0
LayerCount: 2
Fore
SplineSet
137 320 m 1
 201 210 l 1
 130 150 l 1
 126 155 l 1
 162 185 l 2
 162.200195312 186 161.200195312 186 161.400390625 187 c 2
 101 290 l 1
 137 320 l 1
EndSplineSet
Ligature2: "TertiaryLigature subtable" ellipses.vert a i z
LCarets2: 3 -47 -47 -47
EndChar

StartChar: ithk_effect.unk
Encoding: 65628 -1 171
Width: 320
Flags: HW
AnchorPoint: "Tertiary_mkmk" 159 270 mark 0
LayerCount: 2
Fore
SplineSet
133.599609375 313 m 2
 194 210 l 1
 158 180 l 1
 93 290 l 1
 165 350 l 1
 169 345 l 1
 133 315 l 2
 132.799804688 314 133.799804688 314 133.599609375 313 c 2
EndSplineSet
Ligature2: "TertiaryLigature subtable" ellipses.vert z i a
LCarets2: 3 -53 -53 -53
EndChar

StartChar: ddotbelow
Encoding: 7693 7693 176
Width: 320
VWidth: -84
Flags: HW
HStem: 0 21G<146.932 180.355> 240 40<80 240>
VStem: 40 40<129 240>
AnchorPoint: "Diacritic_right" 220 140 basechar 0
AnchorPoint: "Diacritic_left" -20 140 basechar 0
AnchorPoint: "Extension_up" 284 260 basechar 0
AnchorPoint: "Extension_down" 156 20 basechar 0
AnchorPoint: "Diacritic_down" 120 -60 basechar 0
AnchorPoint: "Diacritic_up" 204 360 basechar 0
LayerCount: 2
Fore
SplineSet
308 280 m 1
 260 240 l 1
 100 240 l 1
 77.7998046875 129 l 1
 107.799804688 154 l 1
 169.200195312 31 l 1
 133 0 l 1
 73.599609375 118 l 1
 28 80 l 1
 60 240 l 1
 108 280 l 1
 308 280 l 1
EndSplineSet
Substitution2: "Single Substitution lookup 19 subtable" ddotbelow.ext.up
Substitution2: "Single Substitution lookup 18 subtable" ddotbelow.ext.down
EndChar

StartChar: ithk_aspect.ATP
Encoding: 65629 -1 177
Width: 320
Flags: HW
AnchorPoint: "Tertiary_mkmk" 161.798 240 mark 0
LayerCount: 2
Fore
SplineSet
105.797851562 260 m 1
 265.797851562 260 l 1
 175.797851562 185 l 1
 171.797851562 190 l 1
 207.797851562 220 l 1
 57.7978515625 220 l 1
 69.998046875 286 106.397460938 318 165.198242188 317 c 1
 169.198242188 312 l 1
 132.59765625 304 111.198242188 287 105.797851562 260 c 1
EndSplineSet
Ligature2: "TertiaryLigature subtable" ellipses.vert f adieresis z
LCarets2: 3 -50 -50 -50
EndChar

StartChar: ithk_aspect.CCL
Encoding: 65630 -1 178
Width: 320
Flags: HW
AnchorPoint: "Tertiary_mkmk" 156.5 240 mark 0
LayerCount: 2
Fore
SplineSet
212.5 220 m 1
 52.5 220 l 1
 100.5 260 l 1
 62.900390625 307 l 1
 96.5 335 l 1
 138.299804688 284 l 1
 109.5 260 l 1
 260.5 260 l 1
 212.5 220 l 1
EndSplineSet
Ligature2: "TertiaryLigature subtable" ellipses.vert g adieresis a
LCarets2: 3 -56 -56 -56
EndChar

StartChar: ithk_aspect.CLM
Encoding: 65631 -1 179
Width: 320
Flags: HW
AnchorPoint: "Tertiary_mkmk" 171.5 240 mark 0
LayerCount: 2
Fore
SplineSet
115.5 260 m 1
 275.5 260 l 1
 227.5 220 l 1
 265.099609375 173 l 1
 231.5 145 l 1
 189.700195312 196 l 1
 218.5 220 l 1
 67.5 220 l 1
 115.5 260 l 1
EndSplineSet
Ligature2: "TertiaryLigature subtable" ellipses.vert a adieresis g
LCarets2: 3 -41 -41 -41
EndChar

StartChar: ithk_aspect.CNT
Encoding: 65632 -1 180
Width: 320
Flags: HW
AnchorPoint: "Tertiary_mkmk" 169.5 240 mark 0
LayerCount: 2
Fore
SplineSet
65.5 220 m 1
 113.5 260 l 1
 263.5 260 l 1
 305.5 295 l 1
 309.5 290 l 1
 225.5 220 l 1
 145.5 220 l 1
 173.099609375 198 162.099609375 168 112.5 130 c 1
 108.5 135 l 1
 140.099609375 168 125.700195312 196 65.5 220 c 1
EndSplineSet
Ligature2: "TertiaryLigature subtable" ellipses.vert ddotbelow adieresis s
LCarets2: 3 -43 -43 -43
EndChar

StartChar: ithk_aspect.CSS
Encoding: 65633 -1 181
Width: 320
Flags: HW
AnchorPoint: "Tertiary_mkmk" 171.544 240 mark 0
LayerCount: 2
Fore
SplineSet
191.543945312 190 m 1
 135.14453125 148 94.14453125 158 66.5439453125 220 c 1
 114.543945312 260 l 1
 274.543945312 260 l 1
 226.543945312 220 l 1
 126.543945312 220 l 1
 122.543945312 200 128.14453125 188 142.14453125 183 c 0
 155.34375 179 170.14453125 183 187.543945312 195 c 1
 191.543945312 190 l 1
EndSplineSet
Ligature2: "TertiaryLigature subtable" ellipses.vert tcedilla adieresis a
LCarets2: 3 -42 -42 -42
EndChar

StartChar: ithk_aspect.CUL
Encoding: 65634 -1 182
Width: 320
Flags: HW
AnchorPoint: "Tertiary_mkmk" 153 240 mark 0
LayerCount: 2
Fore
SplineSet
106 260 m 1
 256 260 l 1
 208 220 l 1
 48 220 l 1
 96 260 l 1
 108 320 l 1
 156 360 l 1
 142.200195312 291 l 1
 106 260 l 1
 106 260 l 1
EndSplineSet
Ligature2: "TertiaryLigature subtable" ellipses.vert approxequal adieresis a
LCarets2: 3 -58 -58 -58
EndChar

StartChar: ithk_aspect.DCL
Encoding: 65635 -1 183
Width: 320
Flags: HW
AnchorPoint: "Tertiary_mkmk" 160 240 mark 0
LayerCount: 2
Fore
SplineSet
216 220 m 1
 56 220 l 1
 104 260 l 1
 44 260 l 1
 92 300 l 1
 162 300 l 1
 114 260 l 1
 264 260 l 1
 216 220 l 1
EndSplineSet
Ligature2: "TertiaryLigature subtable" ellipses.vert k adieresis a
LCarets2: 3 -52 -52 -52
EndChar

StartChar: ithk_aspect.DLT
Encoding: 65636 -1 184
Width: 320
Flags: HW
AnchorPoint: "Tertiary_mkmk" 176 240 mark 0
LayerCount: 2
Fore
SplineSet
222 220 m 1
 72 220 l 1
 120 260 l 1
 280 260 l 1
 232 220 l 1
 220 160 l 1
 172 120 l 1
 185.799804688 189 l 1
 222 220 l 1
 222 220 l 1
EndSplineSet
Ligature2: "TertiaryLigature subtable" ellipses.vert a adieresis approxequal
LCarets2: 3 -38 -38 -38
EndChar

StartChar: ithk_aspect.EPD
Encoding: 65637 -1 185
Width: 320
Flags: HW
AnchorPoint: "Tertiary_mkmk" 172.5 240 mark 0
LayerCount: 2
Fore
SplineSet
116.5 260 m 1
 276.5 260 l 1
 228.5 220 l 1
 270.5 195 273.700195312 166 238.5 135 c 1
 251.099609375 168 234.099609375 188 188.5 195 c 1
 219.5 220 l 1
 68.5 220 l 1
 116.5 260 l 1
EndSplineSet
Ligature2: "TertiaryLigature subtable" ellipses.vert a adieresis rcaron
LCarets2: 3 -40 -40 -40
EndChar

StartChar: ithk_aspect.EXP
Encoding: 65638 -1 186
Width: 320
Flags: HW
AnchorPoint: "Tertiary_mkmk" 169.702 240 mark 0
LayerCount: 2
Fore
SplineSet
65.7021484375 220 m 1
 113.702148438 260 l 1
 273.702148438 260 l 1
 261.501953125 194 225.102539062 162 166.301757812 163 c 1
 162.301757812 168 l 1
 198.90234375 176 220.302734375 193 225.702148438 220 c 1
 125.702148438 220 l 1
 141.702148438 200 l 1
 105.702148438 170 l 1
 65.7021484375 220 l 1
EndSplineSet
Ligature2: "TertiaryLigature subtable" ellipses.vert i adieresis f
LCarets2: 3 -42 -42 -42
EndChar

StartChar: ithk_aspect.HAB
Encoding: 65639 -1 187
Width: 320
Flags: HW
AnchorPoint: "Tertiary_mkmk" 156 240 mark 0
LayerCount: 2
Fore
SplineSet
216 345 m 1
 184.400390625 312 198.799804688 284 259 260 c 1
 211 220 l 1
 51 220 l 1
 99 260 l 1
 179 260 l 1
 151.400390625 282 162.400390625 312 212 350 c 1
 216 345 l 1
EndSplineSet
Ligature2: "TertiaryLigature subtable" ellipses.vert a adieresis ddotbelow
LCarets2: 3 -57 -57 -57
EndChar

StartChar: ithk_aspect.ICS
Encoding: 65640 -1 188
Width: 320
Flags: HW
AnchorPoint: "Tertiary_mkmk" 170.702 240 mark 0
LayerCount: 2
Fore
SplineSet
163.301757812 168 m 1
 199.90234375 176 221.302734375 193 226.702148438 220 c 1
 66.7021484375 220 l 1
 114.702148438 260 l 1
 274.702148438 260 l 1
 262.501953125 194 226.102539062 162 167.301757812 163 c 1
 163.301757812 168 l 1
EndSplineSet
Ligature2: "TertiaryLigature subtable" ellipses.vert a adieresis f
LCarets2: 3 -42 -42 -42
EndChar

StartChar: ithk_aspect.IMD
Encoding: 65641 -1 189
Width: 320
Flags: HW
AnchorPoint: "Tertiary_mkmk" 163.1 240 mark 0
LayerCount: 2
Fore
SplineSet
219.099609375 220 m 1
 69.099609375 220 l 1
 21.099609375 180 l 1
 39.099609375 270 l 1
 86.900390625 309 l 1
 71.099609375 230 l 1
 107.099609375 260 l 1
 267.099609375 260 l 1
 219.099609375 220 l 1
EndSplineSet
Ligature2: "TertiaryLigature subtable" ellipses.vert scaron adieresis a
LCarets2: 3 -49 -49 -49
EndChar

StartChar: ithk_aspect.IMM
Encoding: 65642 -1 190
Width: 320
Flags: HW
AnchorPoint: "Tertiary_mkmk" 161.956 240 mark 0
LayerCount: 2
Fore
SplineSet
139.956054688 290 m 1
 196.35546875 332 237.35546875 322 264.956054688 260 c 1
 216.956054688 220 l 1
 66.9560546875 220 l 1
 24.9560546875 185 l 1
 20.9560546875 190 l 1
 104.956054688 260 l 1
 204.956054688 260 l 1
 208.956054688 280 203.35546875 292 189.35546875 297 c 0
 176.15625 301 161.35546875 297 143.956054688 285 c 1
 139.956054688 290 l 1
EndSplineSet
Ligature2: "TertiaryLigature subtable" ellipses.vert s adieresis tcedilla
LCarets2: 3 -50 -50 -50
EndChar

StartChar: ithk_aspect.IRP
Encoding: 65643 -1 191
Width: 320
Flags: HW
AnchorPoint: "Tertiary_mkmk" 166.202 240 mark 0
LayerCount: 2
Fore
SplineSet
222.202148438 220 m 1
 62.2021484375 220 l 1
 152.202148438 295 l 1
 156.202148438 290 l 1
 120.202148438 260 l 1
 270.202148438 260 l 1
 258.001953125 194 221.602539062 162 162.801757812 163 c 1
 158.801757812 168 l 1
 195.40234375 176 216.801757812 193 222.202148438 220 c 1
EndSplineSet
Ligature2: "TertiaryLigature subtable" ellipses.vert z adieresis f
LCarets2: 3 -46 -46 -46
EndChar

StartChar: ithk_aspect.ITC
Encoding: 65644 -1 192
Width: 320
Flags: HW
AnchorPoint: "Tertiary_mkmk" 155.5 240 mark 0
LayerCount: 2
Fore
SplineSet
211.5 220 m 1
 51.5 220 l 1
 99.5 260 l 1
 57.5 285 54.2998046875 314 89.5 345 c 1
 76.900390625 312 93.900390625 292 139.5 285 c 1
 108.5 260 l 1
 259.5 260 l 1
 211.5 220 l 1
EndSplineSet
Ligature2: "TertiaryLigature subtable" ellipses.vert rcaron adieresis a
LCarets2: 3 -57 -57 -57
EndChar

StartChar: ithk_aspect.LIM
Encoding: 65645 -1 193
Width: 320
Flags: HW
AnchorPoint: "Tertiary_mkmk" 155 240 mark 0
LayerCount: 2
Fore
SplineSet
99 260 m 2
 249 260 l 1
 259 310 l 1
 307 350 l 1
 295 290 l 1
 211 220 l 1
 51 220 l 1
 99 260 l 2
EndSplineSet
Ligature2: "TertiaryLigature subtable" ellipses.vert a adieresis t
LCarets2: 3 -57 -57 -57
EndChar

StartChar: ithk_aspect.MTV
Encoding: 65646 -1 194
Width: 320
Flags: HW
AnchorPoint: "Tertiary_mkmk" 156.495 240 mark 0
LayerCount: 2
Fore
SplineSet
109.495117188 260 m 1
 260.495117188 260 l 1
 212.495117188 220 l 1
 52.4951171875 220 l 1
 100.495117188 260 l 1
 99.294921875 289 77.6953125 311 37.4951171875 325 c 1
 95.6953125 326 129.895507812 312 139.495117188 285 c 1
 109.495117188 260 l 1
EndSplineSet
Ligature2: "TertiaryLigature subtable" ellipses.vert x adieresis a
LCarets2: 3 -55 -55 -55
EndChar

StartChar: ithk_aspect.PAU
Encoding: 65647 -1 195
Width: 320
Flags: HW
AnchorPoint: "Tertiary_mkmk" 173 240 mark 0
LayerCount: 2
Fore
SplineSet
112 135 m 1
 143.599609375 168 129.200195312 196 69 220 c 1
 117 260 l 1
 277 260 l 1
 229 220 l 1
 149 220 l 1
 176.599609375 198 165.599609375 168 116 130 c 1
 112 135 l 1
EndSplineSet
Ligature2: "TertiaryLigature subtable" ellipses.vert ddotbelow adieresis a
LCarets2: 3 -39 -39 -39
EndChar

StartChar: ithk_aspect.PCL
Encoding: 65648 -1 196
Width: 320
Flags: HW
AnchorPoint: "Tertiary_mkmk" 167.044 240 mark 0
LayerCount: 2
Fore
SplineSet
188.043945312 190 m 1
 131.64453125 148 90.64453125 158 63.0439453125 220 c 1
 111.043945312 260 l 1
 261.043945312 260 l 1
 303.043945312 295 l 1
 307.043945312 290 l 1
 223.043945312 220 l 1
 123.043945312 220 l 1
 119.043945312 200 124.64453125 188 138.64453125 183 c 0
 151.84375 179 166.64453125 183 184.043945312 195 c 1
 188.043945312 190 l 1
EndSplineSet
Ligature2: "TertiaryLigature subtable" ellipses.vert tcedilla adieresis s
LCarets2: 3 -46 -46 -46
EndChar

StartChar: ithk_aspect.PCS
Encoding: 65649 -1 197
Width: 320
Flags: HW
AnchorPoint: "Tertiary_mkmk" 158.5 240 mark 0
LayerCount: 2
Fore
SplineSet
262.5 260 m 1
 214.5 220 l 1
 64.5 220 l 1
 22.5 185 l 1
 18.5 190 l 1
 102.5 260 l 1
 182.5 260 l 1
 154.900390625 282 165.900390625 312 215.5 350 c 1
 219.5 345 l 1
 187.900390625 312 202.299804688 284 262.5 260 c 1
EndSplineSet
Ligature2: "TertiaryLigature subtable" ellipses.vert s adieresis ddotbelow
LCarets2: 3 -54 -54 -54
EndChar

StartChar: ithk_aspect.PMP
Encoding: 65650 -1 198
Width: 320
Flags: HW
AnchorPoint: "Tertiary_mkmk" 168 240 mark 0
LayerCount: 2
Fore
SplineSet
112 260 m 1
 272 260 l 1
 224 220 l 1
 284 220 l 1
 236 180 l 1
 166 180 l 1
 214 220 l 1
 64 220 l 1
 112 260 l 1
EndSplineSet
Ligature2: "TertiaryLigature subtable" ellipses.vert a adieresis k
LCarets2: 3 -44 -44 -44
EndChar

StartChar: ithk_aspect.PPR
Encoding: 65651 -1 199
Width: 320
Flags: HW
AnchorPoint: "Tertiary_mkmk" 170 240 mark 0
LayerCount: 2
Fore
SplineSet
114 260 m 1
 274 260 l 1
 262 200 l 1
 214 160 l 1
 226 220 l 1
 66 220 l 1
 114 260 l 1
EndSplineSet
Ligature2: "TertiaryLigature subtable" ellipses.vert a adieresis equal
LCarets2: 3 -42 -42 -42
EndChar

StartChar: ithk_aspect.PRG
Encoding: 65652 -1 200
Width: 320
Flags: HW
AnchorPoint: "Tertiary_mkmk" 159.5 240 mark 0
LayerCount: 2
Fore
SplineSet
199.5 340 m 2
 263.5 260 l 1
 215.5 220 l 1
 65.5 220 l 1
 23.5 185 l 1
 19.5 190 l 1
 103.5 260 l 1
 203.5 260 l 1
 163.5 310 l 1
 199.5 340 l 2
EndSplineSet
Ligature2: "TertiaryLigature subtable" ellipses.vert s adieresis i
LCarets2: 3 -53 -53 -53
EndChar

StartChar: ithk_aspect.PRS
Encoding: 65653 -1 201
Width: 320
Flags: HW
AnchorPoint: "Tertiary_mkmk" 158.456 240 mark 0
LayerCount: 2
Fore
SplineSet
136.456054688 290 m 1
 192.85546875 332 233.85546875 322 261.456054688 260 c 1
 213.456054688 220 l 1
 53.4560546875 220 l 1
 101.456054688 260 l 1
 201.456054688 260 l 1
 205.456054688 280 199.85546875 292 185.85546875 297 c 0
 172.65625 301 157.85546875 297 140.456054688 285 c 1
 136.456054688 290 l 1
EndSplineSet
Ligature2: "TertiaryLigature subtable" ellipses.vert a adieresis tcedilla
LCarets2: 3 -54 -54 -54
EndChar

StartChar: ithk_aspect.PTC
Encoding: 65654 -1 202
Width: 320
Flags: HW
AnchorPoint: "Tertiary_mkmk" 172.505 240 mark 0
LayerCount: 2
Fore
SplineSet
218.504882812 220 m 1
 67.5048828125 220 l 1
 115.504882812 260 l 1
 275.504882812 260 l 1
 227.504882812 220 l 1
 228.705078125 191 250.3046875 169 290.504882812 155 c 1
 232.3046875 154 198.104492188 168 188.504882812 195 c 1
 218.504882812 220 l 1
EndSplineSet
Ligature2: "TertiaryLigature subtable" ellipses.vert a adieresis x
LCarets2: 3 -41 -41 -41
EndChar

StartChar: ithk_aspect.REG
Encoding: 65655 -1 203
Width: 320
Flags: HW
AnchorPoint: "Tertiary_mkmk" 158.298 240 mark 0
LayerCount: 2
Fore
SplineSet
164.698242188 312 m 1
 128.09765625 304 106.697265625 287 101.297851562 260 c 1
 261.297851562 260 l 1
 213.297851562 220 l 1
 53.2978515625 220 l 1
 65.498046875 286 101.897460938 318 160.698242188 317 c 1
 164.698242188 312 l 1
EndSplineSet
Ligature2: "TertiaryLigature subtable" ellipses.vert f adieresis a
LCarets2: 3 -54 -54 -54
EndChar

StartChar: ithk_aspect.RGR
Encoding: 65656 -1 204
Width: 320
Flags: HW
AnchorPoint: "Tertiary_mkmk" 168.5 240 mark 0
LayerCount: 2
Fore
SplineSet
128.5 140 m 2
 64.5 220 l 1
 112.5 260 l 1
 262.5 260 l 1
 304.5 295 l 1
 308.5 290 l 1
 224.5 220 l 1
 124.5 220 l 1
 164.5 170 l 1
 128.5 140 l 2
EndSplineSet
Ligature2: "TertiaryLigature subtable" ellipses.vert i adieresis s
LCarets2: 3 -44 -44 -44
EndChar

StartChar: ithk_aspect.RSM
Encoding: 65657 -1 205
Width: 320
Flags: HW
AnchorPoint: "Tertiary_mkmk" 174 240 mark 0
LayerCount: 2
Fore
SplineSet
170 170 m 1
 134 140 l 1
 70 220 l 1
 118 260 l 1
 278 260 l 1
 230 220 l 1
 130 220 l 1
 170 170 l 1
EndSplineSet
Ligature2: "TertiaryLigature subtable" ellipses.vert i adieresis a
LCarets2: 3 -40 -40 -40
EndChar

StartChar: ithk_aspect.RTR
Encoding: 65658 -1 206
Width: 320
Flags: HW
AnchorPoint: "Tertiary_mkmk" 155 240 mark 0
LayerCount: 2
Fore
SplineSet
158 310 m 1
 194 340 l 1
 258 260 l 1
 210 220 l 1
 50 220 l 1
 98 260 l 1
 198 260 l 1
 158 310 l 1
EndSplineSet
Ligature2: "TertiaryLigature subtable" ellipses.vert a adieresis i
LCarets2: 3 -56 -56 -56
EndChar

StartChar: ithk_aspect.SMM
Encoding: 65659 -1 207
Width: 320
Flags: HW
AnchorPoint: "Tertiary_mkmk" 159.298 240 mark 0
LayerCount: 2
Fore
SplineSet
262.297851562 260 m 1
 214.297851562 220 l 1
 54.2978515625 220 l 1
 66.498046875 286 102.897460938 318 161.698242188 317 c 1
 165.698242188 312 l 1
 129.09765625 304 107.697265625 287 102.297851562 260 c 1
 202.297851562 260 l 1
 186.297851562 280 l 1
 222.297851562 310 l 1
 262.297851562 260 l 1
EndSplineSet
Ligature2: "TertiaryLigature subtable" ellipses.vert f adieresis i
LCarets2: 3 -54 -54 -54
EndChar

StartChar: ithk_aspect.SQN
Encoding: 65660 -1 208
Width: 320
Flags: HW
AnchorPoint: "Tertiary_mkmk" 159 240 mark 0
LayerCount: 2
Fore
SplineSet
214 220 m 1
 54 220 l 1
 66 280 l 1
 114 320 l 1
 102 260 l 1
 262 260 l 1
 214 220 l 1
EndSplineSet
Ligature2: "TertiaryLigature subtable" ellipses.vert equal adieresis a
LCarets2: 3 -54 -54 -54
EndChar

StartChar: ithk_aspect.TMP
Encoding: 65661 -1 209
Width: 320
Flags: HW
AnchorPoint: "Tertiary_mkmk" 165.9 240 mark 0
LayerCount: 2
Fore
SplineSet
108.900390625 260 m 1
 258.900390625 260 l 1
 306.900390625 300 l 1
 288.900390625 210 l 1
 241.099609375 171 l 1
 256.900390625 250 l 1
 220.900390625 220 l 1
 60.900390625 220 l 1
 108.900390625 260 l 1
EndSplineSet
Ligature2: "TertiaryLigature subtable" ellipses.vert a adieresis scaron
LCarets2: 3 -47 -47 -47
EndChar

StartChar: ithk_aspect.TNS
Encoding: 65662 -1 210
Width: 320
Flags: HW
AnchorPoint: "Tertiary_mkmk" 174 242 mark 0
LayerCount: 2
Fore
SplineSet
229 222 m 2
 79 222 l 1
 69 172 l 1
 21 132 l 1
 33 192 l 1
 117 262 l 1
 277 262 l 1
 229 222 l 2
EndSplineSet
Ligature2: "TertiaryLigature subtable" ellipses.vert t adieresis a
LCarets2: 3 -39 -39 -39
EndChar

StartChar: ithk_aspect.TRD
Encoding: 65663 -1 211
Width: 320
Flags: HW
AnchorPoint: "Tertiary_mkmk" 168.8 242 mark 0
LayerCount: 2
Fore
SplineSet
32 273 m 2
 69.599609375 226 l 1
 112.799804688 262 l 1
 272.799804688 262 l 1
 224.799804688 222 l 1
 73.7998046875 222 l 1
 40 193 l 1
 -1.599609375 245 l 1
 32 273 l 2
EndSplineSet
Ligature2: "TertiaryLigature subtable" ellipses.vert p adieresis a
LCarets2: 3 -47 -47 -47
EndChar

StartChar: ithk_aspect.XPD
Encoding: 65664 -1 212
Width: 320
Flags: HW
AnchorPoint: "Tertiary_mkmk" 163.2 242 mark 0
LayerCount: 2
Fore
SplineSet
300 211 m 2
 262.400390625 258 l 1
 219.200195312 222 l 1
 59.2001953125 222 l 1
 107.200195312 262 l 1
 258.200195312 262 l 1
 292 291 l 1
 333.599609375 239 l 1
 300 211 l 2
EndSplineSet
Ligature2: "TertiaryLigature subtable" ellipses.vert a adieresis p
LCarets2: 3 -50 -50 -50
EndChar

StartChar: .notdef
Encoding: 65665 -1 213
Width: 320
Flags: HW
HStem: 0 40<100 220> 240 40<100 220> 260 20G<80 100>
VStem: 60 40<40 240> 220 40<40 240>
AnchorPoint: "Extension_down" 216 20 basechar 0
AnchorPoint: "Extension_up" 104 260 basechar 0
AnchorPoint: "Diacritic_up" 204 360 basechar 0
AnchorPoint: "Diacritic_down" 120 -60 basechar 0
AnchorPoint: "Diacritic_right" 300 140 basechar 0
AnchorPoint: "Diacritic_left" 20 140 basechar 0
LayerCount: 2
Fore
SplineSet
192 0 m 1xb8
 240 240 l 1
 80 240 l 1
 128 280 l 1xd8
 288 280 l 1
 240 40 l 1
 192 0 l 1xb8
128 280 m 1
 80 40 l 1
 240 40 l 1
 192 0 l 1
 32 0 l 1
 80 240 l 1
 128 280 l 1
EndSplineSet
EndChar

StartChar: glottal.ext.up
Encoding: 65667 -1 215
Width: 320
Flags: HW
AnchorPoint: "Extension_mkmk" 144 260 mark 0
LayerCount: 2
Fore
SplineSet
103 285 m 1
 124.799804688 274 131.799804688 259 123.400390625 242 c 1
 168 280 l 1
 160 240 l 1
 147.599609375 243 130.400390625 227 111 195 c 1
 118 230 l 1
 88 205 l 1
 84 210 l 1
 87.599609375 213 l 2
 116.599609375 238 109.400390625 252 67 255 c 1
 103 285 l 1
EndSplineSet
Substitution2: "Single Substitution lookup 29 subtable" glottal.ext.left
Substitution2: "Single Substitution lookup 28 subtable" glottal.ext.right
Substitution2: "Single Substitution lookup 27 subtable" glottal.ext.diagup
Substitution2: "Single Substitution lookup 23 subtable" glottal.ext.left
Substitution2: "Single Substitution lookup 22 subtable" glottal.ext.right
Substitution2: "Single Substitution lookup 21 subtable" glottal.ext.diagup
EndChar

StartChar: ncaron.ext.up
Encoding: 65668 -1 216
Width: 320
Flags: HW
AnchorPoint: "Extension_mkmk" 144 260 mark 0
LayerCount: 2
Fore
SplineSet
156 220 m 1
 141.400390625 227 126.200195312 221 112 200 c 1
 120 240 l 1
 70 240 l 1
 28 205 l 1
 24 210 l 1
 108 280 l 1
 168 280 l 1
 156 220 l 1
EndSplineSet
Substitution2: "Single Substitution lookup 29 subtable" ncaron.ext.left
Substitution2: "Single Substitution lookup 28 subtable" ncaron.ext.right
Substitution2: "Single Substitution lookup 27 subtable" ncaron.ext.diagup
Substitution2: "Single Substitution lookup 23 subtable" ncaron.ext.left
Substitution2: "Single Substitution lookup 22 subtable" ncaron.ext.right
Substitution2: "Single Substitution lookup 21 subtable" ncaron.ext.diagup
EndChar

StartChar: scaron.ext.up
Encoding: 65669 -1 217
Width: 320
Flags: HW
AnchorPoint: "Extension_mkmk" 140.9 260 mark 0
LayerCount: 2
Fore
SplineSet
152.900390625 220 m 1
 141.900390625 230 127.099609375 226 110.900390625 210 c 1
 115.099609375 231 l 1
 67.099609375 191 l 1
 84.900390625 280 l 1
 132.900390625 320 l 1
 116.900390625 240 l 1
 164.900390625 280 l 1
 152.900390625 220 l 1
EndSplineSet
Substitution2: "Single Substitution lookup 29 subtable" scaron.ext.left
Substitution2: "Single Substitution lookup 28 subtable" scaron.ext.right
Substitution2: "Single Substitution lookup 27 subtable" scaron.ext.diagup
Substitution2: "Single Substitution lookup 23 subtable" scaron.ext.left
Substitution2: "Single Substitution lookup 22 subtable" scaron.ext.right
Substitution2: "Single Substitution lookup 21 subtable" scaron.ext.diagup
EndChar

StartChar: ddotbelow.ext.up
Encoding: 65670 -1 218
Width: 320
Flags: HW
AnchorPoint: "Extension_mkmk" 141.7 260 mark 0
LayerCount: 2
Fore
SplineSet
249.099609375 277 m 1
 223.099609375 257 194.700195312 255 163.900390625 271 c 1
 153.099609375 217 l 1
 141.700195312 230 127.299804688 223 109.299804688 198 c 1
 117.700195312 240 l 1
 195.700195312 305 l 1
 202.5 284 220.700195312 275 249.099609375 277 c 1
EndSplineSet
Substitution2: "Single Substitution lookup 29 subtable" ddotbelow.ext.left
Substitution2: "Single Substitution lookup 28 subtable" ddotbelow.ext.right
Substitution2: "Single Substitution lookup 27 subtable" ddotbelow.ext.diagup
Substitution2: "Single Substitution lookup 23 subtable" ddotbelow.ext.left
Substitution2: "Single Substitution lookup 22 subtable" ddotbelow.ext.right
Substitution2: "Single Substitution lookup 21 subtable" ddotbelow.ext.diagup
EndChar

StartChar: tcedilla.ext.up
Encoding: 65671 -1 219
Width: 320
Flags: HW
AnchorPoint: "Extension_mkmk" 141.7 260 mark 0
LayerCount: 2
Fore
SplineSet
163.900390625 271 m 1
 153.099609375 217 l 1
 141.700195312 230 127.299804688 223 109.299804688 198 c 1
 117.700195312 240 l 1
 195.700195312 305 l 1
 223.900390625 296 237.700195312 280 235.700195312 255 c 0
 235.299804688 253 234.700195312 250 234.299804688 248 c 0
 233.900390625 246 233.900390625 246 233.5 244 c 1
 228.099609375 262 204.900390625 271 163.900390625 271 c 1
EndSplineSet
Substitution2: "Single Substitution lookup 29 subtable" tcedilla.ext.left
Substitution2: "Single Substitution lookup 28 subtable" tcedilla.ext.right
Substitution2: "Single Substitution lookup 27 subtable" tcedilla.ext.diagup
Substitution2: "Single Substitution lookup 23 subtable" tcedilla.ext.left
Substitution2: "Single Substitution lookup 22 subtable" tcedilla.ext.right
Substitution2: "Single Substitution lookup 21 subtable" tcedilla.ext.diagup
EndChar

StartChar: ccedilla.ext.up
Encoding: 65672 -1 220
Width: 320
Flags: HW
AnchorPoint: "Extension_mkmk" 139.7 260 mark 0
LayerCount: 2
Fore
SplineSet
269.099609375 282 m 1
 199.5 224 l 1
 161.700195312 270 l 1
 155.700195312 240 l 1
 147.900390625 251 133.5 244 111.700195312 220 c 1
 115.700195312 240 l 1
 191.299804688 303 l 1
 228.900390625 256 l 1
 264.900390625 286 l 1
 269.099609375 282 l 1
EndSplineSet
Substitution2: "Single Substitution lookup 29 subtable" ccedilla.ext.left
Substitution2: "Single Substitution lookup 28 subtable" ccedilla.ext.right
Substitution2: "Single Substitution lookup 27 subtable" ccedilla.ext.diagup
Substitution2: "Single Substitution lookup 23 subtable" ccedilla.ext.left
Substitution2: "Single Substitution lookup 22 subtable" ccedilla.ext.right
Substitution2: "Single Substitution lookup 21 subtable" ccedilla.ext.diagup
EndChar

StartChar: ccaron.ext.up
Encoding: 65673 -1 221
Width: 320
Flags: HW
AnchorPoint: "Extension_mkmk" 134.6 260 mark 0
LayerCount: 2
Fore
SplineSet
158.599609375 280 m 1
 158.599609375 280 l 1
 78.599609375 280 l 1
 126.599609375 320 l 1
 126.599609375 320 l 1
 168.400390625 354 l 1
 172.599609375 350 l 1
 136.599609375 320 l 1
 216.599609375 320 l 1
 156.599609375 270 l 1
 150.599609375 240 l 1
 138 242 122.599609375 235 106.599609375 220 c 1
 110.599609375 240 l 1
 158.599609375 280 l 1
 158.599609375 280 l 1
 158.599609375 280 l 1
EndSplineSet
Substitution2: "Single Substitution lookup 29 subtable" ccaron.ext.left
Substitution2: "Single Substitution lookup 28 subtable" ccaron.ext.right
Substitution2: "Single Substitution lookup 27 subtable" ccaron.ext.diagup
Substitution2: "Single Substitution lookup 23 subtable" ccaron.ext.left
Substitution2: "Single Substitution lookup 22 subtable" ccaron.ext.right
Substitution2: "Single Substitution lookup 21 subtable" ccaron.ext.diagup
EndChar

StartChar: lcedilla.ext.up
Encoding: 65674 -1 222
Width: 320
Flags: HW
AnchorPoint: "Extension_mkmk" 144 260 mark 0
LayerCount: 2
Fore
SplineSet
168 280 m 1
 248 280 l 1
 200 240 l 1
 160 240 l 1
 156 220 l 1
 140.400390625 227 125.200195312 221 112 200 c 1
 120 240 l 1
 168 280 l 1
EndSplineSet
Substitution2: "Single Substitution lookup 29 subtable" lcedilla.ext.left
Substitution2: "Single Substitution lookup 28 subtable" lcedilla.ext.right
Substitution2: "Single Substitution lookup 27 subtable" lcedilla.ext.diagup
Substitution2: "Single Substitution lookup 23 subtable" lcedilla.ext.left
Substitution2: "Single Substitution lookup 22 subtable" lcedilla.ext.right
Substitution2: "Single Substitution lookup 21 subtable" lcedilla.ext.diagup
EndChar

StartChar: zdotaccent.ext.up
Encoding: 65675 -1 223
Width: 320
Flags: HW
AnchorPoint: "Extension_mkmk" 147.5 260 mark 0
LayerCount: 2
Fore
SplineSet
-20.5 170 m 1
 63.5 240 l 1
 123.5 240 l 1
 171.5 280 l 1
 160.700195312 226 l 1
 147.900390625 232 132.900390625 227 117.5 210 c 1
 121.5 230 l 1
 85.5 200 l 1
 25.5 200 l 1
 -16.5 165 l 1
 -20.5 170 l 1
EndSplineSet
Substitution2: "Single Substitution lookup 29 subtable" zdotaccent.ext.left
Substitution2: "Single Substitution lookup 28 subtable" zdotaccent.ext.right
Substitution2: "Single Substitution lookup 27 subtable" zdotaccent.ext.diagup
Substitution2: "Single Substitution lookup 23 subtable" zdotaccent.ext.left
Substitution2: "Single Substitution lookup 22 subtable" zdotaccent.ext.right
Substitution2: "Single Substitution lookup 21 subtable" zdotaccent.ext.diagup
EndChar

StartChar: zcaron.ext.up
Encoding: 65676 -1 224
Width: 320
Flags: HW
AnchorPoint: "Extension_mkmk" 140.9 260 mark 0
LayerCount: 2
Fore
SplineSet
132.900390625 320 m 1
 116.900390625 240 l 1
 164.900390625 280 l 1
 152.900390625 220 l 1
 141.900390625 230 127.099609375 226 110.900390625 210 c 1
 115.099609375 231 l 1
 67.099609375 191 l 1
 82.900390625 270 l 1
 52.900390625 245 l 1
 48.900390625 250 l 1
 84.900390625 280 l 1
 84.900390625 280 l 1
 132.900390625 320 l 1
EndSplineSet
Substitution2: "Single Substitution lookup 29 subtable" zcaron.ext.left
Substitution2: "Single Substitution lookup 28 subtable" zcaron.ext.right
Substitution2: "Single Substitution lookup 27 subtable" zcaron.ext.diagup
Substitution2: "Single Substitution lookup 23 subtable" zcaron.ext.left
Substitution2: "Single Substitution lookup 22 subtable" zcaron.ext.right
Substitution2: "Single Substitution lookup 21 subtable" zcaron.ext.diagup
EndChar

StartChar: rcaron.ext.up
Encoding: 65677 -1 225
Width: 320
Flags: HW
AnchorPoint: "Extension_mkmk" 135 260 mark 0
LayerCount: 2
Fore
SplineSet
157 270 m 1
 148.200195312 226 l 1
 135.799804688 234 122.400390625 232 107 220 c 1
 111 240 l 1
 153 275 l 1
 115.200195312 276 95.2001953125 301 93 350 c 1
 115 315 148 300 193.200195312 301 c 1
 157 270 l 1
EndSplineSet
Substitution2: "Single Substitution lookup 29 subtable" rcaron.ext.left
Substitution2: "Single Substitution lookup 28 subtable" rcaron.ext.right
Substitution2: "Single Substitution lookup 27 subtable" rcaron.ext.diagup
Substitution2: "Single Substitution lookup 23 subtable" rcaron.ext.left
Substitution2: "Single Substitution lookup 22 subtable" rcaron.ext.right
Substitution2: "Single Substitution lookup 21 subtable" rcaron.ext.diagup
EndChar

StartChar: b.ext.up
Encoding: 65678 -1 226
Width: 320
Flags: HW
AnchorPoint: "Extension_mkmk" 144 260 mark 0
LayerCount: 2
Fore
SplineSet
120 240 m 1
 120 240 l 1
 168 280 l 1
 157.200195312 226 l 1
 144.400390625 232 129.400390625 227 114 210 c 1
 118 230 l 1
 82 200 l 1
 12 200 l 1
 60 240 l 1
 120 240 l 1
EndSplineSet
Substitution2: "Single Substitution lookup 29 subtable" b.ext.left
Substitution2: "Single Substitution lookup 28 subtable" b.ext.right
Substitution2: "Single Substitution lookup 27 subtable" b.ext.diagup
Substitution2: "Single Substitution lookup 23 subtable" b.ext.left
Substitution2: "Single Substitution lookup 22 subtable" b.ext.right
Substitution2: "Single Substitution lookup 21 subtable" b.ext.diagup
EndChar

StartChar: c.ext.up
Encoding: 65679 -1 227
Width: 320
Flags: HW
AnchorPoint: "Extension_mkmk" 144 260 mark 0
LayerCount: 2
Fore
SplineSet
118 230 m 1
 82 200 l 1
 12 200 l 1
 102 275 l 1
 106 270 l 1
 70 240 l 1
 120 240 l 1
 168 280 l 1
 157.200195312 226 l 1
 144.400390625 232 129.400390625 227 114 210 c 1
 118 230 l 1
EndSplineSet
Substitution2: "Single Substitution lookup 29 subtable" c.ext.left
Substitution2: "Single Substitution lookup 28 subtable" c.ext.right
Substitution2: "Single Substitution lookup 27 subtable" c.ext.diagup
Substitution2: "Single Substitution lookup 23 subtable" c.ext.left
Substitution2: "Single Substitution lookup 22 subtable" c.ext.right
Substitution2: "Single Substitution lookup 21 subtable" c.ext.diagup
EndChar

StartChar: equal.ext.up
Encoding: 65680 -1 228
Width: 320
Flags: HW
AnchorPoint: "Extension_mkmk" 138 260 mark 0
LayerCount: 2
Fore
SplineSet
162 280 m 1
 150 220 l 1
 135.400390625 227 120.200195312 221 106 200 c 1
 114 240 l 1
 54 240 l 1
 66 300 l 1
 114 340 l 1
 102 280 l 1
 162 280 l 1
EndSplineSet
Substitution2: "Single Substitution lookup 29 subtable" equal.ext.left
Substitution2: "Single Substitution lookup 28 subtable" equal.ext.right
Substitution2: "Single Substitution lookup 27 subtable" equal.ext.diagup
Substitution2: "Single Substitution lookup 23 subtable" equal.ext.left
Substitution2: "Single Substitution lookup 22 subtable" equal.ext.right
Substitution2: "Single Substitution lookup 21 subtable" equal.ext.diagup
EndChar

StartChar: d.ext.up
Encoding: 65681 -1 229
Width: 320
Flags: HW
AnchorPoint: "Extension_mkmk" 139.8 260 mark 0
LayerCount: 2
Fore
SplineSet
162 271 m 1
 162 271 l 1
 152.200195312 222 l 1
 141 226 126.400390625 223 110 211 c 1
 115.799804688 240 l 1
 201 311 l 1
 270 311 l 1
 222 271 l 1
 162 271 l 1
EndSplineSet
Substitution2: "Single Substitution lookup 29 subtable" d.ext.left
Substitution2: "Single Substitution lookup 28 subtable" d.ext.right
Substitution2: "Single Substitution lookup 27 subtable" d.ext.diagup
Substitution2: "Single Substitution lookup 23 subtable" d.ext.left
Substitution2: "Single Substitution lookup 22 subtable" d.ext.right
Substitution2: "Single Substitution lookup 21 subtable" d.ext.diagup
EndChar

StartChar: D.ext.up
Encoding: 65682 -1 230
Width: 320
Flags: HW
AnchorPoint: "Extension_mkmk" 139.8 260 mark 0
LayerCount: 2
Fore
SplineSet
162 271 m 1
 162 271 l 1
 152.200195312 222 l 1
 141 226 126.400390625 223 110 211 c 1
 115.799804688 240 l 1
 201 311 l 1
 290 311 l 1
 242 271 l 1
 206 241 l 1
 202 246 l 1
 232 271 l 1
 162 271 l 1
EndSplineSet
Substitution2: "Single Substitution lookup 29 subtable" D.ext.left
Substitution2: "Single Substitution lookup 28 subtable" D.ext.right
Substitution2: "Single Substitution lookup 27 subtable" D.ext.diagup
Substitution2: "Single Substitution lookup 23 subtable" D.ext.left
Substitution2: "Single Substitution lookup 22 subtable" D.ext.right
Substitution2: "Single Substitution lookup 21 subtable" D.ext.diagup
EndChar

StartChar: glottal.flip.ext.up
Encoding: 65683 -1 231
Width: 320
Flags: HW
AnchorPoint: "Extension_mkmk" 139.5 260 mark 0
LayerCount: 2
Fore
SplineSet
188.700195312 301 m 0
 189.900390625 302 l 0
 191.099609375 303 192.299804688 304 193.5 305 c 1
 197.5 300 l 1
 161.5 270 l 1
 154.299804688 234 l 1
 142.099609375 238 127.099609375 233 111.5 220 c 1
 115.5 240 l 1
 146.700195312 266 l 1
 122.299804688 249 100.5 250 81.5 270 c 1
 117.5 300 l 1
 132.5 275 156.5 275 188.700195312 301 c 0
EndSplineSet
Substitution2: "Single Substitution lookup 29 subtable" glottal.flip.ext.left
Substitution2: "Single Substitution lookup 28 subtable" glottal.flip.ext.right
Substitution2: "Single Substitution lookup 27 subtable" glottal.flip.ext.diagup
Substitution2: "Single Substitution lookup 23 subtable" glottal.flip.ext.left
Substitution2: "Single Substitution lookup 22 subtable" glottal.flip.ext.right
Substitution2: "Single Substitution lookup 21 subtable" glottal.flip.ext.diagup
EndChar

StartChar: approxequal.ext.up
Encoding: 65684 -1 232
Width: 320
Flags: HW
AnchorPoint: "Extension_mkmk" 133 260 mark 0
LayerCount: 2
Fore
SplineSet
217 380 m 1
 203.200195312 311 l 1
 155.200195312 271 l 1
 145 220 l 1
 134 230 119.200195312 226 103 210 c 1
 109 240 l 1
 157 280 l 1
 169 340 l 1
 217 380 l 1
EndSplineSet
Substitution2: "Single Substitution lookup 29 subtable" approxequal.ext.left
Substitution2: "Single Substitution lookup 28 subtable" approxequal.ext.right
Substitution2: "Single Substitution lookup 27 subtable" approxequal.ext.diagup
Substitution2: "Single Substitution lookup 23 subtable" approxequal.ext.left
Substitution2: "Single Substitution lookup 22 subtable" approxequal.ext.right
Substitution2: "Single Substitution lookup 21 subtable" approxequal.ext.diagup
EndChar

StartChar: f.ext.up
Encoding: 65685 -1 233
Width: 320
Flags: HW
AnchorPoint: "Extension_mkmk" 140.7 260 mark 0
LayerCount: 2
Fore
SplineSet
152.099609375 217 m 1
 140.700195312 230 126.299804688 223 108.299804688 198 c 1
 114.900390625 231 l 1
 84.7001953125 205 l 1
 60.7001953125 220 54.099609375 257 66.7001953125 315 c 1
 72.099609375 272 89.099609375 247 116.700195312 240 c 1
 164.700195312 280 l 1
 152.099609375 217 l 1
EndSplineSet
Substitution2: "Single Substitution lookup 29 subtable" f.ext.left
Substitution2: "Single Substitution lookup 28 subtable" f.ext.right
Substitution2: "Single Substitution lookup 27 subtable" f.ext.diagup
Substitution2: "Single Substitution lookup 23 subtable" f.ext.left
Substitution2: "Single Substitution lookup 22 subtable" f.ext.right
Substitution2: "Single Substitution lookup 21 subtable" f.ext.diagup
EndChar

StartChar: g.ext.up
Encoding: 65686 -1 234
Width: 320
Flags: HW
AnchorPoint: "Extension_mkmk" 134.5 260 mark 0
LayerCount: 2
Fore
SplineSet
120.900390625 327 m 1
 154.5 355 l 1
 196.299804688 304 l 1
 156.700195312 271 l 1
 150.5 240 l 1
 139.099609375 248 124.700195312 241 106.5 220 c 1
 110.5 240 l 1
 158.5 280 l 1
 120.900390625 327 l 1
EndSplineSet
Substitution2: "Single Substitution lookup 29 subtable" g.ext.left
Substitution2: "Single Substitution lookup 28 subtable" g.ext.right
Substitution2: "Single Substitution lookup 27 subtable" g.ext.diagup
Substitution2: "Single Substitution lookup 23 subtable" g.ext.left
Substitution2: "Single Substitution lookup 22 subtable" g.ext.right
Substitution2: "Single Substitution lookup 21 subtable" g.ext.diagup
EndChar

StartChar: G.ext.up
Encoding: 65687 -1 235
Width: 320
Flags: HW
AnchorPoint: "Extension_mkmk" 131.5 260 mark 0
LayerCount: 2
Fore
SplineSet
117.900390625 327 m 1
 187.5 385 l 1
 191.5 380 l 1
 155.5 350 l 1
 193.299804688 304 l 1
 153.700195312 271 l 1
 147.5 240 l 1
 136.099609375 248 121.700195312 241 103.5 220 c 1
 107.5 240 l 1
 155.5 280 l 1
 117.900390625 327 l 1
EndSplineSet
Substitution2: "Single Substitution lookup 29 subtable" G.ext.left
Substitution2: "Single Substitution lookup 28 subtable" G.ext.right
Substitution2: "Single Substitution lookup 27 subtable" G.ext.diagup
Substitution2: "Single Substitution lookup 23 subtable" G.ext.left
Substitution2: "Single Substitution lookup 22 subtable" G.ext.right
Substitution2: "Single Substitution lookup 21 subtable" G.ext.diagup
EndChar

StartChar: h.ext.up
Encoding: 65688 -1 236
Width: 320
Flags: HW
AnchorPoint: "Extension_mkmk" 136.3 260 mark 0
LayerCount: 2
Fore
SplineSet
112.299804688 240 m 1
 197.5 311 l 1
 257.5 311 l 1
 298.5 346 l 1
 302.5 341 l 1
 218.5 271 l 1
 158.5 271 l 1
 148.900390625 223 l 1
 135.5 231 121.700195312 227 106.5 211 c 1
 112.299804688 240 l 1
EndSplineSet
Substitution2: "Single Substitution lookup 29 subtable" h.ext.left
Substitution2: "Single Substitution lookup 28 subtable" h.ext.right
Substitution2: "Single Substitution lookup 27 subtable" h.ext.diagup
Substitution2: "Single Substitution lookup 23 subtable" h.ext.left
Substitution2: "Single Substitution lookup 22 subtable" h.ext.right
Substitution2: "Single Substitution lookup 21 subtable" h.ext.diagup
EndChar

StartChar: j.ext.up
Encoding: 65689 -1 237
Width: 320
Flags: HW
AnchorPoint: "Extension_mkmk" 138 260 mark 0
LayerCount: 2
Fore
SplineSet
162 280 m 1
 162 280 l 1
 91 280 l 1
 50 245 l 1
 46 250 l 1
 130 320 l 1
 220 320 l 1
 160 270 l 1
 154 240 l 1
 141.400390625 242 126 235 110 220 c 1
 114 240 l 1
 162 280 l 1
 162 280 l 1
 162 280 l 1
EndSplineSet
Substitution2: "Single Substitution lookup 29 subtable" j.ext.left
Substitution2: "Single Substitution lookup 28 subtable" j.ext.right
Substitution2: "Single Substitution lookup 27 subtable" j.ext.diagup
Substitution2: "Single Substitution lookup 23 subtable" j.ext.left
Substitution2: "Single Substitution lookup 22 subtable" j.ext.right
Substitution2: "Single Substitution lookup 21 subtable" j.ext.diagup
EndChar

StartChar: k.ext.up
Encoding: 65690 -1 238
Width: 320
Flags: HW
AnchorPoint: "Extension_mkmk" 138 260 mark 0
LayerCount: 2
Fore
SplineSet
220 320 m 1
 220 320 l 1
 160 270 l 1
 154 240 l 1
 141.400390625 242 126 235 110 220 c 1
 114 240 l 1
 162 280 l 1
 162 280 l 1
 162 280 l 1
 162 280 l 1
 82 280 l 1
 130 320 l 1
 220 320 l 1
EndSplineSet
Substitution2: "Single Substitution lookup 29 subtable" k.ext.left
Substitution2: "Single Substitution lookup 28 subtable" k.ext.right
Substitution2: "Single Substitution lookup 27 subtable" k.ext.diagup
Substitution2: "Single Substitution lookup 23 subtable" k.ext.left
Substitution2: "Single Substitution lookup 22 subtable" k.ext.right
Substitution2: "Single Substitution lookup 21 subtable" k.ext.diagup
EndChar

StartChar: l.ext.up
Encoding: 65691 -1 239
Width: 320
Flags: HW
AnchorPoint: "Extension_mkmk" 132.486 260 mark 0
LayerCount: 2
Fore
SplineSet
172.486328125 360 m 1
 156.486328125 280 l 2
 141.486328125 240 124.885742188 227 108.486328125 240 c 1
 124.486328125 320 l 1
 172.486328125 360 l 1
EndSplineSet
Substitution2: "Single Substitution lookup 29 subtable" l.ext.left
Substitution2: "Single Substitution lookup 28 subtable" l.ext.right
Substitution2: "Single Substitution lookup 27 subtable" l.ext.diagup
Substitution2: "Single Substitution lookup 23 subtable" l.ext.left
Substitution2: "Single Substitution lookup 22 subtable" l.ext.right
Substitution2: "Single Substitution lookup 21 subtable" l.ext.diagup
EndChar

StartChar: m.ext.up
Encoding: 65692 -1 240
Width: 320
Flags: HW
AnchorPoint: "Extension_mkmk" 144 260 mark 0
LayerCount: 2
Fore
SplineSet
156 220 m 1
 141.400390625 227 126.200195312 221 112 200 c 1
 120 240 l 1
 60 240 l 1
 108 280 l 1
 168 280 l 1
 156 220 l 1
EndSplineSet
Substitution2: "Single Substitution lookup 29 subtable" m.ext.left
Substitution2: "Single Substitution lookup 28 subtable" m.ext.right
Substitution2: "Single Substitution lookup 27 subtable" m.ext.diagup
Substitution2: "Single Substitution lookup 23 subtable" m.ext.left
Substitution2: "Single Substitution lookup 22 subtable" m.ext.right
Substitution2: "Single Substitution lookup 21 subtable" m.ext.diagup
EndChar

StartChar: n.ext.up
Encoding: 65693 -1 241
Width: 320
Flags: HW
AnchorPoint: "Extension_mkmk" 140.5 260 mark 0
LayerCount: 2
Fore
SplineSet
152.5 220 m 1
 137.900390625 227 122.700195312 221 108.5 200 c 1
 116.5 240 l 1
 56.5 240 l 1
 146.5 315 l 1
 150.5 310 l 1
 114.5 280 l 1
 164.5 280 l 1
 152.5 220 l 1
EndSplineSet
Substitution2: "Single Substitution lookup 29 subtable" n.ext.left
Substitution2: "Single Substitution lookup 28 subtable" n.ext.right
Substitution2: "Single Substitution lookup 27 subtable" n.ext.diagup
Substitution2: "Single Substitution lookup 23 subtable" n.ext.left
Substitution2: "Single Substitution lookup 22 subtable" n.ext.right
Substitution2: "Single Substitution lookup 21 subtable" n.ext.diagup
EndChar

StartChar: p.ext.up
Encoding: 65694 -1 242
Width: 320
Flags: HW
AnchorPoint: "Extension_mkmk" 143.3 260 mark 0
LayerCount: 2
Fore
SplineSet
118.700195312 232 m 0
 117.5 231 117.299804688 230 117.299804688 230 c 2
 89.7001953125 207 l 1
 52.5 251 l 1
 87.2998046875 280 l 1
 119.299804688 240 l 1
 167.299804688 280 l 1
 155.5 221 l 1
 152.099609375 234 142.099609375 239 124.5 236 c 0
 122.099609375 234 119.900390625 233 118.700195312 232 c 0
EndSplineSet
Substitution2: "Single Substitution lookup 29 subtable" p.ext.left
Substitution2: "Single Substitution lookup 28 subtable" p.ext.right
Substitution2: "Single Substitution lookup 27 subtable" p.ext.diagup
Substitution2: "Single Substitution lookup 23 subtable" p.ext.left
Substitution2: "Single Substitution lookup 22 subtable" p.ext.right
Substitution2: "Single Substitution lookup 21 subtable" p.ext.diagup
EndChar

StartChar: P.ext.up
Encoding: 65695 -1 243
Width: 320
Flags: HW
AnchorPoint: "Extension_mkmk" 140.3 260 mark 0
LayerCount: 2
Fore
SplineSet
115.700195312 232 m 0
 114.5 231 114.299804688 230 114.299804688 230 c 2
 86.7001953125 207 l 1
 49.5 251 l 1
 84.2998046875 280 l 1
 120.299804688 310 l 1
 124.299804688 305 l 1
 88.2998046875 275 l 1
 116.299804688 240 l 1
 164.299804688 280 l 1
 152.5 221 l 1
 149.099609375 234 139.099609375 239 121.5 236 c 0
 119.099609375 234 116.900390625 233 115.700195312 232 c 0
EndSplineSet
Substitution2: "Single Substitution lookup 29 subtable" P.ext.left
Substitution2: "Single Substitution lookup 28 subtable" P.ext.right
Substitution2: "Single Substitution lookup 27 subtable" P.ext.diagup
Substitution2: "Single Substitution lookup 23 subtable" P.ext.left
Substitution2: "Single Substitution lookup 22 subtable" P.ext.right
Substitution2: "Single Substitution lookup 21 subtable" P.ext.diagup
EndChar

StartChar: r.upsidedown.ext.up
Encoding: 65696 -1 244
Width: 320
Flags: HW
AnchorPoint: "Extension_mkmk" 129.986 260 mark 0
LayerCount: 2
Fore
SplineSet
121.986328125 320 m 1
 199.986328125 385 l 1
 203.986328125 380 l 1
 167.986328125 350 l 1
 153.986328125 280 l 2
 138.986328125 240 122.385742188 227 105.986328125 240 c 1
 121.986328125 320 l 1
EndSplineSet
Substitution2: "Single Substitution lookup 29 subtable" r.upsidedown.ext.left
Substitution2: "Single Substitution lookup 28 subtable" r.upsidedown.ext.right
Substitution2: "Single Substitution lookup 27 subtable" r.upsidedown.ext.diagup
Substitution2: "Single Substitution lookup 23 subtable" r.upsidedown.ext.left
Substitution2: "Single Substitution lookup 22 subtable" r.upsidedown.ext.right
Substitution2: "Single Substitution lookup 21 subtable" r.upsidedown.ext.diagup
EndChar

StartChar: r.ext.up
Encoding: 65697 -1 245
Width: 320
Flags: HW
AnchorPoint: "Extension_mkmk" 132.486 260 mark 0
LayerCount: 2
Fore
SplineSet
122.486328125 310 m 1
 92.486328125 285 l 1
 88.486328125 290 l 1
 172.486328125 360 l 1
 156.486328125 280 l 2
 141.486328125 240 124.885742188 227 108.486328125 240 c 1
 122.486328125 310 l 1
EndSplineSet
Substitution2: "Single Substitution lookup 29 subtable" r.ext.left
Substitution2: "Single Substitution lookup 28 subtable" r.ext.right
Substitution2: "Single Substitution lookup 27 subtable" r.ext.diagup
Substitution2: "Single Substitution lookup 23 subtable" r.ext.left
Substitution2: "Single Substitution lookup 22 subtable" r.ext.right
Substitution2: "Single Substitution lookup 21 subtable" r.ext.diagup
EndChar

StartChar: s.ext.up
Encoding: 65698 -1 246
Width: 320
Flags: HW
AnchorPoint: "Extension_mkmk" 144.5 260 mark 0
LayerCount: 2
Fore
SplineSet
111.5 195 m 1
 118.5 230 l 1
 88.5 205 l 1
 84.5 210 l 1
 168.5 280 l 1
 160.5 240 l 1
 148.099609375 243 130.900390625 227 111.5 195 c 1
EndSplineSet
Substitution2: "Single Substitution lookup 29 subtable" s.ext.left
Substitution2: "Single Substitution lookup 28 subtable" s.ext.right
Substitution2: "Single Substitution lookup 27 subtable" s.ext.diagup
Substitution2: "Single Substitution lookup 23 subtable" s.ext.left
Substitution2: "Single Substitution lookup 22 subtable" s.ext.right
Substitution2: "Single Substitution lookup 21 subtable" s.ext.diagup
EndChar

StartChar: t.ext.up
Encoding: 65699 -1 247
Width: 320
Flags: HW
AnchorPoint: "Extension_mkmk" 139.7 260 mark 0
LayerCount: 2
Fore
SplineSet
115.700195312 240 m 1
 191.299804688 303 l 1
 233.099609375 252 l 1
 199.5 224 l 1
 161.700195312 270 l 1
 155.700195312 240 l 1
 147.900390625 251 133.5 244 111.700195312 220 c 1
 115.700195312 240 l 1
EndSplineSet
Substitution2: "Single Substitution lookup 29 subtable" t.ext.left
Substitution2: "Single Substitution lookup 28 subtable" t.ext.right
Substitution2: "Single Substitution lookup 27 subtable" t.ext.diagup
Substitution2: "Single Substitution lookup 23 subtable" t.ext.left
Substitution2: "Single Substitution lookup 22 subtable" t.ext.right
Substitution2: "Single Substitution lookup 21 subtable" t.ext.diagup
EndChar

StartChar: v.ext.up
Encoding: 65700 -1 248
Width: 320
Flags: HW
AnchorPoint: "Extension_mkmk" 143.84 260 mark 0
LayerCount: 2
Fore
SplineSet
155.240234375 217 m 1
 143.83984375 230 129.440429688 223 111.440429688 198 c 1
 118.040039062 231 l 1
 87.83984375 205 l 1
 90.240234375 252 74.4404296875 273 40.240234375 267 c 1
 77.0400390625 296 104.240234375 287 119.83984375 240 c 1
 167.83984375 280 l 1
 155.240234375 217 l 1
EndSplineSet
Substitution2: "Single Substitution lookup 29 subtable" v.ext.left
Substitution2: "Single Substitution lookup 28 subtable" v.ext.right
Substitution2: "Single Substitution lookup 27 subtable" v.ext.diagup
Substitution2: "Single Substitution lookup 23 subtable" v.ext.left
Substitution2: "Single Substitution lookup 22 subtable" v.ext.right
Substitution2: "Single Substitution lookup 21 subtable" v.ext.diagup
EndChar

StartChar: velar.ext.up
Encoding: 65701 -1 249
Width: 320
Flags: HW
AnchorPoint: "Extension_mkmk" 143 260 mark 0
LayerCount: 2
Fore
SplineSet
122.599609375 243 m 2
 122.599609375 243 l 1
 167 280 l 1
 156.599609375 228 l 1
 113 210 l 1
 117.200195312 231 l 1
 103 220 90 215 78.7998046875 214 c 0
 64.599609375 213 53 220 42.7998046875 234 c 1
 78.7998046875 264 l 1
 82.7998046875 254 88.2001953125 246 97.400390625 242 c 0
 106.599609375 238 114.599609375 238 122.599609375 243 c 2
EndSplineSet
Substitution2: "Single Substitution lookup 29 subtable" velar.ext.left
Substitution2: "Single Substitution lookup 28 subtable" velar.ext.right
Substitution2: "Single Substitution lookup 27 subtable" velar.ext.diagup
Substitution2: "Single Substitution lookup 23 subtable" velar.ext.left
Substitution2: "Single Substitution lookup 22 subtable" velar.ext.right
Substitution2: "Single Substitution lookup 21 subtable" velar.ext.diagup
EndChar

StartChar: w.ext.up
Encoding: 65702 -1 250
Width: 320
Flags: HW
AnchorPoint: "Extension_mkmk" 138.3 260 mark 0
LayerCount: 2
Fore
SplineSet
160.5 346 m 1
 164.5 341 l 1
 128.5 311 l 1
 114.299804688 240 l 1
 162.299804688 280 l 1
 150.299804688 220 l 1
 139.299804688 230 124.5 226 108.299804688 210 c 1
 112.5 231 l 1
 64.5 191 l 1
 82.2998046875 280 l 1
 160.5 346 l 1
EndSplineSet
Substitution2: "Single Substitution lookup 29 subtable" w.ext.left
Substitution2: "Single Substitution lookup 28 subtable" w.ext.right
Substitution2: "Single Substitution lookup 27 subtable" w.ext.diagup
Substitution2: "Single Substitution lookup 23 subtable" w.ext.left
Substitution2: "Single Substitution lookup 22 subtable" w.ext.right
Substitution2: "Single Substitution lookup 21 subtable" w.ext.diagup
EndChar

StartChar: x.ext.up
Encoding: 65703 -1 251
Width: 320
Flags: HW
AnchorPoint: "Extension_mkmk" 138.697 260 mark 0
LayerCount: 2
Fore
SplineSet
80.8974609375 271 m 1
 115.498046875 314 154.498046875 324 196.897460938 301 c 1
 160.697265625 270 l 1
 151.897460938 226 l 1
 139.498046875 234 126.09765625 232 110.697265625 220 c 1
 114.697265625 240 l 1
 156.697265625 275 l 1
 140.897460938 291 115.698242188 290 80.8974609375 271 c 1
EndSplineSet
Substitution2: "Single Substitution lookup 29 subtable" x.ext.left
Substitution2: "Single Substitution lookup 28 subtable" x.ext.right
Substitution2: "Single Substitution lookup 27 subtable" x.ext.diagup
Substitution2: "Single Substitution lookup 23 subtable" x.ext.left
Substitution2: "Single Substitution lookup 22 subtable" x.ext.right
Substitution2: "Single Substitution lookup 21 subtable" x.ext.diagup
EndChar

StartChar: y.ext.up
Encoding: 65704 -1 252
Width: 320
Flags: HW
AnchorPoint: "Extension_mkmk" 140 260 mark 0
LayerCount: 2
Fore
SplineSet
44 280 m 1
 92 320 l 1
 162 320 l 1
 114 280 l 1
 164 280 l 1
 152 220 l 1
 137.400390625 227 122.200195312 221 108 200 c 1
 116 240 l 1
 56 240 l 1
 104 280 l 1
 44 280 l 1
EndSplineSet
Substitution2: "Single Substitution lookup 29 subtable" y.ext.left
Substitution2: "Single Substitution lookup 28 subtable" y.ext.right
Substitution2: "Single Substitution lookup 27 subtable" y.ext.diagup
Substitution2: "Single Substitution lookup 23 subtable" y.ext.left
Substitution2: "Single Substitution lookup 22 subtable" y.ext.right
Substitution2: "Single Substitution lookup 21 subtable" y.ext.diagup
EndChar

StartChar: z.ext.up
Encoding: 65705 -1 253
Width: 320
Flags: HW
AnchorPoint: "Extension_mkmk" 140.6 260 mark 0
LayerCount: 2
Fore
SplineSet
198.599609375 300 m 1
 162.599609375 270 l 1
 155.599609375 235 l 1
 144.200195312 243 128.400390625 234 110.400390625 209 c 1
 116.599609375 240 l 1
 194.599609375 305 l 1
 198.599609375 300 l 1
EndSplineSet
Substitution2: "Single Substitution lookup 29 subtable" z.ext.left
Substitution2: "Single Substitution lookup 28 subtable" z.ext.right
Substitution2: "Single Substitution lookup 27 subtable" z.ext.diagup
Substitution2: "Single Substitution lookup 23 subtable" z.ext.left
Substitution2: "Single Substitution lookup 22 subtable" z.ext.right
Substitution2: "Single Substitution lookup 21 subtable" z.ext.diagup
EndChar

StartChar: glottal.ext.diagup
Encoding: 65707 -1 255
Width: 320
Flags: HW
AnchorPoint: "Extension_mkmk" 140.1 260 mark 0
LayerCount: 2
Fore
SplineSet
136.5 257 m 1
 164.099609375 280 l 1
 173.900390625 249 163.5 237 132.099609375 245 c 1
 102.099609375 220 l 1
 98.099609375 225 l 1
 101.700195312 228 l 2
 130.700195312 253 123.299804688 266 80.900390625 269 c 1
 116.900390625 299 l 1
 138.700195312 288 144.900390625 274 136.5 257 c 1
EndSplineSet
EndChar

StartChar: ncaron.ext.diagup
Encoding: 65708 -1 256
Width: 320
Flags: HW
AnchorPoint: "Extension_mkmk" 143.5 260 mark 0
LayerCount: 2
Fore
SplineSet
169.5 240 m 0
 165.900390625 232 156.900390625 232 139.5 240 c 2
 69.5 240 l 1
 27.5 205 l 1
 23.5 210 l 1
 107.5 280 l 1
 167.5 280 l 1
 174.700195312 261 174.900390625 247 169.5 240 c 0
EndSplineSet
EndChar

StartChar: scaron.ext.diagup
Encoding: 65709 -1 257
Width: 320
Flags: HW
AnchorPoint: "Extension_mkmk" 138 260 mark 0
LayerCount: 2
Fore
SplineSet
130 245 m 2
 82 205 l 1
 99.7998046875 294 l 1
 148 335 l 1
 132 255 l 1
 162 280 l 1
 161.400390625 267 159.799804688 259 157.200195312 256 c 0
 149.400390625 247 140.599609375 243 130 245 c 2
EndSplineSet
EndChar

StartChar: ddotbelow.ext.diagup
Encoding: 65710 -1 258
Width: 320
Flags: HW
AnchorPoint: "Extension_mkmk" 136.3 260 mark 0
LayerCount: 2
Fore
SplineSet
159.299804688 250 m 0
 147.5 246 135.5 246 124.299804688 250 c 1
 196.299804688 310 l 1
 215.900390625 278 238.299804688 275 263.299804688 300 c 1
 243.099609375 259 210.5 251 164.299804688 275 c 2
 160.700195312 277 l 1
 165.299804688 270 165.5 261 159.299804688 250 c 0
EndSplineSet
EndChar

StartChar: tcedilla.ext.diagup
Encoding: 65711 -1 259
Width: 320
Flags: HW
AnchorPoint: "Extension_mkmk" 136.675 260 mark 0
LayerCount: 2
Fore
SplineSet
124.674804688 250 m 1
 196.674804688 310 l 1
 255.275390625 308 264.275390625 288 223.674804688 250 c 1
 240.674804688 275 220.474609375 284 163.674804688 275 c 2
 158.674804688 275 l 1
 160.474609375 264 160.674804688 255 158.674804688 250 c 0
 153.875 241 142.875 241 124.674804688 250 c 1
EndSplineSet
EndChar

StartChar: ccedilla.ext.diagup
Encoding: 65712 -1 260
Width: 320
Flags: HW
AnchorPoint: "Extension_mkmk" 131.908 260 mark 0
LayerCount: 2
Fore
SplineSet
303.908203125 345 m 1
 219.908203125 275 l 1
 159.908203125 275 l 1
 155.5078125 258 145.908203125 250 131.108398438 251 c 1
 141.30859375 262 149.108398438 271 155.908203125 280 c 2
 197.908203125 315 l 1
 257.908203125 315 l 1
 299.908203125 350 l 1
 303.908203125 345 l 1
EndSplineSet
EndChar

StartChar: ccaron.ext.diagup
Encoding: 65713 -1 261
Width: 320
Flags: HW
AnchorPoint: "Extension_mkmk" 131.762 260 mark 0
LayerCount: 2
Fore
SplineSet
122.561523438 319 m 1
 122.561523438 319 l 1
 164.361328125 353 l 1
 167.361328125 348 l 1
 132.561523438 319 l 1
 211.561523438 319 l 1
 158.561523438 274 l 1
 159.76171875 255 147.161132812 247 119.76171875 250 c 1
 153.361328125 278 l 1
 74.361328125 278 l 1
 122.561523438 319 l 1
EndSplineSet
EndChar

StartChar: lcedilla.ext.diagup
Encoding: 65714 -1 262
Width: 320
Flags: HW
AnchorPoint: "Extension_mkmk" 136.977 260 mark 0
LayerCount: 2
Fore
SplineSet
184.9765625 300 m 1
 264.9765625 300 l 1
 216.9765625 260 l 1
 166.9765625 260 l 1
 144.376953125 242 142.776367188 249 160.9765625 280 c 1
 184.9765625 300 l 1
EndSplineSet
EndChar

StartChar: zdotaccent.ext.diagup
Encoding: 65715 -1 263
Width: 320
Flags: HW
AnchorPoint: "Extension_mkmk" 147.5 260 mark 0
LayerCount: 2
Fore
SplineSet
135.5 250 m 1
 159.5 270 l 1
 164.099609375 253 157.299804688 244 139.5 245 c 1
 97.5 210 l 1
 36.5 210 l 1
 -4.5 175 l 1
 -8.5 180 l 1
 75.5 250 l 1
 135.5 250 l 1
EndSplineSet
EndChar

StartChar: zcaron.ext.diagup
Encoding: 65716 -1 264
Width: 320
Flags: HW
AnchorPoint: "Extension_mkmk" 138 260 mark 0
LayerCount: 2
Fore
SplineSet
157.200195312 256 m 0
 149.400390625 247 140.599609375 243 130 245 c 2
 82 205 l 1
 98 285 l 1
 68 260 l 1
 64 265 l 1
 148 335 l 1
 132 255 l 1
 162 280 l 1
 161.400390625 267 159.799804688 259 157.200195312 256 c 0
EndSplineSet
EndChar

StartChar: rcaron.ext.diagup
Encoding: 65717 -1 265
Width: 320
Flags: HW
AnchorPoint: "Extension_mkmk" 131.57 260 mark 0
LayerCount: 2
Fore
SplineSet
155.5703125 280 m 1
 117.770507812 281 97.7705078125 306 95.5703125 355 c 1
 117.5703125 320 150.370117188 304 195.5703125 305 c 1
 159.5703125 275 l 2
 160.5703125 270 158.169921875 263 153.5703125 255 c 0
 142.169921875 248 132.169921875 248 121.969726562 252 c 1
 155.5703125 280 l 1
EndSplineSet
EndChar

StartChar: b.ext.diagup
Encoding: 65718 -1 266
Width: 320
Flags: HW
AnchorPoint: "Extension_mkmk" 144 260 mark 0
LayerCount: 2
Fore
SplineSet
132 250 m 1
 156 270 l 1
 160.599609375 253 153.799804688 244 136 245 c 1
 94 210 l 1
 24 210 l 1
 72 250 l 1
 132 250 l 1
EndSplineSet
EndChar

StartChar: c.ext.diagup
Encoding: 65719 -1 267
Width: 320
Flags: HW
AnchorPoint: "Extension_mkmk" 142.5 260 mark 0
LayerCount: 2
Fore
SplineSet
130.5 250 m 1
 154.5 270 l 1
 159.099609375 253 152.299804688 244 134.5 245 c 1
 92.5 210 l 1
 22.5 210 l 1
 112.5 285 l 1
 115.5 280 l 1
 79.5 250 l 1
 130.5 250 l 1
EndSplineSet
EndChar

StartChar: equal.ext.diagup
Encoding: 65720 -1 268
Width: 320
Flags: HW
AnchorPoint: "Extension_mkmk" 134.6 260 mark 0
LayerCount: 2
Fore
SplineSet
70.599609375 240 m 1
 82.599609375 300 l 1
 130.599609375 340 l 1
 118.599609375 280 l 1
 158.599609375 280 l 1
 165.799804688 261 166 247 160.599609375 240 c 0
 157 232 148 232 130.599609375 240 c 2
 70.599609375 240 l 1
EndSplineSet
EndChar

StartChar: d.ext.diagup
Encoding: 65721 -1 269
Width: 320
Flags: HW
AnchorPoint: "Extension_mkmk" 135.408 260 mark 0
LayerCount: 2
Fore
SplineSet
163.408203125 275 m 1
 159.008789062 258 149.408203125 250 134.608398438 251 c 1
 144.80859375 262 152.608398438 271 159.408203125 280 c 2
 201.408203125 315 l 1
 271.408203125 315 l 1
 223.408203125 275 l 1
 163.408203125 275 l 1
EndSplineSet
EndChar

StartChar: D.ext.diagup
Encoding: 65722 -1 270
Width: 320
Flags: HW
AnchorPoint: "Extension_mkmk" 136 260 mark 0
LayerCount: 2
Fore
SplineSet
164 275 m 1
 159.599609375 258 150 250 135.200195312 251 c 1
 145.400390625 262 153.200195312 271 160 280 c 2
 202 315 l 1
 291 315 l 1
 243 275 l 1
 207 245 l 1
 204 250 l 1
 234 275 l 1
 164 275 l 1
EndSplineSet
EndChar

StartChar: glottal.flip.ext.diagup
Encoding: 65723 -1 271
Width: 320
Flags: HW
AnchorPoint: "Extension_mkmk" 136.537 260 mark 0
LayerCount: 2
Fore
SplineSet
120.537109375 305 m 1
 135.537109375 280 159.537109375 280 191.737304688 306 c 0
 192.9375 307 l 0
 194.137695312 308 195.336914062 309 196.537109375 310 c 1
 200.537109375 305 l 1
 164.537109375 275 l 1
 169.737304688 246 157.137695312 238 124.537109375 250 c 1
 149.737304688 271 l 1
 125.336914062 254 103.537109375 255 84.537109375 275 c 1
 120.537109375 305 l 1
EndSplineSet
EndChar

StartChar: approxequal.ext.diagup
Encoding: 65724 -1 272
Width: 320
Flags: HW
AnchorPoint: "Extension_mkmk" 129.601 260 mark 0
LayerCount: 2
Fore
SplineSet
153.600585938 280 m 1
 165.600585938 340 l 1
 213.600585938 380 l 1
 199.80078125 311 l 1
 157.600585938 275 l 1
 158.600585938 245 146.000976562 237 117.600585938 250 c 1
 153.600585938 280 l 1
EndSplineSet
EndChar

StartChar: f.ext.diagup
Encoding: 65725 -1 273
Width: 320
Flags: HW
AnchorPoint: "Extension_mkmk" 138 260 mark 0
LayerCount: 2
Fore
SplineSet
76 325 m 1
 81.400390625 282 98.400390625 257 126 250 c 1
 156 275 l 1
 161 250 153.200195312 241 133.799804688 249 c 1
 124.200195312 241 l 1
 94 215 l 1
 70 230 63.400390625 267 76 325 c 1
EndSplineSet
EndChar

StartChar: g.ext.diagup
Encoding: 65726 -1 274
Width: 320
Flags: HW
AnchorPoint: "Extension_mkmk" 130.778 260 mark 0
LayerCount: 2
Fore
SplineSet
117.178710938 327 m 1
 150.779296875 355 l 1
 192.579101562 304 l 1
 158.778320312 275 l 1
 159.178710938 262 l 2
 159.978515625 256 149.978515625 256 130.778320312 260 c 1
 154.778320312 280 l 1
 117.178710938 327 l 1
EndSplineSet
EndChar

StartChar: G.ext.diagup
Encoding: 65727 -1 275
Width: 320
Flags: HW
AnchorPoint: "Extension_mkmk" 127.778 260 mark 0
LayerCount: 2
Fore
SplineSet
114.178710938 327 m 1
 183.779296875 385 l 1
 187.779296875 380 l 1
 151.779296875 350 l 1
 189.579101562 304 l 1
 155.778320312 275 l 1
 156.178710938 262 l 2
 156.978515625 256 146.978515625 256 127.778320312 260 c 1
 151.778320312 280 l 1
 114.178710938 327 l 1
EndSplineSet
EndChar

StartChar: h.ext.diagup
Encoding: 65728 -1 276
Width: 320
Flags: HW
AnchorPoint: "Extension_mkmk" 127.101 260 mark 0
LayerCount: 2
Fore
SplineSet
245.30078125 401 m 1
 209.30078125 371 l 1
 197.30078125 311 l 1
 155.100585938 275 l 1
 156.100585938 245 143.500976562 237 115.100585938 250 c 1
 151.100585938 280 l 1
 163.100585938 340 l 1
 241.100585938 405 l 1
 245.30078125 401 l 1
EndSplineSet
EndChar

StartChar: j.ext.diagup
Encoding: 65729 -1 277
Width: 320
Flags: HW
AnchorPoint: "Extension_mkmk" 135.7 260 mark 0
LayerCount: 2
Fore
SplineSet
87.2998046875 278 m 1
 46.5 244 l 1
 42.5 249 l 1
 126.5 319 l 1
 215.5 319 l 1
 162.5 274 l 1
 163.700195312 255 151.099609375 247 123.700195312 250 c 1
 157.299804688 278 l 1
 87.2998046875 278 l 1
EndSplineSet
EndChar

StartChar: k.ext.diagup
Encoding: 65730 -1 278
Width: 320
Flags: HW
AnchorPoint: "Extension_mkmk" 135.161 260 mark 0
LayerCount: 2
Fore
SplineSet
161.9609375 274 m 1
 163.161132812 255 150.561523438 247 123.161132812 250 c 1
 156.76171875 278 l 1
 77.76171875 278 l 1
 125.9609375 319 l 1
 214.9609375 319 l 1
 161.9609375 274 l 1
EndSplineSet
EndChar

StartChar: l.ext.diagup
Encoding: 65731 -1 279
Width: 320
Flags: HW
AnchorPoint: "Extension_mkmk" 133 260 mark 0
LayerCount: 2
Fore
SplineSet
109 340 m 1
 157 280 l 1
 151.200195312 261 139.200195312 251 121 250 c 1
 73 310 l 1
 109 340 l 1
EndSplineSet
EndChar

StartChar: m.ext.diagup
Encoding: 65732 -1 280
Width: 320
Flags: HW
AnchorPoint: "Extension_mkmk" 140.6 260 mark 0
LayerCount: 2
Fore
SplineSet
166.599609375 240 m 0
 163 232 154 232 136.599609375 240 c 2
 56.599609375 240 l 1
 104.599609375 280 l 1
 164.599609375 280 l 1
 171.799804688 261 172 247 166.599609375 240 c 0
EndSplineSet
EndChar

StartChar: n.ext.diagup
Encoding: 65733 -1 281
Width: 320
Flags: HW
AnchorPoint: "Extension_mkmk" 137.1 260 mark 0
LayerCount: 2
Fore
SplineSet
163.099609375 240 m 0
 159.5 232 150.5 232 133.099609375 240 c 2
 53.099609375 240 l 1
 143.099609375 315 l 1
 147.099609375 310 l 1
 111.099609375 280 l 1
 161.099609375 280 l 1
 168.299804688 261 168.5 247 163.099609375 240 c 0
EndSplineSet
EndChar

StartChar: p.ext.diagup
Encoding: 65734 -1 282
Width: 320
Flags: HW
AnchorPoint: "Extension_mkmk" 141.3 260 mark 0
LayerCount: 2
Fore
SplineSet
153.299804688 270 m 1
 158.099609375 274 l 1
 157.5 261 155.700195312 252 153.099609375 249 c 0
 150.099609375 244 145.099609375 244 138.099609375 249 c 2
 133.299804688 245 l 1
 99.7001953125 217 l 1
 62.5 261 l 1
 97.2998046875 290 l 1
 129.299804688 250 l 1
 153.299804688 270 l 1
EndSplineSet
EndChar

StartChar: P.ext.diagup
Encoding: 65735 -1 283
Width: 320
Flags: HW
AnchorPoint: "Extension_mkmk" 138.3 260 mark 0
LayerCount: 2
Fore
SplineSet
150.299804688 270 m 1
 155.099609375 274 l 1
 154.5 261 152.700195312 252 150.099609375 249 c 0
 147.099609375 244 142.099609375 244 135.099609375 249 c 2
 130.299804688 245 l 1
 96.7001953125 217 l 1
 59.5 261 l 1
 94.2998046875 290 l 1
 130.299804688 320 l 1
 134.299804688 315 l 1
 98.2998046875 285 l 1
 126.299804688 250 l 1
 150.299804688 270 l 1
EndSplineSet
EndChar

StartChar: r.upsidedown.ext.diagup
Encoding: 65736 -1 284
Width: 320
Flags: HW
AnchorPoint: "Extension_mkmk" 130 260 mark 0
LayerCount: 2
Fore
SplineSet
118 250 m 1
 70 310 l 1
 142 370 l 1
 146 365 l 1
 110 335 l 1
 154 280 l 1
 148.200195312 261 136.200195312 251 118 250 c 1
EndSplineSet
EndChar

StartChar: r.ext.diagup
Encoding: 65737 -1 285
Width: 320
Flags: HW
AnchorPoint: "Extension_mkmk" 133 260 mark 0
LayerCount: 2
Fore
SplineSet
121 250 m 1
 77 305 l 1
 41 275 l 1
 37 280 l 1
 109 340 l 1
 157 280 l 1
 151.200195312 261 139.200195312 251 121 250 c 1
EndSplineSet
EndChar

StartChar: s.ext.diagup
Encoding: 65738 -1 286
Width: 320
Flags: HW
AnchorPoint: "Extension_mkmk" 143.7 260 mark 0
LayerCount: 2
Fore
SplineSet
161.299804688 268 m 1
 158.900390625 256 156.299804688 248 153.5 244 c 0
 151.700195312 240 145.900390625 241 135.700195312 245 c 1
 99.7001953125 215 l 1
 95.7001953125 220 l 1
 131.700195312 250 l 2
 141.099609375 257 151.299804688 263 161.299804688 268 c 1
EndSplineSet
EndChar

StartChar: t.ext.diagup
Encoding: 65739 -1 287
Width: 320
Flags: HW
AnchorPoint: "Extension_mkmk" 150 260 mark 0
LayerCount: 2
Fore
SplineSet
142 245 m 1
 132 195 l 1
 84 155 l 1
 96 215 l 1
 138 250 l 2
 146 250 155 255 165 265 c 1
 166.599609375 248 158.400390625 242 142 245 c 1
EndSplineSet
EndChar

StartChar: v.ext.diagup
Encoding: 65740 -1 288
Width: 320
Flags: HW
AnchorPoint: "Extension_mkmk" 140.14 260 mark 0
LayerCount: 2
Fore
SplineSet
132.139648438 245 m 1
 101.139648438 220 l 1
 103.540039062 267 88.740234375 288 54.5400390625 282 c 1
 91.33984375 311 118.540039062 302 134.139648438 255 c 1
 164.140625 280 l 1
 162.940429688 249 152.740234375 238 132.139648438 245 c 1
 132.139648438 245 l 1
EndSplineSet
EndChar

StartChar: velar.ext.diagup
Encoding: 65741 -1 289
Width: 320
Flags: HW
AnchorPoint: "Extension_mkmk" 141.511 260 mark 0
LayerCount: 2
Fore
SplineSet
54.310546875 244 m 1
 90.5107421875 275 l 1
 95.1103515625 263 102.310546875 254 112.7109375 251 c 0
 121.110351562 248 128.510742188 250 134.310546875 254 c 2
 165.510742188 280 l 1
 175.310546875 249 164.110351562 238 133.7109375 246 c 1
 118.110351562 233 103.7109375 226 90.5107421875 225 c 0
 76.310546875 224 64.5107421875 230 54.310546875 244 c 1
EndSplineSet
EndChar

StartChar: w.ext.diagup
Encoding: 65742 -1 290
Width: 320
Flags: HW
AnchorPoint: "Extension_mkmk" 135.6 260 mark 0
LayerCount: 2
Fore
SplineSet
143.599609375 325 m 1
 129.599609375 255 l 1
 159.599609375 280 l 1
 159 267 157.400390625 259 154.799804688 256 c 0
 147 247 138.200195312 243 127.599609375 245 c 2
 79.599609375 205 l 1
 97.400390625 294 l 1
 175.400390625 359 l 1
 179.599609375 355 l 1
 143.599609375 325 l 1
EndSplineSet
EndChar

StartChar: x.ext.diagup
Encoding: 65743 -1 291
Width: 320
Flags: HW
AnchorPoint: "Extension_mkmk" 134.608 260 mark 0
LayerCount: 2
Fore
SplineSet
162.608398438 275 m 1
 164.008789062 262 161.80859375 256 157.008789062 257 c 0
 150.408203125 259 145.008789062 262 140.608398438 265 c 1
 158.608398438 280 l 1
 142.80859375 296 117.408203125 294 82.6083984375 275 c 1
 117.208007812 318 156.208007812 328 198.608398438 305 c 1
 162.608398438 275 l 1
EndSplineSet
EndChar

StartChar: y.ext.diagup
Encoding: 65744 -1 292
Width: 320
Flags: HW
AnchorPoint: "Extension_mkmk" 136.6 260 mark 0
LayerCount: 2
Fore
SplineSet
158.599609375 320 m 1
 110.599609375 280 l 1
 160.599609375 280 l 1
 167.799804688 261 168 247 162.599609375 240 c 0
 159 232 150 232 132.599609375 240 c 2
 52.599609375 240 l 1
 100.599609375 280 l 1
 40.599609375 280 l 1
 88.599609375 320 l 1
 158.599609375 320 l 1
EndSplineSet
EndChar

StartChar: z.ext.diagup
Encoding: 65745 -1 293
Width: 320
Flags: HW
AnchorPoint: "Extension_mkmk" 135.6 260 mark 0
LayerCount: 2
Fore
SplineSet
136.400390625 254 m 1
 143.200195312 263 151 272 159.599609375 280 c 2
 195.599609375 310 l 1
 199.599609375 305 l 1
 163.599609375 275 l 1
 165.400390625 264 165.200195312 258 161 257 c 0
 156.599609375 255 148.400390625 254 136.400390625 254 c 1
EndSplineSet
EndChar

StartChar: glottal.ext.right
Encoding: 65746 -1 294
Width: 320
Flags: HW
AnchorPoint: "Extension_mkmk" 137 260 mark 0
LayerCount: 2
Fore
SplineSet
193.400390625 307 m 2
 164.400390625 282 171.599609375 268 214 265 c 1
 178 235 l 1
 156.200195312 246 149 260 157.400390625 277 c 1
 113 240 l 1
 93 240 l 1
 115 250 124.799804688 264 121 280 c 1
 151 280 l 1
 193 315 l 1
 197 310 l 1
 193.400390625 307 l 2
EndSplineSet
EndChar

StartChar: ncaron.ext.right
Encoding: 65747 -1 295
Width: 320
Flags: HW
AnchorPoint: "Extension_mkmk" 146 260 mark 0
LayerCount: 2
Fore
SplineSet
190 255 m 1
 194 250 l 1
 110 180 l 1
 122 240 l 1
 82 240 l 1
 105 250 113.799804688 264 110 280 c 1
 170 280 l 1
 160 230 l 1
 190 255 l 1
EndSplineSet
EndChar

StartChar: scaron.ext.right
Encoding: 65748 -1 296
Width: 320
Flags: HW
AnchorPoint: "Extension_mkmk" 140.9 260 mark 0
LayerCount: 2
Fore
SplineSet
96.900390625 240 m 1
 109.099609375 256 111.700195312 269 104.900390625 280 c 1
 154.900390625 280 l 1
 202.900390625 320 l 1
 184.900390625 230 l 1
 137.099609375 191 l 1
 152.900390625 270 l 1
 116.900390625 240 l 1
 96.900390625 240 l 1
EndSplineSet
EndChar

StartChar: ddotbelow.ext.right
Encoding: 65749 -1 297
Width: 320
Flags: HW
AnchorPoint: "Extension_mkmk" 131.5 260 mark 0
LayerCount: 2
Fore
SplineSet
65.5 240 m 1
 93.099609375 253 102.700195312 266 92.5 280 c 1
 146.5 280 l 1
 133.099609375 313 139.900390625 342 166.5 365 c 1
 157.900390625 337 163.700195312 316 185.5 305 c 1
 107.5 240 l 1
 65.5 240 l 1
EndSplineSet
EndChar

StartChar: tcedilla.ext.right
Encoding: 65750 -1 298
Width: 320
Flags: HW
AnchorPoint: "Extension_mkmk" 132.5 260 mark 0
LayerCount: 2
Fore
SplineSet
147.5 280 m 1
 155.700195312 321 151.700195312 346 135.5 355 c 1
 137.5 355 137.5 355 139.5 355 c 0
 141.5 355 144.5 355 146.5 355 c 0
 170.900390625 352 183.5 335 186.5 305 c 1
 108.5 240 l 1
 66.5 240 l 1
 94.099609375 253 103.700195312 266 93.5 280 c 1
 147.5 280 l 1
EndSplineSet
EndChar

StartChar: ccedilla.ext.right
Encoding: 65751 -1 299
Width: 320
Flags: HW
AnchorPoint: "Extension_mkmk" 129.5 260 mark 0
LayerCount: 2
Fore
SplineSet
143.5 280 m 1
 105.900390625 327 l 1
 175.5 385 l 1
 179.5 380 l 1
 143.5 350 l 1
 181.299804688 304 l 1
 104.5 240 l 1
 84.5 240 l 1
 107.5 255 117.099609375 268 112.5 280 c 1
 143.5 280 l 1
EndSplineSet
EndChar

StartChar: ccaron.ext.right
Encoding: 65752 -1 300
Width: 320
Flags: HW
AnchorPoint: "Extension_mkmk" 147.5 260 mark 0
LayerCount: 2
Fore
SplineSet
155.5 200 m 1
 113.5 165 l 1
 109.5 170 l 1
 145.5 200 l 1
 66.5 200 l 1
 114.5 240 l 1
 92.5 240 l 1
 124.900390625 257 134.700195312 271 121.5 280 c 1
 171.5 280 l 1
 123.5 240 l 1
 203.5 240 l 1
 155.5 200 l 1
 155.5 200 l 1
EndSplineSet
EndChar

StartChar: lcedilla.ext.right
Encoding: 65753 -1 301
Width: 320
Flags: HW
AnchorPoint: "Extension_mkmk" 132 260 mark 0
LayerCount: 2
Fore
SplineSet
116 280 m 1
 124 320 l 1
 172 360 l 1
 228 290 l 1
 192 260 l 1
 160 300 l 1
 156 280 l 1
 108 240 l 1
 78 240 l 1
 98.7998046875 254 104.599609375 268 96 280 c 1
 116 280 l 1
EndSplineSet
EndChar

StartChar: zdotaccent.ext.right
Encoding: 65754 -1 302
Width: 320
Flags: HW
AnchorPoint: "Extension_mkmk" 131 260 mark 0
LayerCount: 2
Fore
SplineSet
123.200195312 296 m 1
 119 300 l 1
 203 370 l 1
 191 310 l 1
 107 240 l 1
 85 240 l 1
 102.799804688 254 103.400390625 267 91 280 c 1
 145 280 l 1
 153.200195312 321 l 1
 123.200195312 296 l 1
EndSplineSet
EndChar

StartChar: zcaron.ext.right
Encoding: 65755 -1 303
Width: 320
Flags: HW
AnchorPoint: "Extension_mkmk" 140.9 260 mark 0
LayerCount: 2
Fore
SplineSet
96.900390625 240 m 1
 109.099609375 256 111.700195312 269 104.900390625 280 c 1
 154.900390625 280 l 1
 202.900390625 320 l 1
 186.900390625 240 l 1
 217.900390625 265 l 1
 221.099609375 261 l 1
 185.099609375 231 l 1
 184.900390625 230 l 1
 137.099609375 191 l 1
 153.099609375 271 l 1
 116.900390625 240 l 1
 96.900390625 240 l 1
EndSplineSet
EndChar

StartChar: rcaron.ext.right
Encoding: 65756 -1 304
Width: 320
Flags: HW
AnchorPoint: "Extension_mkmk" 148.5 260 mark 0
LayerCount: 2
Fore
SplineSet
109.5 280 m 1
 172.5 280 l 1
 124.5 240 l 1
 166.5 215 169.700195312 186 134.5 155 c 1
 147.099609375 188 130.099609375 208 84.5 215 c 1
 115.5 240 l 1
 82.5 240 l 1
 110.099609375 253 119.700195312 266 109.5 280 c 1
EndSplineSet
EndChar

StartChar: b.ext.right
Encoding: 65757 -1 305
Width: 320
Flags: HW
AnchorPoint: "Extension_mkmk" 136 260 mark 0
LayerCount: 2
Fore
SplineSet
160 280 m 1
 112 240 l 1
 87 240 l 1
 120 255 130.799804688 269 120 280 c 1
 151 280 l 1
 198 320 l 1
 268 320 l 1
 220 280 l 1
 160 280 l 1
EndSplineSet
EndChar

StartChar: c.ext.right
Encoding: 65758 -1 306
Width: 320
Flags: HW
AnchorPoint: "Extension_mkmk" 136 260 mark 0
LayerCount: 2
Fore
SplineSet
160 280 m 1
 112 240 l 1
 87 240 l 1
 120 255 130.799804688 269 120 280 c 1
 151 280 l 1
 198 320 l 1
 268 320 l 1
 178 245 l 1
 175 250 l 1
 211 280 l 1
 160 280 l 1
EndSplineSet
EndChar

StartChar: equal.ext.right
Encoding: 65759 -1 307
Width: 320
Flags: HW
AnchorPoint: "Extension_mkmk" 146 260 mark 0
LayerCount: 2
Fore
SplineSet
110 280 m 1
 170 280 l 5
 158 220 l 1
 110 180 l 1
 122 240 l 1
 82 240 l 1
 105 250 113.799804688 264 110 280 c 1
EndSplineSet
EndChar

StartChar: d.ext.right
Encoding: 65760 -1 308
Width: 320
Flags: HW
AnchorPoint: "Extension_mkmk" 132.5 260 mark 0
LayerCount: 2
Fore
SplineSet
116.5 280 m 1
 147.5 280 l 1
 108.900390625 327 l 1
 142.5 355 l 1
 184.299804688 304 l 1
 108.5 240 l 1
 88.5 240 l 1
 111.5 255 121.099609375 268 116.5 280 c 1
EndSplineSet
EndChar

StartChar: D.ext.right
Encoding: 65761 -1 309
Width: 320
Flags: HW
AnchorPoint: "Extension_mkmk" 132.5 260 mark 0
LayerCount: 2
Fore
SplineSet
116.5 280 m 1
 147.5 280 l 1
 112.900390625 322 l 1
 82.900390625 297 l 1
 78.900390625 302 l 1
 108.900390625 327 l 1
 142.5 355 l 1
 184.299804688 304 l 1
 108.5 240 l 1
 88.5 240 l 1
 111.5 255 121.099609375 268 116.5 280 c 1
EndSplineSet
EndChar

StartChar: glottal.flip.ext.right
Encoding: 65762 -1 310
Width: 320
Flags: HW
AnchorPoint: "Extension_mkmk" 143.5 260 mark 0
LayerCount: 2
Fore
SplineSet
167.5 280 m 1
 125.299804688 244 l 1
 149.700195312 261 171.5 260 190.5 240 c 1
 154.5 210 l 1
 139.5 235 115.5 235 83.2998046875 209 c 0
 82.099609375 208 l 0
 80.900390625 207 79.7001953125 206 78.5 205 c 1
 74.5 210 l 1
 110.5 240 l 1
 70.5 240 l 1
 97.5 250 106.099609375 263 98.5 280 c 1
 167.5 280 l 1
EndSplineSet
EndChar

StartChar: approxequal.ext.right
Encoding: 65763 -1 311
Width: 320
Flags: HW
AnchorPoint: "Extension_mkmk" 150 260 mark 0
LayerCount: 2
Fore
SplineSet
66 140 m 1
 79.7998046875 209 l 1
 117.200195312 241 l 1
 116 240 l 1
 86 240 l 1
 107.200195312 261 112.799804688 274 101 280 c 1
 174 280 l 1
 126 240 l 1
 114 180 l 1
 66 140 l 1
EndSplineSet
EndChar

StartChar: f.ext.right
Encoding: 65764 -1 312
Width: 320
Flags: HW
AnchorPoint: "Extension_mkmk" 141 260 mark 0
LayerCount: 2
Fore
SplineSet
140 200 m 1
 165.200195312 231 171.200195312 256 159 275 c 1
 117 240 l 1
 97 240 l 1
 111.599609375 253 116.200195312 266 111 280 c 1
 156 280 l 1
 192 310 l 1
 205.599609375 263 188.200195312 226 140 200 c 1
EndSplineSet
EndChar

StartChar: g.ext.right
Encoding: 65765 -1 313
Width: 320
Flags: HW
AnchorPoint: "Extension_mkmk" 147.5 260 mark 0
LayerCount: 2
Fore
SplineSet
161.099609375 193 m 1
 127.5 165 l 1
 85.7001953125 216 l 1
 114.5 240 l 1
 95.5 240 l 1
 123.099609375 253 133.700195312 266 126.5 280 c 1
 171.5 280 l 1
 123.5 240 l 1
 161.099609375 193 l 1
EndSplineSet
EndChar

StartChar: G.ext.right
Encoding: 65766 -1 314
Width: 320
Flags: HW
AnchorPoint: "Extension_mkmk" 150.5 260 mark 0
LayerCount: 2
Fore
SplineSet
164.099609375 193 m 1
 94.5 135 l 1
 90.5 140 l 1
 126.5 170 l 1
 88.7001953125 216 l 1
 117.5 240 l 1
 98.5 240 l 1
 126.099609375 253 136.700195312 266 129.5 280 c 1
 174.5 280 l 1
 126.5 240 l 1
 164.099609375 193 l 1
EndSplineSet
EndChar

StartChar: h.ext.right
Encoding: 65767 -1 315
Width: 320
Flags: HW
AnchorPoint: "Extension_mkmk" 152.6 260 mark 0
LayerCount: 2
Fore
SplineSet
34.400390625 119 m 1
 70.400390625 149 l 1
 82.400390625 209 l 1
 119.799804688 241 l 1
 118.599609375 240 l 1
 88.599609375 240 l 1
 109.799804688 261 115.400390625 274 103.600585938 280 c 1
 176.600585938 280 l 1
 128.599609375 240 l 1
 116.599609375 180 l 1
 38.3994140625 114 l 1
 34.400390625 119 l 1
EndSplineSet
EndChar

StartChar: j.ext.right
Encoding: 65768 -1 316
Width: 320
Flags: HW
AnchorPoint: "Extension_mkmk" 144 260 mark 0
LayerCount: 2
Fore
SplineSet
62 200 m 1
 110 240 l 1
 88 240 l 1
 120.400390625 257 130.200195312 271 117 280 c 1
 168 280 l 1
 120 240 l 1
 190 240 l 1
 232 275 l 1
 236 270 l 1
 152 200 l 1
 62 200 l 1
EndSplineSet
EndChar

StartChar: k.ext.right
Encoding: 65769 -1 317
Width: 320
Flags: HW
AnchorPoint: "Extension_mkmk" 144 260 mark 0
LayerCount: 2
Fore
SplineSet
62 200 m 1
 110 240 l 1
 88 240 l 1
 120.400390625 257 130.200195312 271 117 280 c 1
 168 280 l 1
 120 240 l 1
 200 240 l 1
 152 200 l 1
 62 200 l 1
EndSplineSet
EndChar

StartChar: l.ext.right
Encoding: 65770 -1 318
Width: 320
Flags: HW
AnchorPoint: "Extension_mkmk" 145 260 mark 0
LayerCount: 2
Fore
SplineSet
141 240 m 1
 121 240 l 1
 128.799804688 259 144.599609375 273 169 280 c 1
 217 220 l 1
 181 190 l 1
 141 240 l 1
EndSplineSet
EndChar

StartChar: m.ext.right
Encoding: 65771 -1 319
Width: 320
Flags: HW
AnchorPoint: "Extension_mkmk" 134 260 mark 0
LayerCount: 2
Fore
SplineSet
78 280 m 1
 118 280 l 1
 122 300 l 1
 170 340 l 1
 158 280 l 1
 110 240 l 1
 70 240 l 1
 90.599609375 258 93.2001953125 271 78 280 c 1
EndSplineSet
EndChar

StartChar: n.ext.right
Encoding: 65772 -1 320
Width: 320
Flags: HW
AnchorPoint: "Extension_mkmk" 148.5 260 mark 0
LayerCount: 2
Fore
SplineSet
172.5 280 m 1
 160.5 220 l 1
 82.5 155 l 1
 78.5 160 l 1
 114.5 190 l 1
 124.5 240 l 1
 84.5 240 l 1
 107.5 250 116.299804688 264 112.5 280 c 1
 172.5 280 l 1
EndSplineSet
EndChar

StartChar: p.ext.right
Encoding: 65773 -1 321
Width: 320
Flags: HW
AnchorPoint: "Extension_mkmk" 137.6 260 mark 0
LayerCount: 2
Fore
SplineSet
95.599609375 240 m 1
 123.200195312 253 134 267 126.599609375 280 c 1
 151.599609375 280 l 1
 186.400390625 309 l 1
 222.400390625 264 l 1
 187.599609375 235 l 1
 155.599609375 275 l 1
 113.599609375 240 l 1
 95.599609375 240 l 1
EndSplineSet
EndChar

StartChar: P.ext.right
Encoding: 65774 -1 322
Width: 320
Flags: HW
AnchorPoint: "Extension_mkmk" 140.6 260 mark 0
LayerCount: 2
Fore
SplineSet
98.599609375 240 m 1
 126.200195312 253 137 267 129.599609375 280 c 1
 154.599609375 280 l 1
 189.400390625 309 l 1
 225.400390625 264 l 1
 190.599609375 235 l 1
 154.599609375 205 l 1
 150.599609375 210 l 1
 186.599609375 240 l 1
 158.599609375 275 l 1
 116.599609375 240 l 1
 98.599609375 240 l 1
EndSplineSet
EndChar

StartChar: r.upsidedown.ext.right
Encoding: 65775 -1 323
Width: 320
Flags: HW
AnchorPoint: "Extension_mkmk" 148 260 mark 0
LayerCount: 2
Fore
SplineSet
220 220 m 1
 148 160 l 1
 144 165 l 1
 180 195 l 1
 144 240 l 1
 124 240 l 1
 131.799804688 259 147.599609375 273 172 280 c 1
 220 220 l 1
EndSplineSet
EndChar

StartChar: r.ext.right
Encoding: 65776 -1 324
Width: 320
Flags: HW
AnchorPoint: "Extension_mkmk" 145 260 mark 0
LayerCount: 2
Fore
SplineSet
253 250 m 1
 181 190 l 1
 141 240 l 1
 121 240 l 1
 128.799804688 259 144.599609375 273 169 280 c 1
 213 225 l 1
 249 255 l 1
 253 250 l 1
EndSplineSet
EndChar

StartChar: s.ext.right
Encoding: 65777 -1 325
Width: 320
Flags: HW
AnchorPoint: "Extension_mkmk" 136.5 260 mark 0
LayerCount: 2
Fore
SplineSet
72.5 240 m 1
 103.900390625 252 119.700195312 266 120.5 280 c 1
 150.5 280 l 1
 192.5 315 l 1
 196.5 310 l 1
 112.5 240 l 1
 72.5 240 l 1
EndSplineSet
EndChar

StartChar: t.ext.right
Encoding: 65778 -1 326
Width: 320
Flags: HW
AnchorPoint: "Extension_mkmk" 131 260 mark 0
LayerCount: 2
Fore
SplineSet
124 280 m 1
 145 280 l 1
 155 330 l 1
 203 370 l 1
 191 310 l 1
 107 240 l 1
 85 240 l 1
 109.799804688 254 122.400390625 267 124 280 c 1
EndSplineSet
EndChar

StartChar: v.ext.right
Encoding: 65779 -1 327
Width: 320
Flags: HW
AnchorPoint: "Extension_mkmk" 141 260 mark 0
LayerCount: 2
Fore
SplineSet
192 310 m 1
 192 310 l 1
 182 265 190.799804688 229 220 200 c 1
 173.400390625 212 152.400390625 237 159 275 c 1
 117 240 l 1
 97 240 l 1
 111.599609375 253 116.200195312 266 111 280 c 1
 156 280 l 1
 192 310 l 1
EndSplineSet
EndChar

StartChar: velar.ext.right
Encoding: 65780 -1 328
Width: 320
Flags: HW
AnchorPoint: "Extension_mkmk" 137.391 260 mark 0
LayerCount: 2
Fore
SplineSet
157.791015625 277 m 2
 113.390625 240 l 1
 93.390625 240 l 1
 110.390625 250 114.990234375 263 104.390625 280 c 1
 152.390625 280 l 1
 158.390625 285 l 2
 173.990234375 298 188.390625 305 201.590820312 306 c 0
 215.791015625 307 227.390625 300 237.590820312 286 c 1
 201.590820312 256 l 1
 197.590820312 266 192.190429688 274 182.990234375 278 c 0
 173.791015625 282 165.791015625 282 157.791015625 277 c 2
EndSplineSet
EndChar

StartChar: w.ext.right
Encoding: 65781 -1 329
Width: 320
Flags: HW
AnchorPoint: "Extension_mkmk" 143.5 260 mark 0
LayerCount: 2
Fore
SplineSet
109.5 165 m 1
 105.5 170 l 1
 141.5 200 l 1
 155.700195312 271 l 1
 119.5 240 l 1
 99.5 240 l 1
 111.700195312 256 114.299804688 269 107.5 280 c 1
 157.5 280 l 1
 205.5 320 l 1
 187.5 230 l 1
 109.5 165 l 1
EndSplineSet
EndChar

StartChar: x.ext.right
Encoding: 65782 -1 330
Width: 320
Flags: HW
AnchorPoint: "Extension_mkmk" 146.505 260 mark 0
LayerCount: 2
Fore
SplineSet
115.504882812 280 m 1
 170.504882812 280 l 1
 122.504882812 240 l 1
 123.705078125 211 144.3046875 189 184.504882812 175 c 1
 126.3046875 174 92.1044921875 188 82.5048828125 215 c 1
 113.504882812 240 l 1
 82.5048828125 240 l 1
 109.705078125 256 120.504882812 270 115.504882812 280 c 1
EndSplineSet
EndChar

StartChar: y.ext.right
Encoding: 65783 -1 331
Width: 320
Flags: HW
AnchorPoint: "Extension_mkmk" 147.88 260 mark 0
LayerCount: 2
Fore
SplineSet
123.879882812 240 m 1
 83.8798828125 240 l 1
 106.600585938 250.265625 115.932617188 263.598632812 111.879882812 280 c 1
 171.879882812 280 l 1
 162.040039062 230.80078125 l 1
 209.561523438 270.3984375 l 1
 195.641601562 200.80078125 l 1
 148.120117188 161.19921875 l 1
 160.040039062 220.80078125 l 1
 111.959960938 180.3984375 l 1
 123.879882812 240 l 1
EndSplineSet
EndChar

StartChar: z.ext.right
Encoding: 65784 -1 332
Width: 320
Flags: HW
AnchorPoint: "Extension_mkmk" 143.5 260 mark 0
LayerCount: 2
Fore
SplineSet
73.5 210 m 1
 109.5 240 l 1
 79.5 240 l 1
 110.900390625 252 126.700195312 266 127.5 280 c 1
 167.5 280 l 1
 77.5 205 l 1
 73.5 210 l 1
EndSplineSet
EndChar

StartChar: glottal.ext.down
Encoding: 65785 -1 333
Width: 320
Flags: HW
AnchorPoint: "Extension_mkmk" 96 20 mark 0
LayerCount: 2
Fore
SplineSet
137 -5 m 1
 115.200195312 6 108.200195312 21 116.599609375 38 c 1
 72 0 l 1
 80 40 l 1
 92.400390625 37 109.599609375 53 129 85 c 1
 122 50 l 1
 152 75 l 1
 156 70 l 1
 152.400390625 67 l 2
 123.400390625 42 130.599609375 28 173 25 c 1
 137 -5 l 1
EndSplineSet
Substitution2: "Single Substitution lookup 32 subtable" glottal.ext.left
Substitution2: "Single Substitution lookup 31 subtable" glottal.ext.right
Substitution2: "Single Substitution lookup 30 subtable" glottal.ext.diagdown
Substitution2: "Single Substitution lookup 26 subtable" glottal.ext.left
Substitution2: "Single Substitution lookup 25 subtable" glottal.ext.right
Substitution2: "Single Substitution lookup 24 subtable" glottal.ext.diagdown
EndChar

StartChar: ncaron.ext.down
Encoding: 65786 -1 334
Width: 320
Flags: HW
AnchorPoint: "Extension_mkmk" 96 20 mark 0
LayerCount: 2
Fore
SplineSet
84 60 m 1
 98.599609375 53 113.799804688 59 128 80 c 1
 120 40 l 1
 170 40 l 1
 212 75 l 1
 216 70 l 1
 132 0 l 1
 72 0 l 1
 84 60 l 1
EndSplineSet
Substitution2: "Single Substitution lookup 32 subtable" ncaron.ext.left
Substitution2: "Single Substitution lookup 31 subtable" ncaron.ext.right
Substitution2: "Single Substitution lookup 30 subtable" ncaron.ext.diagdown
Substitution2: "Single Substitution lookup 26 subtable" ncaron.ext.left
Substitution2: "Single Substitution lookup 25 subtable" ncaron.ext.right
Substitution2: "Single Substitution lookup 24 subtable" ncaron.ext.diagdown
EndChar

StartChar: scaron.ext.down
Encoding: 65787 -1 335
Width: 320
Flags: HW
AnchorPoint: "Extension_mkmk" 99.0996 20 mark 0
LayerCount: 2
Fore
SplineSet
87.099609375 60 m 1
 98.099609375 50 112.900390625 54 129.099609375 70 c 1
 124.900390625 49 l 1
 172.900390625 89 l 1
 155.099609375 0 l 1
 107.099609375 -40 l 1
 123.099609375 40 l 1
 75.099609375 0 l 1
 87.099609375 60 l 1
EndSplineSet
Substitution2: "Single Substitution lookup 32 subtable" scaron.ext.left
Substitution2: "Single Substitution lookup 31 subtable" scaron.ext.right
Substitution2: "Single Substitution lookup 30 subtable" scaron.ext.diagdown
Substitution2: "Single Substitution lookup 26 subtable" scaron.ext.left
Substitution2: "Single Substitution lookup 25 subtable" scaron.ext.right
Substitution2: "Single Substitution lookup 24 subtable" scaron.ext.diagdown
EndChar

StartChar: ddotbelow.ext.down
Encoding: 65788 -1 336
Width: 320
Flags: HW
AnchorPoint: "Extension_mkmk" 98.2998 20 mark 0
LayerCount: 2
Fore
SplineSet
-9.099609375 3 m 1
 16.900390625 23 45.2998046875 25 76.099609375 9 c 1
 86.900390625 63 l 1
 98.2998046875 50 112.700195312 57 130.700195312 82 c 1
 122.299804688 40 l 1
 44.2998046875 -25 l 1
 37.5 -4 19.2998046875 5 -9.099609375 3 c 1
EndSplineSet
Substitution2: "Single Substitution lookup 32 subtable" ddotbelow.ext.left
Substitution2: "Single Substitution lookup 31 subtable" ddotbelow.ext.right
Substitution2: "Single Substitution lookup 30 subtable" ddotbelow.ext.diagdown
Substitution2: "Single Substitution lookup 26 subtable" ddotbelow.ext.left
Substitution2: "Single Substitution lookup 25 subtable" ddotbelow.ext.right
Substitution2: "Single Substitution lookup 24 subtable" ddotbelow.ext.diagdown
EndChar

StartChar: tcedilla.ext.down
Encoding: 65789 -1 337
Width: 320
Flags: HW
AnchorPoint: "Extension_mkmk" 98.2998 20 mark 0
LayerCount: 2
Fore
SplineSet
76.099609375 9 m 1
 86.900390625 63 l 1
 98.2998046875 50 112.700195312 57 130.700195312 82 c 1
 122.299804688 40 l 1
 44.2998046875 -25 l 1
 16.099609375 -16 2.2998046875 0 4.2998046875 25 c 0
 4.7001953125 27 5.2998046875 30 5.7001953125 32 c 0
 6.099609375 34 6.099609375 34 6.5 36 c 1
 11.900390625 18 35.099609375 9 76.099609375 9 c 1
EndSplineSet
Substitution2: "Single Substitution lookup 32 subtable" tcedilla.ext.left
Substitution2: "Single Substitution lookup 31 subtable" tcedilla.ext.right
Substitution2: "Single Substitution lookup 30 subtable" tcedilla.ext.diagdown
Substitution2: "Single Substitution lookup 26 subtable" tcedilla.ext.left
Substitution2: "Single Substitution lookup 25 subtable" tcedilla.ext.right
Substitution2: "Single Substitution lookup 24 subtable" tcedilla.ext.diagdown
EndChar

StartChar: ccedilla.ext.down
Encoding: 65790 -1 338
Width: 320
Flags: HW
AnchorPoint: "Extension_mkmk" 100.3 20 mark 0
LayerCount: 2
Fore
SplineSet
-29.099609375 -2 m 1
 40.5 56 l 1
 78.2998046875 10 l 1
 84.2998046875 40 l 1
 92.099609375 29 106.5 36 128.299804688 60 c 1
 124.299804688 40 l 1
 48.7001953125 -23 l 1
 11.099609375 24 l 1
 -24.900390625 -6 l 1
 -29.099609375 -2 l 1
EndSplineSet
Substitution2: "Single Substitution lookup 32 subtable" ccedilla.ext.left
Substitution2: "Single Substitution lookup 31 subtable" ccedilla.ext.right
Substitution2: "Single Substitution lookup 30 subtable" ccedilla.ext.diagdown
Substitution2: "Single Substitution lookup 26 subtable" ccedilla.ext.left
Substitution2: "Single Substitution lookup 25 subtable" ccedilla.ext.right
Substitution2: "Single Substitution lookup 24 subtable" ccedilla.ext.diagdown
EndChar

StartChar: ccaron.ext.down
Encoding: 65791 -1 339
Width: 320
Flags: HW
AnchorPoint: "Extension_mkmk" 105.4 20 mark 0
LayerCount: 2
Fore
SplineSet
81.400390625 0 m 1
 81.400390625 0 l 1
 161.400390625 0 l 1
 113.400390625 -40 l 1
 113.400390625 -40 l 1
 71.599609375 -74 l 1
 67.400390625 -70 l 1
 103.400390625 -40 l 1
 23.400390625 -40 l 1
 83.400390625 10 l 1
 89.400390625 40 l 1
 102 38 117.400390625 45 133.400390625 60 c 1
 129.400390625 40 l 1
 81.400390625 0 l 1
 81.400390625 0 l 1
 81.400390625 0 l 1
EndSplineSet
Substitution2: "Single Substitution lookup 32 subtable" ccaron.ext.left
Substitution2: "Single Substitution lookup 31 subtable" ccaron.ext.right
Substitution2: "Single Substitution lookup 30 subtable" ccaron.ext.diagdown
Substitution2: "Single Substitution lookup 26 subtable" ccaron.ext.left
Substitution2: "Single Substitution lookup 25 subtable" ccaron.ext.right
Substitution2: "Single Substitution lookup 24 subtable" ccaron.ext.diagdown
EndChar

StartChar: lcedilla.ext.down
Encoding: 65792 -1 340
Width: 320
Flags: HW
AnchorPoint: "Extension_mkmk" 96 20 mark 0
LayerCount: 2
Fore
SplineSet
72 0 m 1
 -8 0 l 1
 40 40 l 1
 80 40 l 1
 84 60 l 1
 99.599609375 53 114.799804688 59 128 80 c 1
 120 40 l 1
 72 0 l 1
EndSplineSet
Substitution2: "Single Substitution lookup 32 subtable" lcedilla.ext.left
Substitution2: "Single Substitution lookup 31 subtable" lcedilla.ext.right
Substitution2: "Single Substitution lookup 30 subtable" lcedilla.ext.diagdown
Substitution2: "Single Substitution lookup 26 subtable" lcedilla.ext.left
Substitution2: "Single Substitution lookup 25 subtable" lcedilla.ext.right
Substitution2: "Single Substitution lookup 24 subtable" lcedilla.ext.diagdown
EndChar

StartChar: zdotaccent.ext.down
Encoding: 65793 -1 341
Width: 320
Flags: HW
AnchorPoint: "Extension_mkmk" 92.5 20 mark 0
LayerCount: 2
Fore
SplineSet
260.5 110 m 1
 176.5 40 l 1
 116.5 40 l 1
 68.5 0 l 1
 79.2998046875 54 l 1
 92.099609375 48 107.099609375 53 122.5 70 c 1
 118.5 50 l 1
 154.5 80 l 1
 214.5 80 l 1
 256.5 115 l 1
 260.5 110 l 1
EndSplineSet
Substitution2: "Single Substitution lookup 32 subtable" zdotaccent.ext.left
Substitution2: "Single Substitution lookup 31 subtable" zdotaccent.ext.right
Substitution2: "Single Substitution lookup 30 subtable" zdotaccent.ext.diagdown
Substitution2: "Single Substitution lookup 26 subtable" zdotaccent.ext.left
Substitution2: "Single Substitution lookup 25 subtable" zdotaccent.ext.right
Substitution2: "Single Substitution lookup 24 subtable" zdotaccent.ext.diagdown
EndChar

StartChar: zcaron.ext.down
Encoding: 65794 -1 342
Width: 320
Flags: HW
AnchorPoint: "Extension_mkmk" 99.0996 20 mark 0
LayerCount: 2
Fore
SplineSet
107.099609375 -40 m 1
 123.099609375 40 l 1
 75.099609375 0 l 1
 87.099609375 60 l 1
 98.099609375 50 112.900390625 54 129.099609375 70 c 1
 124.900390625 49 l 1
 172.900390625 89 l 1
 157.099609375 10 l 1
 187.099609375 35 l 1
 191.099609375 30 l 1
 155.099609375 0 l 1
 155.099609375 0 l 1
 107.099609375 -40 l 1
EndSplineSet
Substitution2: "Single Substitution lookup 32 subtable" zcaron.ext.left
Substitution2: "Single Substitution lookup 31 subtable" zcaron.ext.right
Substitution2: "Single Substitution lookup 30 subtable" zcaron.ext.diagdown
Substitution2: "Single Substitution lookup 26 subtable" zcaron.ext.left
Substitution2: "Single Substitution lookup 25 subtable" zcaron.ext.right
Substitution2: "Single Substitution lookup 24 subtable" zcaron.ext.diagdown
EndChar

StartChar: rcaron.ext.down
Encoding: 65795 -1 343
Width: 320
Flags: HW
AnchorPoint: "Extension_mkmk" 105 20 mark 0
LayerCount: 2
Fore
SplineSet
83 10 m 1
 91.7998046875 54 l 1
 104.200195312 46 117.599609375 48 133 60 c 1
 129 40 l 1
 87 5 l 1
 124.799804688 4 144.799804688 -21 147 -70 c 1
 125 -35 92 -20 46.7998046875 -21 c 1
 83 10 l 1
EndSplineSet
Substitution2: "Single Substitution lookup 32 subtable" rcaron.ext.left
Substitution2: "Single Substitution lookup 31 subtable" rcaron.ext.right
Substitution2: "Single Substitution lookup 30 subtable" rcaron.ext.diagdown
Substitution2: "Single Substitution lookup 26 subtable" rcaron.ext.left
Substitution2: "Single Substitution lookup 25 subtable" rcaron.ext.right
Substitution2: "Single Substitution lookup 24 subtable" rcaron.ext.diagdown
EndChar

StartChar: b.ext.down
Encoding: 65796 -1 344
Width: 320
Flags: HW
AnchorPoint: "Extension_mkmk" 96 20 mark 0
LayerCount: 2
Fore
SplineSet
120 40 m 1
 120 40 l 1
 72 0 l 1
 82.7998046875 54 l 1
 95.599609375 48 110.599609375 53 126 70 c 1
 122 50 l 1
 158 80 l 1
 228 80 l 1
 180 40 l 1
 120 40 l 1
EndSplineSet
Substitution2: "Single Substitution lookup 32 subtable" b.ext.left
Substitution2: "Single Substitution lookup 31 subtable" b.ext.right
Substitution2: "Single Substitution lookup 30 subtable" b.ext.diagdown
Substitution2: "Single Substitution lookup 26 subtable" b.ext.left
Substitution2: "Single Substitution lookup 25 subtable" b.ext.right
Substitution2: "Single Substitution lookup 24 subtable" b.ext.diagdown
EndChar

StartChar: c.ext.down
Encoding: 65797 -1 345
Width: 320
Flags: HW
AnchorPoint: "Extension_mkmk" 96 20 mark 0
LayerCount: 2
Fore
SplineSet
122 50 m 1
 158 80 l 1
 228 80 l 1
 138 5 l 1
 134 10 l 1
 170 40 l 1
 120 40 l 1
 72 0 l 1
 82.7998046875 54 l 1
 95.599609375 48 110.599609375 53 126 70 c 1
 122 50 l 1
EndSplineSet
Substitution2: "Single Substitution lookup 32 subtable" c.ext.left
Substitution2: "Single Substitution lookup 31 subtable" c.ext.right
Substitution2: "Single Substitution lookup 30 subtable" c.ext.diagdown
Substitution2: "Single Substitution lookup 26 subtable" c.ext.left
Substitution2: "Single Substitution lookup 25 subtable" c.ext.right
Substitution2: "Single Substitution lookup 24 subtable" c.ext.diagdown
EndChar

StartChar: equal.ext.down
Encoding: 65798 -1 346
Width: 320
Flags: HW
AnchorPoint: "Extension_mkmk" 102 20 mark 0
LayerCount: 2
Fore
SplineSet
78 0 m 1
 90 60 l 1
 104.599609375 53 119.799804688 59 134 80 c 1
 126 40 l 1
 186 40 l 1
 174 -20 l 1
 126 -60 l 1
 138 0 l 1
 78 0 l 1
EndSplineSet
Substitution2: "Single Substitution lookup 32 subtable" equal.ext.left
Substitution2: "Single Substitution lookup 31 subtable" equal.ext.right
Substitution2: "Single Substitution lookup 30 subtable" equal.ext.diagdown
Substitution2: "Single Substitution lookup 26 subtable" equal.ext.left
Substitution2: "Single Substitution lookup 25 subtable" equal.ext.right
Substitution2: "Single Substitution lookup 24 subtable" equal.ext.diagdown
EndChar

StartChar: d.ext.down
Encoding: 65799 -1 347
Width: 320
Flags: HW
AnchorPoint: "Extension_mkmk" 100.2 20 mark 0
LayerCount: 2
Fore
SplineSet
78 9 m 1
 78 9 l 1
 87.7998046875 58 l 1
 99 54 113.599609375 57 130 69 c 1
 124.200195312 40 l 1
 39 -31 l 1
 -30 -31 l 1
 18 9 l 1
 78 9 l 1
EndSplineSet
Substitution2: "Single Substitution lookup 32 subtable" d.ext.left
Substitution2: "Single Substitution lookup 31 subtable" d.ext.right
Substitution2: "Single Substitution lookup 30 subtable" d.ext.diagdown
Substitution2: "Single Substitution lookup 26 subtable" d.ext.left
Substitution2: "Single Substitution lookup 25 subtable" d.ext.right
Substitution2: "Single Substitution lookup 24 subtable" d.ext.diagdown
EndChar

StartChar: D.ext.down
Encoding: 65800 -1 348
Width: 320
Flags: HW
AnchorPoint: "Extension_mkmk" 100.2 20 mark 0
LayerCount: 2
Fore
SplineSet
78 9 m 1
 78 9 l 1
 87.7998046875 58 l 1
 99 54 113.599609375 57 130 69 c 1
 124.200195312 40 l 1
 39 -31 l 1
 -50 -31 l 1
 -2 9 l 1
 34 39 l 1
 38 34 l 1
 8 9 l 1
 78 9 l 1
EndSplineSet
Substitution2: "Single Substitution lookup 32 subtable" D.ext.left
Substitution2: "Single Substitution lookup 31 subtable" D.ext.right
Substitution2: "Single Substitution lookup 30 subtable" D.ext.diagdown
Substitution2: "Single Substitution lookup 26 subtable" D.ext.left
Substitution2: "Single Substitution lookup 25 subtable" D.ext.right
Substitution2: "Single Substitution lookup 24 subtable" D.ext.diagdown
EndChar

StartChar: glottal.flip.ext.down
Encoding: 65801 -1 349
Width: 320
Flags: HW
AnchorPoint: "Extension_mkmk" 100.5 20 mark 0
LayerCount: 2
Fore
SplineSet
51.2998046875 -21 m 0
 50.099609375 -22 l 0
 48.900390625 -23 47.7001953125 -24 46.5 -25 c 1
 42.5 -20 l 1
 78.5 10 l 1
 85.7001953125 46 l 1
 97.900390625 42 112.900390625 47 128.5 60 c 1
 124.5 40 l 1
 93.2998046875 14 l 1
 117.700195312 31 139.5 30 158.5 10 c 1
 122.5 -20 l 1
 107.5 5 83.5 5 51.2998046875 -21 c 0
EndSplineSet
Substitution2: "Single Substitution lookup 32 subtable" glottal.flip.ext.left
Substitution2: "Single Substitution lookup 31 subtable" glottal.flip.ext.right
Substitution2: "Single Substitution lookup 30 subtable" glottal.flip.ext.diagdown
Substitution2: "Single Substitution lookup 26 subtable" glottal.flip.ext.left
Substitution2: "Single Substitution lookup 25 subtable" glottal.flip.ext.right
Substitution2: "Single Substitution lookup 24 subtable" glottal.flip.ext.diagdown
EndChar

StartChar: approxequal.ext.down
Encoding: 65802 -1 350
Width: 320
Flags: HW
AnchorPoint: "Extension_mkmk" 107 20 mark 0
LayerCount: 2
Fore
SplineSet
23 -100 m 1
 36.7998046875 -31 l 1
 84.7998046875 9 l 1
 95 60 l 1
 106 50 120.799804688 54 137 70 c 1
 131 40 l 1
 83 0 l 1
 71 -60 l 1
 23 -100 l 1
EndSplineSet
Substitution2: "Single Substitution lookup 32 subtable" approxequal.ext.left
Substitution2: "Single Substitution lookup 31 subtable" approxequal.ext.right
Substitution2: "Single Substitution lookup 30 subtable" approxequal.ext.diagdown
Substitution2: "Single Substitution lookup 26 subtable" approxequal.ext.left
Substitution2: "Single Substitution lookup 25 subtable" approxequal.ext.right
Substitution2: "Single Substitution lookup 24 subtable" approxequal.ext.diagdown
EndChar

StartChar: f.ext.down
Encoding: 65803 -1 351
Width: 320
Flags: HW
AnchorPoint: "Extension_mkmk" 99.2998 20 mark 0
LayerCount: 2
Fore
SplineSet
87.900390625 63 m 1
 99.2998046875 50 113.700195312 57 131.700195312 82 c 1
 125.099609375 49 l 1
 155.299804688 75 l 1
 179.299804688 60 185.900390625 23 173.299804688 -35 c 1
 167.900390625 8 150.900390625 33 123.299804688 40 c 1
 75.2998046875 0 l 1
 87.900390625 63 l 1
EndSplineSet
Substitution2: "Single Substitution lookup 32 subtable" f.ext.left
Substitution2: "Single Substitution lookup 31 subtable" f.ext.right
Substitution2: "Single Substitution lookup 30 subtable" f.ext.diagdown
Substitution2: "Single Substitution lookup 26 subtable" f.ext.left
Substitution2: "Single Substitution lookup 25 subtable" f.ext.right
Substitution2: "Single Substitution lookup 24 subtable" f.ext.diagdown
EndChar

StartChar: g.ext.down
Encoding: 65804 -1 352
Width: 320
Flags: HW
AnchorPoint: "Extension_mkmk" 105.5 20 mark 0
LayerCount: 2
Fore
SplineSet
119.099609375 -47 m 1
 85.5 -75 l 1
 43.7001953125 -24 l 1
 83.2998046875 9 l 1
 89.5 40 l 1
 100.900390625 32 115.299804688 39 133.5 60 c 1
 129.5 40 l 1
 81.5 0 l 1
 119.099609375 -47 l 1
EndSplineSet
Substitution2: "Single Substitution lookup 32 subtable" g.ext.left
Substitution2: "Single Substitution lookup 31 subtable" g.ext.right
Substitution2: "Single Substitution lookup 30 subtable" g.ext.diagdown
Substitution2: "Single Substitution lookup 26 subtable" g.ext.left
Substitution2: "Single Substitution lookup 25 subtable" g.ext.right
Substitution2: "Single Substitution lookup 24 subtable" g.ext.diagdown
EndChar

StartChar: G.ext.down
Encoding: 65805 -1 353
Width: 320
Flags: HW
AnchorPoint: "Extension_mkmk" 108.5 20 mark 0
LayerCount: 2
Fore
SplineSet
122.099609375 -47 m 1
 52.5 -105 l 1
 48.5 -100 l 1
 84.5 -70 l 1
 46.7001953125 -24 l 1
 86.2998046875 9 l 1
 92.5 40 l 1
 103.900390625 32 118.299804688 39 136.5 60 c 1
 132.5 40 l 1
 84.5 0 l 1
 122.099609375 -47 l 1
EndSplineSet
Substitution2: "Single Substitution lookup 32 subtable" G.ext.left
Substitution2: "Single Substitution lookup 31 subtable" G.ext.right
Substitution2: "Single Substitution lookup 30 subtable" G.ext.diagdown
Substitution2: "Single Substitution lookup 26 subtable" G.ext.left
Substitution2: "Single Substitution lookup 25 subtable" G.ext.right
Substitution2: "Single Substitution lookup 24 subtable" G.ext.diagdown
EndChar

StartChar: h.ext.down
Encoding: 65806 -1 354
Width: 320
Flags: HW
AnchorPoint: "Extension_mkmk" 103.7 20 mark 0
LayerCount: 2
Fore
SplineSet
127.700195312 40 m 1
 42.5 -31 l 1
 -17.5 -31 l 1
 -58.5 -66 l 1
 -62.5 -61 l 1
 21.5 9 l 1
 81.5 9 l 1
 91.099609375 57 l 1
 104.5 49 118.299804688 53 133.5 69 c 1
 127.700195312 40 l 1
EndSplineSet
Substitution2: "Single Substitution lookup 32 subtable" h.ext.left
Substitution2: "Single Substitution lookup 31 subtable" h.ext.right
Substitution2: "Single Substitution lookup 30 subtable" h.ext.diagdown
Substitution2: "Single Substitution lookup 26 subtable" h.ext.left
Substitution2: "Single Substitution lookup 25 subtable" h.ext.right
Substitution2: "Single Substitution lookup 24 subtable" h.ext.diagdown
EndChar

StartChar: j.ext.down
Encoding: 65807 -1 355
Width: 320
Flags: HW
AnchorPoint: "Extension_mkmk" 102 20 mark 0
LayerCount: 2
Fore
SplineSet
78 0 m 1
 78 0 l 1
 149 0 l 1
 190 35 l 1
 194 30 l 1
 110 -40 l 1
 20 -40 l 1
 80 10 l 1
 86 40 l 1
 98.599609375 38 114 45 130 60 c 1
 126 40 l 1
 78 0 l 1
 78 0 l 1
 78 0 l 1
EndSplineSet
Substitution2: "Single Substitution lookup 32 subtable" j.ext.left
Substitution2: "Single Substitution lookup 31 subtable" j.ext.right
Substitution2: "Single Substitution lookup 30 subtable" j.ext.diagdown
Substitution2: "Single Substitution lookup 26 subtable" j.ext.left
Substitution2: "Single Substitution lookup 25 subtable" j.ext.right
Substitution2: "Single Substitution lookup 24 subtable" j.ext.diagdown
EndChar

StartChar: k.ext.down
Encoding: 65808 -1 356
Width: 320
Flags: HW
AnchorPoint: "Extension_mkmk" 102 20 mark 0
LayerCount: 2
Fore
SplineSet
20 -40 m 1
 20 -40 l 1
 80 10 l 1
 86 40 l 1
 98.599609375 38 114 45 130 60 c 1
 126 40 l 1
 78 0 l 1
 78 0 l 1
 78 0 l 1
 78 0 l 1
 158 0 l 1
 110 -40 l 1
 20 -40 l 1
EndSplineSet
Substitution2: "Single Substitution lookup 32 subtable" k.ext.left
Substitution2: "Single Substitution lookup 31 subtable" k.ext.right
Substitution2: "Single Substitution lookup 30 subtable" k.ext.diagdown
Substitution2: "Single Substitution lookup 26 subtable" k.ext.left
Substitution2: "Single Substitution lookup 25 subtable" k.ext.right
Substitution2: "Single Substitution lookup 24 subtable" k.ext.diagdown
EndChar

StartChar: l.ext.down
Encoding: 65809 -1 357
Width: 320
Flags: HW
AnchorPoint: "Extension_mkmk" 107.514 20 mark 0
LayerCount: 2
Fore
SplineSet
67.513671875 -80 m 1
 83.513671875 0 l 2
 98.513671875 40 115.114257812 53 131.513671875 40 c 1
 115.513671875 -40 l 1
 67.513671875 -80 l 1
EndSplineSet
Substitution2: "Single Substitution lookup 32 subtable" l.ext.left
Substitution2: "Single Substitution lookup 31 subtable" l.ext.right
Substitution2: "Single Substitution lookup 30 subtable" l.ext.diagdown
Substitution2: "Single Substitution lookup 26 subtable" l.ext.left
Substitution2: "Single Substitution lookup 25 subtable" l.ext.right
Substitution2: "Single Substitution lookup 24 subtable" l.ext.diagdown
EndChar

StartChar: m.ext.down
Encoding: 65810 -1 358
Width: 320
Flags: HW
AnchorPoint: "Extension_mkmk" 96 20 mark 0
LayerCount: 2
Fore
SplineSet
84 60 m 1
 98.599609375 53 113.799804688 59 128 80 c 1
 120 40 l 1
 180 40 l 1
 132 0 l 1
 72 0 l 1
 84 60 l 1
EndSplineSet
Substitution2: "Single Substitution lookup 32 subtable" m.ext.left
Substitution2: "Single Substitution lookup 31 subtable" m.ext.right
Substitution2: "Single Substitution lookup 30 subtable" m.ext.diagdown
Substitution2: "Single Substitution lookup 26 subtable" m.ext.left
Substitution2: "Single Substitution lookup 25 subtable" m.ext.right
Substitution2: "Single Substitution lookup 24 subtable" m.ext.diagdown
EndChar

StartChar: n.ext.down
Encoding: 65811 -1 359
Width: 320
Flags: HW
AnchorPoint: "Extension_mkmk" 99.5 20 mark 0
LayerCount: 2
Fore
SplineSet
87.5 60 m 1
 102.099609375 53 117.299804688 59 131.5 80 c 1
 123.5 40 l 1
 183.5 40 l 1
 93.5 -35 l 1
 89.5 -30 l 1
 125.5 0 l 1
 75.5 0 l 1
 87.5 60 l 1
EndSplineSet
Substitution2: "Single Substitution lookup 32 subtable" n.ext.left
Substitution2: "Single Substitution lookup 31 subtable" n.ext.right
Substitution2: "Single Substitution lookup 30 subtable" n.ext.diagdown
Substitution2: "Single Substitution lookup 26 subtable" n.ext.left
Substitution2: "Single Substitution lookup 25 subtable" n.ext.right
Substitution2: "Single Substitution lookup 24 subtable" n.ext.diagdown
EndChar

StartChar: p.ext.down
Encoding: 65812 -1 360
Width: 320
Flags: HW
AnchorPoint: "Extension_mkmk" 96.7002 20 mark 0
LayerCount: 2
Fore
SplineSet
121.299804688 48 m 0
 122.5 49 122.700195312 50 122.700195312 50 c 2
 150.299804688 73 l 1
 187.5 29 l 1
 152.700195312 0 l 1
 120.700195312 40 l 1
 72.7001953125 0 l 1
 84.5 59 l 1
 87.900390625 46 97.900390625 41 115.5 44 c 0
 117.900390625 46 120.099609375 47 121.299804688 48 c 0
EndSplineSet
Substitution2: "Single Substitution lookup 32 subtable" p.ext.left
Substitution2: "Single Substitution lookup 31 subtable" p.ext.right
Substitution2: "Single Substitution lookup 30 subtable" p.ext.diagdown
Substitution2: "Single Substitution lookup 26 subtable" p.ext.left
Substitution2: "Single Substitution lookup 25 subtable" p.ext.right
Substitution2: "Single Substitution lookup 24 subtable" p.ext.diagdown
EndChar

StartChar: P.ext.down
Encoding: 65813 -1 361
Width: 320
Flags: HW
AnchorPoint: "Extension_mkmk" 99.7002 20 mark 0
LayerCount: 2
Fore
SplineSet
124.299804688 48 m 0
 125.5 49 125.700195312 50 125.700195312 50 c 2
 153.299804688 73 l 1
 190.5 29 l 1
 155.700195312 0 l 1
 119.700195312 -30 l 1
 115.700195312 -25 l 1
 151.700195312 5 l 1
 123.700195312 40 l 1
 75.7001953125 0 l 1
 87.5 59 l 1
 90.900390625 46 100.900390625 41 118.5 44 c 0
 120.900390625 46 123.099609375 47 124.299804688 48 c 0
EndSplineSet
Substitution2: "Single Substitution lookup 32 subtable" P.ext.left
Substitution2: "Single Substitution lookup 31 subtable" P.ext.right
Substitution2: "Single Substitution lookup 30 subtable" P.ext.diagdown
Substitution2: "Single Substitution lookup 26 subtable" P.ext.left
Substitution2: "Single Substitution lookup 25 subtable" P.ext.right
Substitution2: "Single Substitution lookup 24 subtable" P.ext.diagdown
EndChar

StartChar: r.upsidedown.ext.down
Encoding: 65814 -1 362
Width: 320
Flags: HW
AnchorPoint: "Extension_mkmk" 110.014 20 mark 0
LayerCount: 2
Fore
SplineSet
118.013671875 -40 m 1
 40.013671875 -105 l 1
 36.013671875 -100 l 1
 72.013671875 -70 l 1
 86.013671875 0 l 2
 101.013671875 40 117.614257812 53 134.013671875 40 c 1
 118.013671875 -40 l 1
EndSplineSet
Substitution2: "Single Substitution lookup 32 subtable" r.upsidedown.ext.left
Substitution2: "Single Substitution lookup 31 subtable" r.upsidedown.ext.right
Substitution2: "Single Substitution lookup 30 subtable" r.upsidedown.ext.diagdown
Substitution2: "Single Substitution lookup 26 subtable" r.upsidedown.ext.left
Substitution2: "Single Substitution lookup 25 subtable" r.upsidedown.ext.right
Substitution2: "Single Substitution lookup 24 subtable" r.upsidedown.ext.diagdown
EndChar

StartChar: r.ext.down
Encoding: 65815 -1 363
Width: 320
Flags: HW
AnchorPoint: "Extension_mkmk" 107.514 20 mark 0
LayerCount: 2
Fore
SplineSet
117.513671875 -30 m 1
 147.513671875 -5 l 1
 151.513671875 -10 l 1
 67.513671875 -80 l 1
 83.513671875 0 l 2
 98.513671875 40 115.114257812 53 131.513671875 40 c 1
 117.513671875 -30 l 1
EndSplineSet
Substitution2: "Single Substitution lookup 32 subtable" r.ext.left
Substitution2: "Single Substitution lookup 31 subtable" r.ext.right
Substitution2: "Single Substitution lookup 30 subtable" r.ext.diagdown
Substitution2: "Single Substitution lookup 26 subtable" r.ext.left
Substitution2: "Single Substitution lookup 25 subtable" r.ext.right
Substitution2: "Single Substitution lookup 24 subtable" r.ext.diagdown
EndChar

StartChar: s.ext.down
Encoding: 65816 -1 364
Width: 320
Flags: HW
AnchorPoint: "Extension_mkmk" 95.5 20 mark 0
LayerCount: 2
Fore
SplineSet
128.5 85 m 1
 121.5 50 l 1
 151.5 75 l 1
 155.5 70 l 1
 71.5 0 l 1
 79.5 40 l 1
 91.900390625 37 109.099609375 53 128.5 85 c 1
EndSplineSet
Substitution2: "Single Substitution lookup 32 subtable" s.ext.left
Substitution2: "Single Substitution lookup 31 subtable" s.ext.right
Substitution2: "Single Substitution lookup 30 subtable" s.ext.diagdown
Substitution2: "Single Substitution lookup 26 subtable" s.ext.left
Substitution2: "Single Substitution lookup 25 subtable" s.ext.right
Substitution2: "Single Substitution lookup 24 subtable" s.ext.diagdown
EndChar

StartChar: t.ext.down
Encoding: 65817 -1 365
Width: 320
Flags: HW
AnchorPoint: "Extension_mkmk" 100.3 20 mark 0
LayerCount: 2
Fore
SplineSet
124.299804688 40 m 1
 48.7001953125 -23 l 1
 6.900390625 28 l 1
 40.5 56 l 1
 78.2998046875 10 l 1
 84.2998046875 40 l 1
 92.099609375 29 106.5 36 128.299804688 60 c 1
 124.299804688 40 l 1
EndSplineSet
Substitution2: "Single Substitution lookup 32 subtable" t.ext.left
Substitution2: "Single Substitution lookup 31 subtable" t.ext.right
Substitution2: "Single Substitution lookup 30 subtable" t.ext.diagdown
Substitution2: "Single Substitution lookup 26 subtable" t.ext.left
Substitution2: "Single Substitution lookup 25 subtable" t.ext.right
Substitution2: "Single Substitution lookup 24 subtable" t.ext.diagdown
EndChar

StartChar: v.ext.down
Encoding: 65818 -1 366
Width: 320
Flags: HW
AnchorPoint: "Extension_mkmk" 96.1602 20 mark 0
LayerCount: 2
Fore
SplineSet
84.759765625 63 m 1
 96.16015625 50 110.559570312 57 128.559570312 82 c 1
 121.959960938 49 l 1
 152.16015625 75 l 1
 149.759765625 28 165.559570312 7 199.759765625 13 c 1
 162.959960938 -16 135.759765625 -7 120.16015625 40 c 1
 72.16015625 0 l 1
 84.759765625 63 l 1
EndSplineSet
Substitution2: "Single Substitution lookup 32 subtable" v.ext.left
Substitution2: "Single Substitution lookup 31 subtable" v.ext.right
Substitution2: "Single Substitution lookup 30 subtable" v.ext.diagdown
Substitution2: "Single Substitution lookup 26 subtable" v.ext.left
Substitution2: "Single Substitution lookup 25 subtable" v.ext.right
Substitution2: "Single Substitution lookup 24 subtable" v.ext.diagdown
EndChar

StartChar: velar.ext.down
Encoding: 65819 -1 367
Width: 320
Flags: HW
AnchorPoint: "Extension_mkmk" 97 20 mark 0
LayerCount: 2
Fore
SplineSet
117.400390625 37 m 2
 117.400390625 37 l 1
 73 0 l 1
 83.400390625 52 l 1
 127 70 l 1
 122.799804688 49 l 1
 137 60 150 65 161.200195312 66 c 0
 175.400390625 67 187 60 197.200195312 46 c 1
 161.200195312 16 l 1
 157.200195312 26 151.799804688 34 142.599609375 38 c 0
 133.400390625 42 125.400390625 42 117.400390625 37 c 2
EndSplineSet
Substitution2: "Single Substitution lookup 32 subtable" velar.ext.left
Substitution2: "Single Substitution lookup 31 subtable" velar.ext.right
Substitution2: "Single Substitution lookup 30 subtable" velar.ext.diagdown
Substitution2: "Single Substitution lookup 26 subtable" velar.ext.left
Substitution2: "Single Substitution lookup 25 subtable" velar.ext.right
Substitution2: "Single Substitution lookup 24 subtable" velar.ext.diagdown
EndChar

StartChar: w.ext.down
Encoding: 65820 -1 368
Width: 320
Flags: HW
AnchorPoint: "Extension_mkmk" 101.7 20 mark 0
LayerCount: 2
Fore
SplineSet
79.5 -66 m 1
 75.5 -61 l 1
 111.5 -31 l 1
 125.700195312 40 l 1
 77.7001953125 0 l 1
 89.7001953125 60 l 1
 100.700195312 50 115.5 54 131.700195312 70 c 1
 127.5 49 l 1
 175.5 89 l 1
 157.700195312 0 l 1
 79.5 -66 l 1
EndSplineSet
Substitution2: "Single Substitution lookup 32 subtable" w.ext.left
Substitution2: "Single Substitution lookup 31 subtable" w.ext.right
Substitution2: "Single Substitution lookup 30 subtable" w.ext.diagdown
Substitution2: "Single Substitution lookup 26 subtable" w.ext.left
Substitution2: "Single Substitution lookup 25 subtable" w.ext.right
Substitution2: "Single Substitution lookup 24 subtable" w.ext.diagdown
EndChar

StartChar: x.ext.down
Encoding: 65821 -1 369
Width: 320
Flags: HW
AnchorPoint: "Extension_mkmk" 101.303 20 mark 0
LayerCount: 2
Fore
SplineSet
159.102539062 9 m 1
 124.501953125 -34 85.501953125 -44 43.1025390625 -21 c 1
 79.302734375 10 l 1
 88.1025390625 54 l 1
 100.501953125 46 113.90234375 48 129.302734375 60 c 1
 125.302734375 40 l 1
 83.302734375 5 l 1
 99.1025390625 -11 124.301757812 -10 159.102539062 9 c 1
EndSplineSet
Substitution2: "Single Substitution lookup 32 subtable" x.ext.left
Substitution2: "Single Substitution lookup 31 subtable" x.ext.right
Substitution2: "Single Substitution lookup 30 subtable" x.ext.diagdown
Substitution2: "Single Substitution lookup 26 subtable" x.ext.left
Substitution2: "Single Substitution lookup 25 subtable" x.ext.right
Substitution2: "Single Substitution lookup 24 subtable" x.ext.diagdown
EndChar

StartChar: y.ext.down
Encoding: 65822 -1 370
Width: 320
Flags: HW
AnchorPoint: "Extension_mkmk" 100 20 mark 0
LayerCount: 2
Fore
SplineSet
196 0 m 1
 148 -40 l 1
 78 -40 l 1
 126 0 l 1
 76 0 l 1
 88 60 l 1
 102.599609375 53 117.799804688 59 132 80 c 1
 124 40 l 1
 184 40 l 1
 136 0 l 1
 196 0 l 1
EndSplineSet
Substitution2: "Single Substitution lookup 32 subtable" y.ext.left
Substitution2: "Single Substitution lookup 31 subtable" y.ext.right
Substitution2: "Single Substitution lookup 30 subtable" y.ext.diagdown
Substitution2: "Single Substitution lookup 26 subtable" y.ext.left
Substitution2: "Single Substitution lookup 25 subtable" y.ext.right
Substitution2: "Single Substitution lookup 24 subtable" y.ext.diagdown
EndChar

StartChar: z.ext.down
Encoding: 65823 -1 371
Width: 320
Flags: HW
AnchorPoint: "Extension_mkmk" 99.4004 20 mark 0
LayerCount: 2
Fore
SplineSet
41.400390625 -20 m 1
 77.400390625 10 l 1
 84.400390625 45 l 1
 95.7998046875 37 111.599609375 46 129.599609375 71 c 1
 123.400390625 40 l 1
 45.400390625 -25 l 1
 41.400390625 -20 l 1
EndSplineSet
Substitution2: "Single Substitution lookup 32 subtable" z.ext.left
Substitution2: "Single Substitution lookup 31 subtable" z.ext.right
Substitution2: "Single Substitution lookup 30 subtable" z.ext.diagdown
Substitution2: "Single Substitution lookup 26 subtable" z.ext.left
Substitution2: "Single Substitution lookup 25 subtable" z.ext.right
Substitution2: "Single Substitution lookup 24 subtable" z.ext.diagdown
EndChar

StartChar: glottal.ext.diagdown
Encoding: 65825 -1 373
Width: 320
Flags: HW
AnchorPoint: "Extension_mkmk" 99.9004 20 mark 0
LayerCount: 2
Fore
SplineSet
103.5 23 m 1
 75.900390625 0 l 1
 66.099609375 31 76.5 43 107.900390625 35 c 1
 137.900390625 60 l 1
 141.900390625 55 l 1
 138.299804688 52 l 2
 109.299804688 27 116.700195312 14 159.099609375 11 c 1
 123.099609375 -19 l 1
 101.299804688 -8 95.099609375 6 103.5 23 c 1
EndSplineSet
EndChar

StartChar: ncaron.ext.diagdown
Encoding: 65826 -1 374
Width: 320
Flags: HW
AnchorPoint: "Extension_mkmk" 96.5 20 mark 0
LayerCount: 2
Fore
SplineSet
70.5 40 m 0
 74.099609375 48 83.099609375 48 100.5 40 c 2
 170.5 40 l 1
 212.5 75 l 1
 216.5 70 l 1
 132.5 0 l 1
 72.5 0 l 1
 65.2998046875 19 65.099609375 33 70.5 40 c 0
EndSplineSet
EndChar

